<svg width="80" height="80" viewBox="0 0 80 80" fill="none" xmlns="http://www.w3.org/2000/svg">
<path d="M40 0C17.9087 0 0 17.9087 0 40C0 62.0913 17.9087 80 40 80C62.0913 80 80 62.0913 80 40C79.975 17.919 62.081 0.025 40 0ZM77.3 38.6667H66.5987C65.9037 25.0112 54.9887 14.0963 41.3333 13.4013V2.7C60.8907 3.42133 76.5787 19.1093 77.3 38.6667ZM38.6667 41.3333V50.5747C33.8405 49.9593 30.0407 46.1595 29.4253 41.3333H38.6667ZM29.4253 38.6667C30.0407 33.8405 33.8405 30.0407 38.6667 29.4253V38.6667H29.4253ZM41.3333 41.3333H50.5747C49.9593 46.1595 46.1595 49.9593 41.3333 50.5747V41.3333ZM41.3333 38.6667V29.4253C46.1595 30.0407 49.9593 33.8405 50.5747 38.6667H41.3333ZM38.6667 26.7347C32.3618 27.3767 27.3767 32.3618 26.7347 38.6667H16.068C16.7572 26.4827 26.4827 16.7572 38.6667 16.068V26.7347ZM26.7347 41.3333C27.3767 47.6382 32.3618 52.6233 38.6667 53.2653V63.932C26.4827 63.2428 16.7572 53.5173 16.068 41.3333H26.7347ZM41.3333 53.2653C47.6382 52.6233 52.6233 47.6382 53.2653 41.3333H63.932C63.2428 53.5173 53.5173 63.2428 41.3333 63.932V53.2653ZM53.2653 38.6667C52.6233 32.3618 47.6382 27.3767 41.3333 26.7347V16.068C53.5173 16.7572 63.2428 26.4827 63.932 38.6667H53.2653ZM38.6667 2.7V13.4013C25.0112 14.0963 14.0963 25.0112 13.4013 38.6667H2.7C3.42133 19.1093 19.1093 3.42133 38.6667 2.7ZM2.7 41.3333H13.4013C14.0963 54.9888 25.0112 65.9037 38.6667 66.5987V77.3C19.1093 76.5787 3.42133 60.8907 2.7 41.3333ZM41.3333 77.3V66.5987C54.9887 65.9037 65.9037 54.9888 66.5987 41.3333H77.3C76.5787 60.8907 60.8907 76.5787 41.3333 77.3Z" fill="url(#paint0_linear)"/>
<defs>
<linearGradient id="paint0_linear" x2="1" gradientUnits="userSpaceOnUse" gradientTransform="translate(-16.4124 44.1997) scale(80) rotate(-49.2576)">
<stop stop-color="#94AAEB"/>
<stop offset="1" stop-color="#B870FF"/>
</linearGradient>
</defs>
</svg>
