<svg width="80" height="80" viewBox="0 0 80 80" fill="none" xmlns="http://www.w3.org/2000/svg">
<path d="M78.75 40C78.75 61.401 61.401 78.75 40 78.75C18.599 78.75 1.25 61.401 1.25 40C1.25 18.599 18.599 1.25 40 1.25C61.401 1.25 78.75 18.599 78.75 40Z" stroke="url(#paint0_linear)" stroke-width="2.5"/>
<path d="M23.4781 11.0952C23.2281 9.41133 22.6094 7.85161 21.71 6.50374L23.0184 5.16433L20.3731 2.45638L19.102 3.7577C17.786 2.7791 16.2482 2.0961 14.5796 1.80033V0H10.8384V1.80033C9.17017 2.0961 7.63236 2.77928 6.31607 3.7577L5.04488 2.45638L2.39966 5.16433L3.70805 6.50374C2.80882 7.85161 2.19025 9.41133 1.93995 11.0952H0V14.9252H2.01823C2.32629 16.5465 2.97715 18.0414 3.89095 19.3292L2.39984 20.8557L5.04506 23.5636L6.57339 21.9991C7.83106 22.8781 9.27795 23.4925 10.8384 23.769V26.0202H14.5796V23.769C16.1401 23.4925 17.5871 22.8781 18.8446 21.9991L20.373 23.5636L23.0182 20.8557L21.5271 19.3292C22.4405 18.0412 23.0917 16.5461 23.3998 14.925H25.418V11.0952H23.4781ZM12.7094 18.3608C9.70132 18.3608 7.26269 15.8644 7.26269 12.785C7.26269 9.70566 9.70132 7.20921 12.7094 7.20921C15.7174 7.20921 18.156 9.70566 18.156 12.785C18.156 15.8644 15.7174 18.3608 12.7094 18.3608Z" transform="translate(12 34.9053)" fill="url(#paint1_linear)"/>
<path d="M19.0063 8.98186C18.8039 7.61855 18.3031 6.35622 17.575 5.26495L18.6342 4.18069L16.4927 1.98846L15.4636 3.04199C14.3981 2.24991 13.1533 1.697 11.8028 1.45747V0H8.774V1.45747C7.42348 1.697 6.17863 2.24991 5.11317 3.04199L4.08404 1.98846L1.94258 4.18069L3.00172 5.26495C2.27363 6.35604 1.77284 7.61855 1.57046 8.98186H0V12.0824H1.63365C1.88308 13.3949 2.41019 14.6051 3.1497 15.6475L1.94258 16.8832L4.08404 19.0755L5.32134 17.8088C6.33924 18.5208 7.51054 19.0178 8.774 19.2419V21.0643H11.8028V19.2419C13.066 19.018 14.2375 18.5208 15.2554 17.8088L16.4927 19.0755L18.6342 16.8832L17.4271 15.6475C18.1666 14.6048 18.6937 13.3949 18.9431 12.0824H20.5768V8.98186H19.0063ZM10.2885 15.1508C7.69818 15.1508 5.59815 13.001 5.59815 10.3493C5.59815 7.69761 7.69818 5.54779 10.2885 5.54779C12.8787 5.54779 14.9788 7.69761 14.9788 10.3493C14.9786 13.0014 12.8789 15.1508 10.2885 15.1508Z" transform="translate(39.6367 46.9358)" fill="url(#paint2_linear)"/>
<path d="M29.534 19.7022C30.0762 17.5995 30.1252 15.4509 29.7404 13.4046L31.9374 12.5155L30.1814 7.96769L28.0469 8.83129C26.9906 7.00077 25.5277 5.40116 23.7201 4.18752L24.613 2.07831L20.2303 0.133511L19.3373 2.24273C17.2361 1.72198 15.0959 1.72288 13.0689 2.18505L12.2253 0L7.78279 1.79727L8.65131 4.04629C6.92919 5.15768 5.43105 6.66331 4.30292 8.50604L2.03017 7.4978L0.130418 11.9845L2.49462 13.0337C2.05123 15.0932 2.07247 17.1828 2.50392 19.1666L0 20.1799L1.75599 24.7273L4.32258 23.6889C5.35961 25.3724 6.74997 26.8443 8.44085 27.9795L7.3243 30.6167L11.7071 32.5615L12.8236 29.9243C14.789 30.4113 16.7888 30.4438 18.6979 30.0677L19.7123 32.6952L24.1547 30.8975L23.1649 28.3343C24.8741 27.3003 26.3782 25.8874 27.5432 24.1483L29.9074 25.1976L31.8071 20.7109L29.534 19.7022ZM12.3716 24.842C7.64622 22.7451 5.47616 17.124 7.52441 12.2869C9.57266 7.44982 15.0639 5.22848 19.7892 7.32493C24.5146 9.42175 26.6846 15.0429 24.6364 19.88C22.5883 24.7173 17.0971 26.939 12.3716 24.842Z" transform="translate(30.0625 10)" fill="url(#paint3_linear)"/>
<defs>
<linearGradient id="paint0_linear" x2="1" gradientUnits="userSpaceOnUse" gradientTransform="translate(-16.4124 44.1997) scale(80) rotate(-49.2576)">
<stop stop-color="#94AAEB"/>
<stop offset="1" stop-color="#B870FF"/>
</linearGradient>
<linearGradient id="paint1_linear" x2="1" gradientUnits="userSpaceOnUse" gradientTransform="translate(-5.21465 14.3761) scale(25.418 26.0202) rotate(-49.2576)">
<stop stop-color="#94AAEB"/>
<stop offset="1" stop-color="#B870FF"/>
</linearGradient>
<linearGradient id="paint2_linear" x2="1" gradientUnits="userSpaceOnUse" gradientTransform="translate(-4.22143 11.6379) scale(20.5768 21.0643) rotate(-49.2576)">
<stop stop-color="#94AAEB"/>
<stop offset="1" stop-color="#B870FF"/>
</linearGradient>
<linearGradient id="paint3_linear" x2="1" gradientUnits="userSpaceOnUse" gradientTransform="translate(-6.55212 18.064) scale(31.9374 32.6952) rotate(-49.2576)">
<stop stop-color="#94AAEB"/>
<stop offset="1" stop-color="#B870FF"/>
</linearGradient>
</defs>
</svg>
