<svg width="84" height="84" viewBox="0 0 84 84" fill="none" xmlns="http://www.w3.org/2000/svg">
<path fill-rule="evenodd" clip-rule="evenodd" d="M50.3242 6.4248L50.377 6.43408L50.5605 6.46924L50.7832 6.51587L51.2949 6.63306C51.5625 6.698 51.8809 6.78027 52.2441 6.88281C52.748 7.0249 53.3359 7.20605 53.9941 7.43359C56.2539 8.21704 59.3125 9.54712 62.4863 11.7302C68.8145 16.0811 75.6543 23.844 77.5684 37.5674L79.5078 37.2969C77.5078 22.9619 70.3184 14.7383 63.5957 10.1169C60.2461 7.81396 57.0234 6.41162 54.6348 5.58398C53.4395 5.16992 52.4512 4.89893 51.7559 4.73047C51.4082 4.64624 51.1348 4.58765 50.9453 4.5498L50.7246 4.50757L50.6836 4.50024L48.2188 3.88428L52.8438 1.78198L52.0332 0L43.8965 3.69824L48.3164 11.8L50.0352 10.8628L47.1895 5.64453L50.2832 6.41821L50.3242 6.4248ZM6.42383 32.3687L6.43359 32.3164L6.46875 32.1316C6.50195 31.9661 6.55469 31.7178 6.63281 31.3975C6.78906 30.7566 7.04297 29.8284 7.43359 28.6987C8.2168 26.438 9.54688 23.3806 11.7305 20.2053C16.0801 13.877 23.8438 7.03784 37.5664 5.1228L37.2969 3.18408C22.9609 5.18433 14.7383 12.3745 10.1172 19.0964C7.81445 22.4463 6.41211 25.6694 5.58398 28.0579C5.16992 29.2529 4.89844 30.2415 4.73047 30.9363C4.64648 31.2837 4.58789 31.5579 4.54883 31.748L4.50781 31.9688L4.5 32.0098L3.88477 34.4741L1.78125 29.8494L0 30.6594L3.69727 38.7954L11.8008 34.3762L10.8633 32.6577L5.64453 35.5039L6.41797 32.4092L6.42383 32.3687ZM33.0234 77.5752L32.9707 77.5659L32.7871 77.5308L32.3848 77.4448L32.0527 77.3669C31.4121 77.2117 30.4844 76.9578 29.3535 76.5664C27.0938 75.783 24.0352 74.4529 20.8613 72.2698C14.5332 67.9189 7.69336 60.156 5.7793 46.4326L3.83984 46.7031C5.83984 61.0381 13.0293 69.2617 19.752 73.8831C23.1016 76.186 26.3242 77.5884 28.7129 78.416C29.3594 78.6399 29.9453 78.822 30.457 78.9685L30.7598 79.0537C31.0703 79.1392 31.3477 79.2107 31.5918 79.2695C31.9395 79.3538 32.2129 79.4124 32.4023 79.4502L32.623 79.4924L32.6641 79.4998L35.1289 80.1157L30.5039 82.218L31.3145 84L39.4512 80.3018L35.0312 72.2L33.3125 73.1372L36.1582 78.3555L33.0645 77.5818L33.0234 77.5752ZM77.5664 50.3784L77.5762 50.3262L77.582 50.2856L78.3555 47.1909L73.1367 50.0371L72.1992 48.3186L80.3027 43.8994L84 52.0354L82.2188 52.8455L80.1152 48.2207L79.5 50.6851L79.4922 50.7261L79.4512 50.9468C79.4121 51.137 79.3535 51.4111 79.2695 51.7585C79.1504 52.2524 78.9785 52.8945 78.7402 53.6538C78.6426 53.9629 78.5352 54.2913 78.416 54.637C77.5879 57.0254 76.1855 60.2485 73.8828 63.5984C69.2617 70.3203 61.0391 77.5105 46.7031 79.5107L46.4336 77.572C60.1562 75.657 67.9199 68.8179 72.2695 62.4895C74.4531 59.3142 75.7832 56.2568 76.5664 53.9961C76.957 52.8665 77.2109 51.9382 77.3672 51.2974C77.4453 50.9771 77.498 50.7288 77.5312 50.5632L77.5664 50.3784ZM27.6445 45.2627L47.2188 16.5518L40.6953 36.78H55.0488L35.4746 66.1433L42 45.2627H27.6445Z" fill="url(#paint0_linear)"/>
<defs>
<linearGradient id="paint0_linear" x2="1" gradientUnits="userSpaceOnUse" gradientTransform="translate(-17.2331 46.4097) scale(84) rotate(-49.2576)">
<stop stop-color="#94AAEB"/>
<stop offset="1" stop-color="#B870FF"/>
</linearGradient>
</defs>
</svg>
