<svg width="79" height="82" viewBox="0 0 79 82" fill="none" xmlns="http://www.w3.org/2000/svg">
<path d="M9 8V32H9.5H13V8L19.5 14L22 11L11 0L0 10.5L2.5 13.5L9 8Z" transform="translate(27.5 22.5)" fill="url(#paint0_linear)"/>
<path d="M76.2731 53.2009C76.2031 52.5009 75.6141 51.9689 74.913 51.9725H73.7678C75.4349 47.6169 76.2843 42.9894 76.2731 38.3235C76.3024 17.1875 59.2517 0.0293829 38.1894 3.76902e-05C17.1272 -0.0293075 0.0292802 17.081 3.75585e-05 38.2171C-0.0292051 59.3531 17.0213 76.5111 38.0835 76.5404C41.0357 76.5445 43.9781 76.2046 46.8521 75.5277L46.357 80.4986C46.2819 81.2486 46.8269 81.9177 47.5743 81.9932C47.6195 81.9978 47.6649 82 47.7103 82H77.6331C78.3842 82.0037 78.9963 81.3957 79 80.6419C79.0002 80.594 78.998 80.5462 78.9932 80.4986L76.2731 53.2009ZM38.1896 73.8108C18.6591 73.8108 2.82638 57.9226 2.82638 38.3235C2.82638 18.7245 18.6591 2.83629 38.1896 2.83629C57.7202 2.83629 73.5529 18.7245 73.5529 38.3235C73.5646 43.0099 72.6395 47.6511 70.8326 51.9725H69.4725C69.4725 48.2035 66.4277 45.148 62.6719 45.148C58.9161 45.148 55.8712 48.2035 55.8712 51.9725H50.4307C49.7322 51.9725 49.1473 52.5034 49.0774 53.2009L47.1379 72.6643C44.2158 73.4273 41.2088 73.8125 38.1896 73.8108ZM66.7522 51.9725H58.5915C58.5915 49.711 60.4183 47.8778 62.6719 47.8778C64.9254 47.8778 66.7522 49.711 66.7522 51.9725ZM49.2066 79.2704L51.6549 54.7023H55.8712V57.4321C55.8712 58.1858 56.4802 58.797 57.2314 58.797C57.9825 58.797 58.5915 58.1858 58.5915 57.4321V54.7023H66.7522V57.4321C66.7522 58.1858 67.3612 58.797 68.1124 58.797C68.8635 58.797 69.4725 58.1858 69.4725 57.4321V54.7023H73.6889L76.1371 79.2704H49.2066Z" fill="url(#paint1_linear)"/>
<path d="M14.6728 35H10.3218C9.7211 35 9.23407 34.5103 9.23407 33.9062V12.1077L4.93425 16.4247C4.50948 16.8517 3.82095 16.8517 3.39619 16.4247L0.320069 13.3436C-0.105508 12.9173 -0.106868 12.2248 0.317077 11.7968C0.318029 11.7958 0.319117 11.7947 0.320069 11.7937L11.7304 0.320232C12.1552 -0.106744 12.8437 -0.106744 13.2685 0.320232L24.6799 11.7937C25.1055 12.22 25.1069 12.9125 24.6829 13.3406C24.682 13.3415 24.6809 13.3426 24.6799 13.3436L21.6038 16.4247C21.179 16.8517 20.4905 16.8517 20.0658 16.4247L15.7605 12.1077V33.9062C15.7605 34.5103 15.2735 35 14.6728 35ZM11.4095 32.8125H13.585V9.4717C13.5852 8.86767 14.0722 8.37808 14.673 8.37822C14.9609 8.37822 15.2369 8.49306 15.4407 8.69732L20.8293 14.1092L22.3663 12.5681L12.4973 2.64009L2.62825 12.5638L4.16522 14.1092L9.55386 8.7017C9.9793 8.27527 10.668 8.27636 11.0922 8.70415C11.2944 8.908 11.4083 9.18391 11.4095 9.4717V32.8125Z" transform="translate(26 21)" fill="url(#paint2_linear)"/>
<path d="M29.9227 60.0553C13.3969 60.0553 0 46.6115 0 30.0277C0 13.4439 13.3969 0 29.9227 0C46.4486 0 59.8455 13.4439 59.8455 30.0277C59.8455 30.7814 59.2365 31.3926 58.4854 31.3926C57.7342 31.3926 57.1252 30.7814 57.1252 30.0277C57.1252 14.9514 44.9463 2.72979 29.9227 2.72979C14.8991 2.72979 2.72025 14.9514 2.72025 30.0277C2.72025 45.104 14.8991 57.3256 29.9227 57.3256C30.6739 57.3256 31.2829 57.9367 31.2829 58.6905C31.2829 59.4442 30.6739 60.0553 29.9227 60.0553Z" transform="translate(8.26562 8.29565)" fill="url(#paint3_linear)"/>
<defs>
<linearGradient id="paint0_linear" x2="1" gradientUnits="userSpaceOnUse" gradientTransform="translate(-4.51342 17.6799) scale(22 32) rotate(-49.2576)">
<stop stop-color="#94AAEB"/>
<stop offset="1" stop-color="#B870FF"/>
</linearGradient>
<linearGradient id="paint1_linear" x2="1" gradientUnits="userSpaceOnUse" gradientTransform="translate(-16.2073 45.3047) scale(79 82) rotate(-49.2576)">
<stop stop-color="#94AAEB"/>
<stop offset="1" stop-color="#B870FF"/>
</linearGradient>
<linearGradient id="paint2_linear" x2="1" gradientUnits="userSpaceOnUse" gradientTransform="translate(-5.12889 19.3374) scale(25 35) rotate(-49.2576)">
<stop stop-color="#94AAEB"/>
<stop offset="1" stop-color="#B870FF"/>
</linearGradient>
<linearGradient id="paint3_linear" x2="1" gradientUnits="userSpaceOnUse" gradientTransform="translate(-12.2776 33.1804) scale(59.8455 60.0553) rotate(-49.2576)">
<stop stop-color="#94AAEB"/>
<stop offset="1" stop-color="#B870FF"/>
</linearGradient>
</defs>
</svg>
