<svg width="75" height="93" viewBox="0 0 75 93" fill="none" xmlns="http://www.w3.org/2000/svg">
<path d="M26.3693 2.00049L26.3694 2.00049C39.6434 2.08495 50.4281 13.0386 50.4281 26.5992C50.4281 35.3973 45.8846 43.1076 39.0592 47.4559C36.1765 49.2925 34.4111 52.4853 34.4111 55.9358V61.6214H18.017V55.809C18.017 52.4747 16.3415 49.3237 13.5003 47.5392C6.60202 43.2065 2 35.454 2 26.5996C1.99983 13.0053 13.0427 1.91556 26.3693 2.00049Z" transform="translate(11.2402 11.4219)" stroke="url(#paint0_linear)" stroke-width="4"/>
<path d="M20.0818 6.51093H1.91825C0.863188 6.51093 0 5.49747 0 4.25874V2.25219C0 1.01346 0.863188 0 1.91825 0H20.0818C21.1368 0 22 1.01346 22 2.25219V4.25874C22 5.49747 21.1368 6.51093 20.0818 6.51093Z" transform="translate(26 78)" fill="url(#paint1_linear)"/>
<path d="M20.0818 6.51093H1.91825C0.863188 6.51093 0 5.49747 0 4.25874V2.25219C0 1.01346 0.863188 0 1.91825 0H20.0818C21.1368 0 22 1.01346 22 2.25219V4.25874C22 5.49747 21.1368 6.51093 20.0818 6.51093Z" transform="translate(26 86.4893)" fill="url(#paint2_linear)"/>
<path d="M5.92886 0H1.37323C0.614557 0 0 0.623958 0 1.39341C0 2.16305 0.614738 2.78683 1.37323 2.78683H5.92886C6.68753 2.78683 7.30209 2.16287 7.30209 1.39341C7.30227 0.623958 6.68753 0 5.92886 0Z" transform="translate(0 36.6572)" fill="url(#paint3_linear)"/>
<path d="M5.92886 0H1.37322C0.614552 0 0 0.623958 0 1.39341C0 2.16305 0.614733 2.78683 1.37322 2.78683H5.92886C6.68753 2.78683 7.30209 2.16287 7.30209 1.39341C7.30209 0.623958 6.68753 0 5.92886 0Z" transform="translate(67.6973 36.6572)" fill="url(#paint4_linear)"/>
<path d="M3.62369 0.408183L0.40227 3.67694C-0.13409 4.22119 -0.13409 5.10352 0.40227 5.64759C0.938812 6.19183 1.80819 6.19183 2.34455 5.64759L5.56596 2.37882C6.10232 1.83458 6.10232 0.952244 5.56596 0.408183C5.02942 -0.136061 4.15987 -0.136061 3.62369 0.408183Z" transform="translate(10.5801 59.3096)" fill="url(#paint5_linear)"/>
<path d="M2.34455 5.64759L5.56596 2.37882C6.10232 1.83458 6.10232 0.952244 5.56596 0.408183C5.02942 -0.136061 4.16005 -0.136061 3.62369 0.408183L0.40227 3.67695C-0.13409 4.22119 -0.13409 5.10353 0.40227 5.64759C0.938812 6.19183 1.80819 6.19165 2.34455 5.64759Z" transform="translate(58.4512 10.7368)" fill="url(#paint6_linear)"/>
<path d="M1.37323 7.4096C2.1319 7.4096 2.74646 6.78565 2.74646 6.01619V1.39341C2.74646 0.623774 2.13172 0 1.37323 0C0.614558 0 0 0.623957 0 1.39341V6.01601C0 6.78583 0.614739 7.4096 1.37323 7.4096Z" transform="translate(36.127)" fill="url(#paint7_linear)"/>
<path d="M2.34455 0.408183C1.80801 -0.136061 0.938631 -0.136061 0.40227 0.408183C-0.13409 0.952428 -0.13409 1.83476 0.40227 2.37882L3.62369 5.64759C4.16023 6.19183 5.0296 6.19183 5.56596 5.64759C6.10232 5.10334 6.10232 4.22101 5.56596 3.67694L2.34455 0.408183Z" transform="translate(58.4512 59.3096)" fill="url(#paint8_linear)"/>
<path d="M3.62369 5.64759C4.16023 6.19183 5.0296 6.19183 5.56596 5.64759C6.10232 5.10334 6.10232 4.22101 5.56596 3.67695L2.34455 0.408183C1.80801 -0.136061 0.938631 -0.136061 0.40227 0.408183C-0.13409 0.952428 -0.13409 1.83476 0.40227 2.37882L3.62369 5.64759Z" transform="translate(10.5801 10.7368)" fill="url(#paint9_linear)"/>
<defs>
<linearGradient id="paint0_linear" x2="1" gradientUnits="userSpaceOnUse" gradientTransform="translate(-10.7559 35.1506) scale(52.4281 63.6214) rotate(-49.2576)">
<stop stop-color="#94AAEB"/>
<stop offset="1" stop-color="#B870FF"/>
</linearGradient>
<linearGradient id="paint1_linear" x2="1" gradientUnits="userSpaceOnUse" gradientTransform="translate(-4.51342 3.59727) scale(22 6.51093) rotate(-49.2576)">
<stop stop-color="#94AAEB"/>
<stop offset="1" stop-color="#B870FF"/>
</linearGradient>
<linearGradient id="paint2_linear" x2="1" gradientUnits="userSpaceOnUse" gradientTransform="translate(-4.51342 3.59726) scale(22 6.51093) rotate(-49.2576)">
<stop stop-color="#94AAEB"/>
<stop offset="1" stop-color="#B870FF"/>
</linearGradient>
<linearGradient id="paint3_linear" x2="1" gradientUnits="userSpaceOnUse" gradientTransform="translate(-1.49806 1.53971) scale(7.30209 2.78683) rotate(-49.2576)">
<stop stop-color="#94AAEB"/>
<stop offset="1" stop-color="#B870FF"/>
</linearGradient>
<linearGradient id="paint4_linear" x2="1" gradientUnits="userSpaceOnUse" gradientTransform="translate(-1.49806 1.53971) scale(7.30209 2.78683) rotate(-49.2576)">
<stop stop-color="#94AAEB"/>
<stop offset="1" stop-color="#B870FF"/>
</linearGradient>
<linearGradient id="paint5_linear" x2="1" gradientUnits="userSpaceOnUse" gradientTransform="translate(-1.22442 3.34579) scale(5.96823 6.05577) rotate(-49.2576)">
<stop stop-color="#94AAEB"/>
<stop offset="1" stop-color="#B870FF"/>
</linearGradient>
<linearGradient id="paint6_linear" x2="1" gradientUnits="userSpaceOnUse" gradientTransform="translate(-1.22441 3.34575) scale(5.96823 6.0557) rotate(-49.2576)">
<stop stop-color="#94AAEB"/>
<stop offset="1" stop-color="#B870FF"/>
</linearGradient>
<linearGradient id="paint7_linear" x2="1" gradientUnits="userSpaceOnUse" gradientTransform="translate(-0.563451 4.09378) scale(2.74646 7.4096) rotate(-49.2576)">
<stop stop-color="#94AAEB"/>
<stop offset="1" stop-color="#B870FF"/>
</linearGradient>
<linearGradient id="paint8_linear" x2="1" gradientUnits="userSpaceOnUse" gradientTransform="translate(-1.22441 3.34579) scale(5.96823 6.05577) rotate(-49.2576)">
<stop stop-color="#94AAEB"/>
<stop offset="1" stop-color="#B870FF"/>
</linearGradient>
<linearGradient id="paint9_linear" x2="1" gradientUnits="userSpaceOnUse" gradientTransform="translate(-1.22442 3.34579) scale(5.96823 6.05577) rotate(-49.2576)">
<stop stop-color="#94AAEB"/>
<stop offset="1" stop-color="#B870FF"/>
</linearGradient>
</defs>
</svg>
