<svg width="79" height="88" viewBox="0 0 79 88" fill="none" xmlns="http://www.w3.org/2000/svg">
<path fill-rule="evenodd" clip-rule="evenodd" d="M39.3086 2.5C18.9844 2.5 2.5 19.019 2.5 39.4014C2.5 58.7212 17.3105 74.5703 36.1641 76.1699L29.6406 69.6313C29.1523 69.1426 29.1543 68.3511 29.6426 67.8638C30.1309 67.376 30.9219 67.377 31.4102 67.8657L40.1035 76.5884C40.1348 76.6138 40.1641 76.6396 40.1914 76.668C40.2188 76.6963 40.2461 76.7261 40.2715 76.7568C40.4492 76.9731 40.5586 77.2505 40.5586 77.5527C40.5586 77.5615 40.5586 77.5708 40.5586 77.5796C40.5586 77.7134 40.5332 77.8418 40.4902 77.9624C40.4414 78.104 40.3672 78.2344 40.2734 78.3477C40.2422 78.3853 40.209 78.4214 40.1738 78.4551L31.4102 87.2397C30.9219 87.7285 30.1309 87.7295 29.6426 87.2417C29.4199 87.0205 29.2988 86.7363 29.2793 86.4463C29.2539 86.0977 29.375 85.7407 29.6406 85.4741L36.4023 78.6968C16.0488 77.2056 0 60.1792 0 39.4014C0 17.644 17.5977 0 39.3086 0C61.0215 0 78.6172 17.644 78.6172 39.4014C78.6172 50.2124 74.2715 60.0098 67.2383 67.1279C66.9766 67.3926 66.627 67.5161 66.2812 67.4976C65.9863 67.4819 65.6973 67.3623 65.4707 67.1387C65.1797 66.8521 65.0605 66.458 65.1094 66.0825C65.1289 65.9414 65.1719 65.8032 65.2402 65.6738C65.2969 65.5649 65.3691 65.4629 65.459 65.3711C72.0508 58.7021 76.1172 49.5293 76.1172 39.4014C76.1172 19.019 59.6348 2.5 39.3086 2.5Z" fill="url(#paint0_linear)"/>
<path fill-rule="evenodd" clip-rule="evenodd" d="M8.31836 8.33691C8.31836 4.83545 11.1504 2 14.6367 2C18.125 2 20.957 4.83545 20.957 8.33691V17.1406H8.31836V8.33691ZM6.31836 17.1406V8.33691C6.31836 3.73535 10.041 0 14.6367 0C19.2344 0 22.957 3.73535 22.957 8.33691V17.1406H29.2754V42.0854H0V17.1406H6.31836ZM19.0293 27.4116C19.0293 24.9805 17.0625 23.0098 14.6367 23.0098C12.2129 23.0098 10.2461 24.9805 10.2461 27.4116C10.2461 29.3442 11.4961 30.9688 13.2246 31.5601L13.2031 31.6499C13.1934 31.6841 13.1836 31.7183 13.1777 31.7539L13.1738 31.814V36.2158C13.1738 36.6416 13.3535 37.0239 13.6426 37.292C13.9043 37.5347 14.2539 37.6831 14.6367 37.6831C15.4453 37.6831 16.1016 37.0273 16.1016 36.2158V31.814C16.1016 31.7563 16.0859 31.7031 16.0723 31.6499L16.0508 31.5601C17.7793 30.9688 19.0293 29.3442 19.0293 27.4116Z" transform="translate(24.6699 14.9238)" fill="url(#paint1_linear)"/>
<defs>
<linearGradient id="paint0_linear" x2="1" gradientUnits="userSpaceOnUse" gradientTransform="translate(-16.1287 48.4025) scale(78.6172 87.6069) rotate(-49.2576)">
<stop stop-color="#94AAEB"/>
<stop offset="1" stop-color="#B870FF"/>
</linearGradient>
<linearGradient id="paint1_linear" x2="1" gradientUnits="userSpaceOnUse" gradientTransform="translate(-6.00601 23.2521) scale(29.2754 42.0854) rotate(-49.2576)">
<stop stop-color="#94AAEB"/>
<stop offset="1" stop-color="#B870FF"/>
</linearGradient>
</defs>
</svg>
