<svg width="410" height="121" viewBox="0 0 410 121" fill="none" xmlns="http://www.w3.org/2000/svg">
<path d="M21.456 13.014C21.456 14.982 21.162 16.752 20.574 18.324C19.986 19.896 19.158 21.234 18.09 22.338C17.022 23.442 15.738 24.288 14.238 24.876C12.75 25.464 11.106 25.758 9.306 25.758H0V0.288H9.306C11.106 0.288 12.75 0.581999 14.238 1.17C15.738 1.758 17.022 2.604 18.09 3.708C19.158 4.812 19.986 6.15 20.574 7.722C21.162 9.294 21.456 11.058 21.456 13.014ZM19.548 13.014C19.548 11.238 19.302 9.654 18.81 8.262C18.318 6.87 17.622 5.694 16.722 4.734C15.822 3.774 14.742 3.042 13.482 2.538C12.222 2.034 10.83 1.782 9.306 1.782H1.854V24.264H9.306C10.83 24.264 12.222 24.012 13.482 23.508C14.742 23.004 15.822 22.272 16.722 21.312C17.622 20.352 18.318 19.176 18.81 17.784C19.302 16.392 19.548 14.802 19.548 13.014Z" transform="translate(150.647 45.1406)" fill="white"/>
<path d="M51.3231 16.506L46.1391 3.636C45.9591 3.216 45.7851 2.712 45.6171 2.124C45.5451 2.412 45.4671 2.688 45.3831 2.952C45.2991 3.204 45.2091 3.438 45.1131 3.654L39.9291 16.506H51.3231ZM56.9571 25.758H55.5351C55.3671 25.758 55.2291 25.716 55.1211 25.632C55.0131 25.536 54.9291 25.416 54.8691 25.272L51.8811 17.874H39.3711L36.3831 25.272C36.3351 25.404 36.2511 25.518 36.1311 25.614C36.0111 25.71 35.8671 25.758 35.6991 25.758H34.2951L44.7171 0.288H46.5351L56.9571 25.758Z" transform="translate(150.647 45.1406)" fill="white"/>
<path d="M86.0077 1.854H77.0617V25.758H75.2077V1.854H66.2077V0.288H86.0077V1.854Z" transform="translate(150.647 45.1406)" fill="white"/>
<path d="M112.333 16.506L107.149 3.636C106.969 3.216 106.795 2.712 106.627 2.124C106.555 2.412 106.477 2.688 106.393 2.952C106.309 3.204 106.219 3.438 106.123 3.654L100.939 16.506H112.333ZM117.967 25.758H116.545C116.377 25.758 116.239 25.716 116.131 25.632C116.023 25.536 115.939 25.416 115.879 25.272L112.891 17.874H100.381L97.3932 25.272C97.3452 25.404 97.2612 25.518 97.1412 25.614C97.0212 25.71 96.8772 25.758 96.7092 25.758H95.3052L105.727 0.288H107.545L117.967 25.758Z" transform="translate(150.647 45.1406)" fill="white"/>
<path d="M150.564 0.288L140.052 25.758H138.414L127.902 0.288H129.36C129.528 0.288 129.666 0.336 129.774 0.432C129.882 0.516 129.966 0.63 130.026 0.773999L138.702 21.906C138.798 22.17 138.894 22.452 138.99 22.752C139.086 23.052 139.176 23.358 139.26 23.67C139.332 23.358 139.41 23.052 139.494 22.752C139.578 22.452 139.674 22.17 139.782 21.906L148.44 0.773999C148.488 0.641999 148.572 0.527999 148.692 0.432C148.812 0.336 148.956 0.288 149.124 0.288H150.564Z" transform="translate(150.647 45.1406)" fill="white"/>
<path d="M167.44 25.758H165.586V0.288H167.44V25.758Z" transform="translate(150.647 45.1406)" fill="white"/>
<path d="M198.139 3.384C198.031 3.588 197.875 3.69 197.671 3.69C197.515 3.69 197.311 3.582 197.059 3.366C196.819 3.138 196.489 2.892 196.069 2.628C195.649 2.352 195.121 2.1 194.485 1.872C193.861 1.644 193.087 1.53 192.163 1.53C191.239 1.53 190.423 1.662 189.715 1.926C189.019 2.19 188.431 2.55 187.951 3.006C187.483 3.462 187.123 3.99 186.871 4.59C186.631 5.19 186.511 5.82 186.511 6.48C186.511 7.344 186.691 8.058 187.051 8.622C187.423 9.186 187.909 9.666 188.509 10.062C189.109 10.458 189.787 10.794 190.543 11.07C191.311 11.334 192.097 11.598 192.901 11.862C193.705 12.126 194.485 12.42 195.241 12.744C196.009 13.056 196.693 13.452 197.293 13.932C197.893 14.412 198.373 15.006 198.733 15.714C199.105 16.41 199.291 17.28 199.291 18.324C199.291 19.392 199.105 20.4 198.733 21.348C198.373 22.284 197.845 23.1 197.149 23.796C196.453 24.492 195.601 25.044 194.593 25.452C193.585 25.848 192.433 26.046 191.137 26.046C189.457 26.046 188.011 25.752 186.799 25.164C185.587 24.564 184.525 23.748 183.613 22.716L184.117 21.924C184.261 21.744 184.429 21.654 184.621 21.654C184.729 21.654 184.867 21.726 185.035 21.87C185.203 22.014 185.407 22.194 185.647 22.41C185.887 22.614 186.175 22.842 186.511 23.094C186.847 23.334 187.237 23.562 187.681 23.778C188.125 23.982 188.635 24.156 189.211 24.3C189.787 24.444 190.441 24.516 191.173 24.516C192.181 24.516 193.081 24.366 193.873 24.066C194.665 23.754 195.331 23.334 195.871 22.806C196.423 22.278 196.843 21.654 197.131 20.934C197.419 20.202 197.563 19.422 197.563 18.594C197.563 17.694 197.377 16.956 197.005 16.38C196.645 15.792 196.165 15.306 195.565 14.922C194.965 14.526 194.281 14.196 193.513 13.932C192.757 13.668 191.977 13.41 191.173 13.158C190.369 12.906 189.583 12.624 188.815 12.312C188.059 12 187.381 11.604 186.781 11.124C186.181 10.632 185.695 10.026 185.323 9.306C184.963 8.574 184.783 7.662 184.783 6.57C184.783 5.718 184.945 4.896 185.269 4.104C185.593 3.312 186.067 2.616 186.691 2.016C187.315 1.404 188.083 0.917999 188.995 0.558C189.919 0.185999 190.969 0 192.145 0C193.465 0 194.647 0.21 195.691 0.629999C196.747 1.05 197.707 1.692 198.571 2.556L198.139 3.384Z" transform="translate(150.647 45.1406)" fill="white"/>
<path d="M217.692 25.758H215.838V0.288H217.692V25.758Z" transform="translate(150.647 45.1406)" fill="white"/>
<path d="M258.651 13.014C258.651 14.982 258.357 16.77 257.769 18.378C257.181 19.974 256.353 21.342 255.285 22.482C254.217 23.61 252.933 24.486 251.433 25.11C249.945 25.722 248.301 26.028 246.501 26.028C244.701 26.028 243.057 25.722 241.569 25.11C240.081 24.486 238.803 23.61 237.735 22.482C236.667 21.342 235.839 19.974 235.251 18.378C234.663 16.77 234.369 14.982 234.369 13.014C234.369 11.058 234.663 9.282 235.251 7.686C235.839 6.078 236.667 4.71 237.735 3.582C238.803 2.442 240.081 1.56 241.569 0.936001C243.057 0.312 244.701 0 246.501 0C248.301 0 249.945 0.312 251.433 0.936001C252.933 1.548 254.217 2.424 255.285 3.564C256.353 4.704 257.181 6.078 257.769 7.686C258.357 9.282 258.651 11.058 258.651 13.014ZM256.743 13.014C256.743 11.238 256.497 9.642 256.005 8.226C255.513 6.81 254.817 5.61 253.917 4.626C253.017 3.642 251.937 2.892 250.677 2.376C249.417 1.848 248.025 1.584 246.501 1.584C244.989 1.584 243.603 1.848 242.343 2.376C241.083 2.892 239.997 3.642 239.085 4.626C238.185 5.61 237.483 6.81 236.979 8.226C236.487 9.642 236.241 11.238 236.241 13.014C236.241 14.802 236.487 16.404 236.979 17.82C237.483 19.224 238.185 20.418 239.085 21.402C239.997 22.386 241.083 23.136 242.343 23.652C243.603 24.168 244.989 24.426 246.501 24.426C248.025 24.426 249.417 24.168 250.677 23.652C251.937 23.136 253.017 22.386 253.917 21.402C254.817 20.418 255.513 19.224 256.005 17.82C256.497 16.404 256.743 14.802 256.743 13.014Z" transform="translate(150.647 45.1406)" fill="white"/>
<path fill-rule="evenodd" clip-rule="evenodd" d="M51.034 40.0401L60.0719 73.7543L35.5293 49.2703L0 59.2068L26.3849 33.4594L17.4154 0L42.1448 24.6705L73.8833 16.6247L51.034 40.0401ZM50.721 38.8725L69.227 19.9079L48.7941 31.6843L50.721 38.8725ZM47.8612 32.222L49.8761 39.7383L44.3025 45.45L39.4543 37.0672L47.8612 32.222ZM48.2738 30.7849L68.7068 19.0085L43.0013 25.5249L48.2738 30.7849ZM41.8277 25.8224L47.341 31.3225L38.9341 36.1678L34.0858 27.785L41.8277 25.8224ZM40.9712 24.968L20.8429 4.88762L33.5453 26.8505L40.9712 24.968ZM32.6375 27.358L19.9419 5.40692L27.2386 32.6264L32.6375 27.358ZM26.6935 34.6106L5.13655 55.6468L28.6932 42.07L26.6935 34.6106ZM29.6261 41.5324L27.5473 33.7776L33.1744 28.2864L38.0331 36.6871L29.6261 41.5324ZM29.2134 42.9695L5.65675 56.5462L34.6849 48.4279L29.2134 42.9695ZM35.8345 48.1064L30.1463 42.4318L38.5533 37.5865L43.4119 45.9872L35.8345 48.1064ZM36.6789 48.9488L56.6444 68.8667L43.9488 46.9156L36.6789 48.9488ZM44.843 46.3845L50.1891 40.906L57.5455 68.3474L44.843 46.3845Z" transform="translate(22.145 22.9858)" fill="url(#paint0_linear)" fill-opacity="0.5"/>
<path fill-rule="evenodd" clip-rule="evenodd" d="M54.2645 47.3618L54.2532 82.2623L36.8949 52.2715L0 52.6898L32.1615 34.6367L32.1726 0L49.6631 30.2191L82.4061 30.6477L54.2645 47.3618ZM54.2649 46.153L77.0572 32.6161L54.2672 38.7119L54.2649 46.153ZM53.2268 38.9902L53.2243 46.771L46.3597 50.8481L43.85 41.4983L53.2268 38.9902ZM53.9979 37.7087L76.7879 31.6128L50.2688 31.2657L53.9979 37.7087ZM49.0581 31.2499L52.9574 37.9871L43.5808 40.4951L41.0711 31.1454L49.0581 31.2499ZM48.4524 30.2033L34.2161 5.60663L40.7913 30.103L48.4524 30.2033ZM39.7829 30.3587L33.2111 5.87544L33.202 34.0526L39.7829 30.3587ZM32.1611 35.8285L5.88452 50.5782L32.1586 43.5504L32.1611 35.8285ZM33.1991 43.272L33.2017 35.2444L40.0608 31.3942L42.5758 40.7639L33.1991 43.272ZM32.4279 44.5536L6.15377 51.5814L36.2977 51.2397L32.4279 44.5536ZM37.4915 51.2261L33.4684 44.2753L42.8451 41.7671L45.3601 51.1369L37.4915 51.2261ZM38.0887 52.258L52.2098 76.6557L45.638 52.1724L38.0887 52.258ZM46.6395 51.8905L53.2239 47.9798L53.2147 76.3868L46.6395 51.8905Z" transform="translate(17.6143 19.198)" fill="url(#paint1_linear)" fill-opacity="0.3"/>
<path fill-rule="evenodd" clip-rule="evenodd" d="M31.7425 42.9114L0 61.689L18.8104 30.0018L1.47133 0L31.7545 17.4406L60.3255 1.46879L44.3257 29.9899L61.7968 60.2202L31.7425 42.9114ZM32.7695 42.3039L57.2189 56.3847L39.2646 38.4617L32.7695 42.3039ZM38.5052 37.7036L31.7355 41.7083L24.7699 37.6967L31.6341 30.8445L38.5052 37.7036ZM30.8984 30.1101L24.0273 23.251L20.0156 30.0089L24.0342 36.9623L30.8984 30.1101ZM23.2725 37.7227L19.407 31.0341L4.03855 56.9231L23.2725 37.7227ZM19.419 28.9766L23.2679 22.4929L5.31359 4.56994L19.419 28.9766ZM24.7777 22.5312L31.6341 29.3757L38.4983 22.5235L31.7469 18.6352L24.7777 22.5312ZM30.6981 18.0312L24.0132 21.7682L6.04925 3.83553L30.6981 18.0312ZM32.8034 18.0446L39.26 21.7631L55.9434 5.10882L32.8034 18.0446ZM39.234 23.2579L32.3698 30.1101L39.2263 36.9546L43.129 29.9975L39.234 23.2579ZM43.7207 28.9429L39.9956 22.4975L56.6791 5.8432L43.7207 28.9429ZM43.7341 31.0445L39.9906 37.7176L57.9545 55.6502L43.7341 31.0445ZM24.0082 38.4571L30.7085 42.3159L4.77421 57.6575L24.0082 38.4571Z" transform="translate(29.0894 29.5381)" fill="url(#paint2_linear)" fill-opacity="0.7"/>
<path fill-rule="evenodd" clip-rule="evenodd" d="M40.3654 47.4154L14.573 73.7543L24.5269 38.287L0 13.7872L33.7732 22.8094L57.2295 0L49.1697 31.683L73.8833 56.3693L40.3654 47.4154ZM41.1999 46.5632L68.467 53.8473L46.4775 41.1738L41.1999 46.5632ZM45.5475 40.6378L40.0467 46.2552L32.2783 44.1799L37.1321 35.7876L45.5475 40.6378ZM36.2311 35.2683L27.8157 30.4182L25.6928 37.9824L31.3773 43.6606L36.2311 35.2683ZM30.8387 44.5919L25.3708 39.13L17.2383 68.1075L30.8387 44.5919ZM24.849 37.1395L26.8857 29.8822L4.89619 17.2087L24.849 37.1395ZM28.3538 29.5291L36.7513 34.3689L41.605 25.9767L34.0755 23.9653L28.3538 29.5291ZM32.9058 23.6528L27.4177 28.9896L5.4164 16.3093L32.9058 23.6528ZM34.9429 23.1218L42.1436 25.0454L53.9406 4.64817L34.9429 23.1218ZM42.506 26.496L37.6523 34.8882L46.0497 39.728L48.0157 31.9996L42.506 26.496ZM48.3138 30.8281L43.0447 25.5647L54.8416 5.16746L48.3138 30.8281ZM48.8717 32.8546L46.9859 40.2676L68.9872 52.9479L48.8717 32.8546ZM31.7397 45.1112L39.2122 47.1073L18.1393 68.6268L31.7397 45.1112Z" transform="translate(23.3154 24.5088)" fill="url(#paint3_linear)" fill-opacity="0.5"/>
<path fill-rule="evenodd" clip-rule="evenodd" d="M47.7088 50.1569L29.6242 82.2623L30.0432 45.4317L0 28.1037L34.9615 28.0925L51.7048 0L52.1342 32.6859L82.4061 50.1458L47.7088 50.1569ZM48.294 49.1181L76.5204 49.1091L51.9944 42.5488L48.294 49.1181ZM50.957 42.2714L47.1001 49.1185L39.0584 49.1211L41.5709 39.7607L50.957 42.2714ZM40.566 39.4919L31.1798 36.9813L31.0904 44.8362L38.0535 48.8523L40.566 39.4919ZM37.7747 49.8909L31.0768 46.0279L30.7346 76.1192L37.7747 49.8909ZM30.0568 44.24L30.1425 36.7038L5.61643 30.1436L30.0568 44.24ZM31.4691 35.9835L40.8352 38.4887L43.3477 29.1284L35.5532 29.1309L31.4691 35.9835ZM34.3424 29.1313L30.4249 35.7042L5.88567 29.1404L34.3424 29.1313ZM36.1724 28.0921L43.6265 28.0897L49.733 5.33956L36.1724 28.0921ZM44.3527 29.3972L41.8402 38.7575L51.2063 41.2628L51.1016 33.2898L44.3527 29.3972ZM51.0857 32.0812L44.6314 28.3586L50.738 5.60837L51.0857 32.0812ZM52.15 33.8945L52.2505 41.5421L76.7896 48.1059L52.15 33.8945ZM38.7796 50.1598L46.515 50.1573L31.7395 76.388L38.7796 50.1598Z" transform="translate(18.5339 20.3938)" fill="url(#paint4_linear)" fill-opacity="0.7"/>
<path fill-rule="evenodd" clip-rule="evenodd" d="M51.8009 49.4803L42.6565 85.1642L33.5122 49.4803L0 40.5049L33.7674 31.4612L42.6565 0L51.5457 31.4612L85.3131 40.5049L51.8009 49.4803ZM52.0968 48.3257L79.3591 41.0242H53.9679L52.0968 48.3257ZM52.894 41.0242L50.9438 48.6345L43.1767 50.7148V41.0242L52.894 41.0242ZM42.1363 41.0242L32.4191 41.0242L34.3693 48.6345L42.1363 50.7147L42.1363 41.0242ZM42.1363 51.7901L34.6652 49.7891L42.1363 78.9436L42.1363 51.7901ZM33.2163 48.3257L31.3452 41.0242L5.95394 41.0242L33.2163 48.3257ZM32.4398 39.9856H42.1363L42.1363 30.2951L34.6081 32.3113L32.4398 39.9856ZM33.4386 32.6245L31.3589 39.9856L5.95394 39.9856L33.4386 32.6245ZM34.9368 31.148L42.1363 29.2198L42.1363 5.66707L34.9368 31.148ZM43.1767 30.2951V39.9856L52.8732 39.9856L50.7049 32.3113L43.1767 30.2951ZM50.3762 31.148L43.1767 29.2198L43.1767 5.66707L50.3762 31.148ZM51.8744 32.6245L53.9542 39.9856L79.3591 39.9856L51.8744 32.6245ZM43.1767 51.7901L50.6479 49.7891L43.1767 78.9436L43.1767 51.7901Z" transform="translate(16.5417 18.9424)" fill="url(#paint5_linear)"/>
<ellipse cx="13.5252" cy="13.5016" rx="13.5252" ry="13.5016" transform="translate(72.7234 75.4036) rotate(-180)" fill="#21214F"/>
<path opacity="0.8" d="M0 0C15.2644 14.97 36.1703 24.2 59.2301 24.2C82.29 24.2 103.196 14.97 118.46 0H114.056C99.5682 13.1576 80.3347 21.175 59.2301 21.175C38.1256 21.175 18.8921 13.1576 4.40473 0H0Z" transform="translate(0 96.8)" fill="#6F71B8"/>
<path opacity="0.8" d="M59.2301 3.025C38.1256 3.025 18.8921 11.0424 4.40473 24.2H0C15.2644 9.23004 36.1703 0 59.2301 0C82.29 0 103.196 9.23004 118.46 24.2H114.056C99.5682 11.0424 80.3347 3.025 59.2301 3.025Z" fill="#6F71B8"/>
<path fill-rule="evenodd" clip-rule="evenodd" d="M51.034 40.0401L60.0719 73.7543L35.5293 49.2703L0 59.2068L26.3849 33.4594L17.4154 0L42.1448 24.6705L73.8833 16.6247L51.034 40.0401ZM50.721 38.8725L69.227 19.9079L48.7941 31.6843L50.721 38.8725ZM47.8612 32.222L49.8761 39.7383L44.3025 45.45L39.4543 37.0672L47.8612 32.222ZM48.2738 30.7849L68.7068 19.0085L43.0013 25.5249L48.2738 30.7849ZM41.8277 25.8224L47.341 31.3225L38.9341 36.1678L34.0858 27.785L41.8277 25.8224ZM40.9712 24.968L20.8429 4.88762L33.5453 26.8505L40.9712 24.968ZM32.6375 27.358L19.9419 5.40692L27.2386 32.6264L32.6375 27.358ZM26.6935 34.6106L5.13655 55.6468L28.6932 42.07L26.6935 34.6106ZM29.6261 41.5324L27.5473 33.7776L33.1744 28.2864L38.0331 36.6871L29.6261 41.5324ZM29.2134 42.9695L5.65675 56.5462L34.6849 48.4279L29.2134 42.9695ZM35.8345 48.1064L30.1463 42.4318L38.5533 37.5865L43.4119 45.9872L35.8345 48.1064ZM36.6789 48.9488L56.6444 68.8667L43.9488 46.9156L36.6789 48.9488ZM44.843 46.3845L50.1891 40.906L57.5455 68.3474L44.843 46.3845Z" transform="translate(22.145 22.9858)" fill="url(#paint6_linear)" fill-opacity="0.5"/>
<path fill-rule="evenodd" clip-rule="evenodd" d="M54.2645 47.3618L54.2532 82.2623L36.8949 52.2715L0 52.6898L32.1615 34.6367L32.1726 0L49.6631 30.2191L82.4061 30.6477L54.2645 47.3618ZM54.2649 46.153L77.0572 32.6161L54.2672 38.7119L54.2649 46.153ZM53.2268 38.9902L53.2243 46.771L46.3597 50.8481L43.85 41.4983L53.2268 38.9902ZM53.9979 37.7087L76.7879 31.6128L50.2688 31.2657L53.9979 37.7087ZM49.0581 31.2499L52.9574 37.9871L43.5808 40.4951L41.0711 31.1454L49.0581 31.2499ZM48.4524 30.2033L34.2161 5.60663L40.7913 30.103L48.4524 30.2033ZM39.7829 30.3587L33.2111 5.87544L33.202 34.0526L39.7829 30.3587ZM32.1611 35.8285L5.88452 50.5782L32.1586 43.5504L32.1611 35.8285ZM33.1991 43.272L33.2017 35.2444L40.0608 31.3942L42.5758 40.7639L33.1991 43.272ZM32.4279 44.5536L6.15377 51.5814L36.2977 51.2397L32.4279 44.5536ZM37.4915 51.2261L33.4684 44.2753L42.8451 41.7671L45.3601 51.1369L37.4915 51.2261ZM38.0887 52.258L52.2098 76.6557L45.638 52.1724L38.0887 52.258ZM46.6395 51.8905L53.2239 47.9798L53.2147 76.3868L46.6395 51.8905Z" transform="translate(17.6143 19.198)" fill="url(#paint7_linear)" fill-opacity="0.3"/>
<path fill-rule="evenodd" clip-rule="evenodd" d="M31.7425 42.9114L0 61.689L18.8104 30.0018L1.47133 0L31.7545 17.4406L60.3255 1.46879L44.3257 29.9899L61.7968 60.2202L31.7425 42.9114ZM32.7695 42.3039L57.2189 56.3847L39.2646 38.4617L32.7695 42.3039ZM38.5052 37.7036L31.7355 41.7083L24.7699 37.6967L31.6341 30.8445L38.5052 37.7036ZM30.8984 30.1101L24.0273 23.251L20.0156 30.0089L24.0342 36.9623L30.8984 30.1101ZM23.2725 37.7227L19.407 31.0341L4.03855 56.9231L23.2725 37.7227ZM19.419 28.9766L23.2679 22.4929L5.31359 4.56994L19.419 28.9766ZM24.7777 22.5312L31.6341 29.3757L38.4983 22.5235L31.7469 18.6352L24.7777 22.5312ZM30.6981 18.0312L24.0132 21.7682L6.04925 3.83553L30.6981 18.0312ZM32.8034 18.0446L39.26 21.7631L55.9434 5.10882L32.8034 18.0446ZM39.234 23.2579L32.3698 30.1101L39.2263 36.9546L43.129 29.9975L39.234 23.2579ZM43.7207 28.9429L39.9956 22.4975L56.6791 5.8432L43.7207 28.9429ZM43.7341 31.0445L39.9906 37.7176L57.9545 55.6502L43.7341 31.0445ZM24.0082 38.4571L30.7085 42.3159L4.77421 57.6575L24.0082 38.4571Z" transform="translate(29.0894 29.5381)" fill="url(#paint8_linear)" fill-opacity="0.7"/>
<path fill-rule="evenodd" clip-rule="evenodd" d="M40.3654 47.4154L14.573 73.7543L24.5269 38.287L0 13.7872L33.7732 22.8094L57.2295 0L49.1697 31.683L73.8833 56.3693L40.3654 47.4154ZM41.1999 46.5632L68.467 53.8473L46.4775 41.1738L41.1999 46.5632ZM45.5475 40.6378L40.0467 46.2552L32.2783 44.1799L37.1321 35.7876L45.5475 40.6378ZM36.2311 35.2683L27.8157 30.4182L25.6928 37.9824L31.3773 43.6606L36.2311 35.2683ZM30.8387 44.5919L25.3708 39.13L17.2383 68.1075L30.8387 44.5919ZM24.849 37.1395L26.8857 29.8822L4.89619 17.2087L24.849 37.1395ZM28.3538 29.5291L36.7513 34.3689L41.605 25.9767L34.0755 23.9653L28.3538 29.5291ZM32.9058 23.6528L27.4177 28.9896L5.4164 16.3093L32.9058 23.6528ZM34.9429 23.1218L42.1436 25.0454L53.9406 4.64817L34.9429 23.1218ZM42.506 26.496L37.6523 34.8882L46.0497 39.728L48.0157 31.9996L42.506 26.496ZM48.3138 30.8281L43.0447 25.5647L54.8416 5.16746L48.3138 30.8281ZM48.8717 32.8546L46.9859 40.2676L68.9872 52.9479L48.8717 32.8546ZM31.7397 45.1112L39.2122 47.1073L18.1393 68.6268L31.7397 45.1112Z" transform="translate(23.3154 24.5088)" fill="url(#paint9_linear)" fill-opacity="0.5"/>
<path fill-rule="evenodd" clip-rule="evenodd" d="M47.7088 50.1569L29.6242 82.2623L30.0432 45.4317L0 28.1037L34.9615 28.0925L51.7048 0L52.1342 32.6859L82.4061 50.1458L47.7088 50.1569ZM48.294 49.1181L76.5204 49.1091L51.9944 42.5488L48.294 49.1181ZM50.957 42.2714L47.1001 49.1185L39.0584 49.1211L41.5709 39.7607L50.957 42.2714ZM40.566 39.4919L31.1798 36.9813L31.0904 44.8362L38.0535 48.8523L40.566 39.4919ZM37.7747 49.8909L31.0768 46.0279L30.7346 76.1192L37.7747 49.8909ZM30.0568 44.24L30.1425 36.7038L5.61643 30.1436L30.0568 44.24ZM31.4691 35.9835L40.8352 38.4887L43.3477 29.1284L35.5532 29.1309L31.4691 35.9835ZM34.3424 29.1313L30.4249 35.7042L5.88567 29.1404L34.3424 29.1313ZM36.1724 28.0921L43.6265 28.0897L49.733 5.33956L36.1724 28.0921ZM44.3527 29.3972L41.8402 38.7575L51.2063 41.2628L51.1016 33.2898L44.3527 29.3972ZM51.0857 32.0812L44.6314 28.3586L50.738 5.60837L51.0857 32.0812ZM52.15 33.8945L52.2505 41.5421L76.7896 48.1059L52.15 33.8945ZM38.7796 50.1598L46.515 50.1573L31.7395 76.388L38.7796 50.1598Z" transform="translate(18.5339 20.3938)" fill="url(#paint10_linear)" fill-opacity="0.7"/>
<path fill-rule="evenodd" clip-rule="evenodd" d="M51.8009 49.4803L42.6565 85.1642L33.5122 49.4803L0 40.5049L33.7674 31.4612L42.6565 0L51.5457 31.4612L85.3131 40.5049L51.8009 49.4803ZM52.0968 48.3257L79.3591 41.0242H53.9679L52.0968 48.3257ZM52.894 41.0242L50.9438 48.6345L43.1767 50.7148V41.0242L52.894 41.0242ZM42.1363 41.0242L32.4191 41.0242L34.3693 48.6345L42.1363 50.7147L42.1363 41.0242ZM42.1363 51.7901L34.6652 49.7891L42.1363 78.9436L42.1363 51.7901ZM33.2163 48.3257L31.3452 41.0242L5.95394 41.0242L33.2163 48.3257ZM32.4398 39.9856H42.1363L42.1363 30.2951L34.6081 32.3113L32.4398 39.9856ZM33.4386 32.6245L31.3589 39.9856L5.95394 39.9856L33.4386 32.6245ZM34.9368 31.148L42.1363 29.2198L42.1363 5.66707L34.9368 31.148ZM43.1767 30.2951V39.9856L52.8732 39.9856L50.7049 32.3113L43.1767 30.2951ZM50.3762 31.148L43.1767 29.2198L43.1767 5.66707L50.3762 31.148ZM51.8744 32.6245L53.9542 39.9856L79.3591 39.9856L51.8744 32.6245ZM43.1767 51.7901L50.6479 49.7891L43.1767 78.9436L43.1767 51.7901Z" transform="translate(16.5417 18.9424)" fill="url(#paint11_linear)"/>
<ellipse cx="13.5252" cy="13.5016" rx="13.5252" ry="13.5016" transform="translate(72.7234 75.4036) rotate(-180)" fill="#21214F"/>
<path opacity="0.8" d="M0 0C15.2644 14.97 36.1703 24.2 59.2301 24.2C82.29 24.2 103.196 14.97 118.46 0H114.056C99.5682 13.1576 80.3347 21.175 59.2301 21.175C38.1256 21.175 18.8921 13.1576 4.40473 0H0Z" transform="translate(0 96.8)" fill="#6F71B8"/>
<path opacity="0.8" d="M59.2301 3.025C38.1256 3.025 18.8921 11.0424 4.40473 24.2H0C15.2644 9.23004 36.1703 0 59.2301 0C82.29 0 103.196 9.23004 118.46 24.2H114.056C99.5682 11.0424 80.3347 3.025 59.2301 3.025Z" fill="#6F71B8"/>
<path fill-rule="evenodd" clip-rule="evenodd" d="M51.034 40.0401L60.0719 73.7543L35.5293 49.2703L0 59.2068L26.3849 33.4594L17.4154 0L42.1448 24.6705L73.8833 16.6247L51.034 40.0401ZM50.721 38.8725L69.227 19.9079L48.7941 31.6843L50.721 38.8725ZM47.8612 32.222L49.8761 39.7383L44.3025 45.45L39.4543 37.0672L47.8612 32.222ZM48.2738 30.7849L68.7068 19.0085L43.0013 25.5249L48.2738 30.7849ZM41.8277 25.8224L47.341 31.3225L38.9341 36.1678L34.0858 27.785L41.8277 25.8224ZM40.9712 24.968L20.8429 4.88762L33.5453 26.8505L40.9712 24.968ZM32.6375 27.358L19.9419 5.40692L27.2386 32.6264L32.6375 27.358ZM26.6935 34.6106L5.13655 55.6468L28.6932 42.07L26.6935 34.6106ZM29.6261 41.5324L27.5473 33.7776L33.1744 28.2864L38.0331 36.6871L29.6261 41.5324ZM29.2134 42.9695L5.65675 56.5462L34.6849 48.4279L29.2134 42.9695ZM35.8345 48.1064L30.1463 42.4318L38.5533 37.5865L43.4119 45.9872L35.8345 48.1064ZM36.6789 48.9488L56.6444 68.8667L43.9488 46.9156L36.6789 48.9488ZM44.843 46.3845L50.1891 40.906L57.5455 68.3474L44.843 46.3845Z" transform="translate(22.145 22.9858)" fill="url(#paint12_linear)" fill-opacity="0.5"/>
<path fill-rule="evenodd" clip-rule="evenodd" d="M54.2645 47.3618L54.2532 82.2623L36.8949 52.2715L0 52.6898L32.1615 34.6367L32.1726 0L49.6631 30.2191L82.4061 30.6477L54.2645 47.3618ZM54.2649 46.153L77.0572 32.6161L54.2672 38.7119L54.2649 46.153ZM53.2268 38.9902L53.2243 46.771L46.3597 50.8481L43.85 41.4983L53.2268 38.9902ZM53.9979 37.7087L76.7879 31.6128L50.2688 31.2657L53.9979 37.7087ZM49.0581 31.2499L52.9574 37.9871L43.5808 40.4951L41.0711 31.1454L49.0581 31.2499ZM48.4524 30.2033L34.2161 5.60663L40.7913 30.103L48.4524 30.2033ZM39.7829 30.3587L33.2111 5.87544L33.202 34.0526L39.7829 30.3587ZM32.1611 35.8285L5.88452 50.5782L32.1586 43.5504L32.1611 35.8285ZM33.1991 43.272L33.2017 35.2444L40.0608 31.3942L42.5758 40.7639L33.1991 43.272ZM32.4279 44.5536L6.15377 51.5814L36.2977 51.2397L32.4279 44.5536ZM37.4915 51.2261L33.4684 44.2753L42.8451 41.7671L45.3601 51.1369L37.4915 51.2261ZM38.0887 52.258L52.2098 76.6557L45.638 52.1724L38.0887 52.258ZM46.6395 51.8905L53.2239 47.9798L53.2147 76.3868L46.6395 51.8905Z" transform="translate(17.6143 19.198)" fill="url(#paint13_linear)" fill-opacity="0.3"/>
<path fill-rule="evenodd" clip-rule="evenodd" d="M31.7425 42.9114L0 61.689L18.8104 30.0018L1.47133 0L31.7545 17.4406L60.3255 1.46879L44.3257 29.9899L61.7968 60.2202L31.7425 42.9114ZM32.7695 42.3039L57.2189 56.3847L39.2646 38.4617L32.7695 42.3039ZM38.5052 37.7036L31.7355 41.7083L24.7699 37.6967L31.6341 30.8445L38.5052 37.7036ZM30.8984 30.1101L24.0273 23.251L20.0156 30.0089L24.0342 36.9623L30.8984 30.1101ZM23.2725 37.7227L19.407 31.0341L4.03855 56.9231L23.2725 37.7227ZM19.419 28.9766L23.2679 22.4929L5.31359 4.56994L19.419 28.9766ZM24.7777 22.5312L31.6341 29.3757L38.4983 22.5235L31.7469 18.6352L24.7777 22.5312ZM30.6981 18.0312L24.0132 21.7682L6.04925 3.83553L30.6981 18.0312ZM32.8034 18.0446L39.26 21.7631L55.9434 5.10882L32.8034 18.0446ZM39.234 23.2579L32.3698 30.1101L39.2263 36.9546L43.129 29.9975L39.234 23.2579ZM43.7207 28.9429L39.9956 22.4975L56.6791 5.8432L43.7207 28.9429ZM43.7341 31.0445L39.9906 37.7176L57.9545 55.6502L43.7341 31.0445ZM24.0082 38.4571L30.7085 42.3159L4.77421 57.6575L24.0082 38.4571Z" transform="translate(29.0894 29.5381)" fill="url(#paint14_linear)" fill-opacity="0.7"/>
<path fill-rule="evenodd" clip-rule="evenodd" d="M40.3654 47.4154L14.573 73.7543L24.5269 38.287L0 13.7872L33.7732 22.8094L57.2295 0L49.1697 31.683L73.8833 56.3693L40.3654 47.4154ZM41.1999 46.5632L68.467 53.8473L46.4775 41.1738L41.1999 46.5632ZM45.5475 40.6378L40.0467 46.2552L32.2783 44.1799L37.1321 35.7876L45.5475 40.6378ZM36.2311 35.2683L27.8157 30.4182L25.6928 37.9824L31.3773 43.6606L36.2311 35.2683ZM30.8387 44.5919L25.3708 39.13L17.2383 68.1075L30.8387 44.5919ZM24.849 37.1395L26.8857 29.8822L4.89619 17.2087L24.849 37.1395ZM28.3538 29.5291L36.7513 34.3689L41.605 25.9767L34.0755 23.9653L28.3538 29.5291ZM32.9058 23.6528L27.4177 28.9896L5.4164 16.3093L32.9058 23.6528ZM34.9429 23.1218L42.1436 25.0454L53.9406 4.64817L34.9429 23.1218ZM42.506 26.496L37.6523 34.8882L46.0497 39.728L48.0157 31.9996L42.506 26.496ZM48.3138 30.8281L43.0447 25.5647L54.8416 5.16746L48.3138 30.8281ZM48.8717 32.8546L46.9859 40.2676L68.9872 52.9479L48.8717 32.8546ZM31.7397 45.1112L39.2122 47.1073L18.1393 68.6268L31.7397 45.1112Z" transform="translate(23.3154 24.5088)" fill="url(#paint15_linear)" fill-opacity="0.5"/>
<path fill-rule="evenodd" clip-rule="evenodd" d="M47.7088 50.1569L29.6242 82.2623L30.0432 45.4317L0 28.1037L34.9615 28.0925L51.7048 0L52.1342 32.6859L82.4061 50.1458L47.7088 50.1569ZM48.294 49.1181L76.5204 49.1091L51.9944 42.5488L48.294 49.1181ZM50.957 42.2714L47.1001 49.1185L39.0584 49.1211L41.5709 39.7607L50.957 42.2714ZM40.566 39.4919L31.1798 36.9813L31.0904 44.8362L38.0535 48.8523L40.566 39.4919ZM37.7747 49.8909L31.0768 46.0279L30.7346 76.1192L37.7747 49.8909ZM30.0568 44.24L30.1425 36.7038L5.61643 30.1436L30.0568 44.24ZM31.4691 35.9835L40.8352 38.4887L43.3477 29.1284L35.5532 29.1309L31.4691 35.9835ZM34.3424 29.1313L30.4249 35.7042L5.88567 29.1404L34.3424 29.1313ZM36.1724 28.0921L43.6265 28.0897L49.733 5.33956L36.1724 28.0921ZM44.3527 29.3972L41.8402 38.7575L51.2063 41.2628L51.1016 33.2898L44.3527 29.3972ZM51.0857 32.0812L44.6314 28.3586L50.738 5.60837L51.0857 32.0812ZM52.15 33.8945L52.2505 41.5421L76.7896 48.1059L52.15 33.8945ZM38.7796 50.1598L46.515 50.1573L31.7395 76.388L38.7796 50.1598Z" transform="translate(18.5339 20.3938)" fill="url(#paint16_linear)" fill-opacity="0.7"/>
<path fill-rule="evenodd" clip-rule="evenodd" d="M51.8009 49.4803L42.6565 85.1642L33.5122 49.4803L0 40.5049L33.7674 31.4612L42.6565 0L51.5457 31.4612L85.3131 40.5049L51.8009 49.4803ZM52.0968 48.3257L79.3591 41.0242H53.9679L52.0968 48.3257ZM52.894 41.0242L50.9438 48.6345L43.1767 50.7148V41.0242L52.894 41.0242ZM42.1363 41.0242L32.4191 41.0242L34.3693 48.6345L42.1363 50.7147L42.1363 41.0242ZM42.1363 51.7901L34.6652 49.7891L42.1363 78.9436L42.1363 51.7901ZM33.2163 48.3257L31.3452 41.0242L5.95394 41.0242L33.2163 48.3257ZM32.4398 39.9856H42.1363L42.1363 30.2951L34.6081 32.3113L32.4398 39.9856ZM33.4386 32.6245L31.3589 39.9856L5.95394 39.9856L33.4386 32.6245ZM34.9368 31.148L42.1363 29.2198L42.1363 5.66707L34.9368 31.148ZM43.1767 30.2951V39.9856L52.8732 39.9856L50.7049 32.3113L43.1767 30.2951ZM50.3762 31.148L43.1767 29.2198L43.1767 5.66707L50.3762 31.148ZM51.8744 32.6245L53.9542 39.9856L79.3591 39.9856L51.8744 32.6245ZM43.1767 51.7901L50.6479 49.7891L43.1767 78.9436L43.1767 51.7901Z" transform="translate(16.5417 18.9424)" fill="url(#paint17_linear)"/>
<ellipse cx="13.5252" cy="13.5016" rx="13.5252" ry="13.5016" transform="translate(72.7234 75.4036) rotate(-180)" fill="#21214F"/>
<path opacity="0.8" d="M0 0C15.2644 14.97 36.1703 24.2 59.2301 24.2C82.29 24.2 103.196 14.97 118.46 0H114.056C99.5682 13.1576 80.3347 21.175 59.2301 21.175C38.1256 21.175 18.8921 13.1576 4.40473 0H0Z" transform="translate(0 96.8)" fill="#6F71B8"/>
<path opacity="0.8" d="M59.2301 3.025C38.1256 3.025 18.8921 11.0424 4.40473 24.2H0C15.2644 9.23004 36.1703 0 59.2301 0C82.29 0 103.196 9.23004 118.46 24.2H114.056C99.5682 11.0424 80.3347 3.025 59.2301 3.025Z" fill="#6F71B8"/>
<defs>
<linearGradient id="paint0_linear" x2="1" gradientUnits="userSpaceOnUse" gradientTransform="matrix(63.474 -54.45 4059.38 4739.74 -2019.81 -2299.08)">
<stop stop-color="#4C6CCE"/>
<stop offset="1" stop-color="#A76BE3"/>
</linearGradient>
<linearGradient id="paint1_linear" x2="1" gradientUnits="userSpaceOnUse" gradientTransform="matrix(66.4966 -55.9625 55.885 66.0764 -18.0636 38.5139)">
<stop stop-color="#4C6CCE"/>
<stop offset="1" stop-color="#A76BE3"/>
</linearGradient>
<linearGradient id="paint2_linear" x2="1" gradientUnits="userSpaceOnUse" gradientTransform="matrix(58.9404 -57.4751 4344.18 4462.09 -2166.13 -2172.86)">
<stop stop-color="#4C6CCE"/>
<stop offset="1" stop-color="#A76BE3"/>
</linearGradient>
<linearGradient id="paint3_linear" x2="1" gradientUnits="userSpaceOnUse" gradientTransform="matrix(58.9402 -54.45 4016.83 4355.06 -1999.7 -2115.83)">
<stop stop-color="#4C6CCE"/>
<stop offset="1" stop-color="#A76BE3"/>
</linearGradient>
<linearGradient id="paint4_linear" x2="1" gradientUnits="userSpaceOnUse" gradientTransform="matrix(58.9402 -58.9875 58.8699 58.5375 -17.4529 41.0873)">
<stop stop-color="#4C6CCE"/>
<stop offset="1" stop-color="#A76BE3"/>
</linearGradient>
<linearGradient id="paint5_linear" x2="1" gradientUnits="userSpaceOnUse" gradientTransform="matrix(48.3612 -55.9625 55.8266 48.0065 -7.89404 41.7538)">
<stop stop-color="#4C6CCE"/>
<stop offset="1" stop-color="#A76BE3"/>
</linearGradient>
<linearGradient id="paint6_linear" x2="1" gradientUnits="userSpaceOnUse" gradientTransform="matrix(63.474 -54.45 4059.38 4739.74 -2019.81 -2299.08)">
<stop stop-color="#4C6CCE"/>
<stop offset="1" stop-color="#A76BE3"/>
</linearGradient>
<linearGradient id="paint7_linear" x2="1" gradientUnits="userSpaceOnUse" gradientTransform="matrix(66.4966 -55.9625 55.885 66.0764 -18.0636 38.5139)">
<stop stop-color="#4C6CCE"/>
<stop offset="1" stop-color="#A76BE3"/>
</linearGradient>
<linearGradient id="paint8_linear" x2="1" gradientUnits="userSpaceOnUse" gradientTransform="matrix(58.9404 -57.4751 4344.18 4462.09 -2166.13 -2172.86)">
<stop stop-color="#4C6CCE"/>
<stop offset="1" stop-color="#A76BE3"/>
</linearGradient>
<linearGradient id="paint9_linear" x2="1" gradientUnits="userSpaceOnUse" gradientTransform="matrix(58.9402 -54.45 4016.83 4355.06 -1999.7 -2115.83)">
<stop stop-color="#4C6CCE"/>
<stop offset="1" stop-color="#A76BE3"/>
</linearGradient>
<linearGradient id="paint10_linear" x2="1" gradientUnits="userSpaceOnUse" gradientTransform="matrix(58.9402 -58.9875 58.8699 58.5375 -17.4529 41.0873)">
<stop stop-color="#4C6CCE"/>
<stop offset="1" stop-color="#A76BE3"/>
</linearGradient>
<linearGradient id="paint11_linear" x2="1" gradientUnits="userSpaceOnUse" gradientTransform="matrix(48.3612 -55.9625 55.8266 48.0065 -7.89404 41.7538)">
<stop stop-color="#4C6CCE"/>
<stop offset="1" stop-color="#A76BE3"/>
</linearGradient>
<linearGradient id="paint12_linear" x2="1" gradientUnits="userSpaceOnUse" gradientTransform="matrix(63.474 -54.45 4059.38 4739.74 -2019.81 -2299.08)">
<stop stop-color="#96A7ED"/>
<stop offset="1" stop-color="#B27AFC"/>
</linearGradient>
<linearGradient id="paint13_linear" x2="1" gradientUnits="userSpaceOnUse" gradientTransform="matrix(66.4966 -55.9625 55.885 66.0764 -18.0636 38.5139)">
<stop stop-color="#94AAEB"/>
<stop offset="1" stop-color="#B870FF"/>
</linearGradient>
<linearGradient id="paint14_linear" x2="1" gradientUnits="userSpaceOnUse" gradientTransform="matrix(58.9404 -57.4751 4344.18 4462.09 -2166.13 -2172.86)">
<stop stop-color="#96A7ED"/>
<stop offset="1" stop-color="#B27AFC"/>
</linearGradient>
<linearGradient id="paint15_linear" x2="1" gradientUnits="userSpaceOnUse" gradientTransform="matrix(58.9402 -54.45 4016.83 4355.06 -1999.7 -2115.83)">
<stop stop-color="#96A7ED"/>
<stop offset="1" stop-color="#B27AFC"/>
</linearGradient>
<linearGradient id="paint16_linear" x2="1" gradientUnits="userSpaceOnUse" gradientTransform="matrix(58.9402 -58.9875 58.8699 58.5375 -17.4529 41.0873)">
<stop stop-color="#94AAEB"/>
<stop offset="1" stop-color="#B870FF"/>
</linearGradient>
<linearGradient id="paint17_linear" x2="1" gradientUnits="userSpaceOnUse" gradientTransform="matrix(48.3612 -55.9625 55.8266 48.0065 -7.89404 41.7538)">
<stop stop-color="#94AAEB"/>
<stop offset="1" stop-color="#B870FF"/>
</linearGradient>
</defs>
</svg>
