<svg width="79" height="90" viewBox="0 0 79 90" fill="none" xmlns="http://www.w3.org/2000/svg">
<path d="M66.1705 45C77.0175 35.4066 80.7957 26.9803 78.2254 22.5C76.8065 20.0268 73.384 18.6398 68.3029 18.6752C68.65 19.4078 68.845 20.2279 68.845 21.0938C68.845 21.2157 68.8397 21.3363 68.8322 21.4564C72.4174 21.4418 74.8682 22.2732 75.805 23.9062C77.7735 27.3375 73.3576 34.8231 63.9444 43.0972C61.2195 40.8451 58.112 38.5402 54.6163 36.2171C54.365 32.0091 53.9353 28.1484 53.3596 24.6475C54.9927 24.0859 56.5648 23.6 58.0675 23.1885C58.0534 23.153 58.0396 23.1175 58.0261 23.0817C58.0109 23.0414 57.9964 23.0008 57.9823 22.9602C57.9671 22.9168 57.9524 22.8732 57.9382 22.8292C57.9253 22.789 57.9127 22.7487 57.9007 22.7081C57.8872 22.6626 57.8743 22.6169 57.8621 22.571C57.8512 22.5309 57.8406 22.491 57.8306 22.4506C57.8189 22.403 57.8081 22.3548 57.7976 22.3066C57.7889 22.2671 57.7802 22.2277 57.7725 22.188C57.7625 22.1377 57.7541 22.0871 57.7456 22.0363C57.7391 21.9978 57.7323 21.9593 57.7265 21.9206C57.7187 21.8668 57.7124 21.8125 57.7061 21.7582C57.7019 21.7218 57.6968 21.6856 57.6934 21.6489C57.6874 21.5882 57.6834 21.5269 57.6796 21.4657C57.6776 21.4348 57.6747 21.4044 57.6731 21.3732C57.6685 21.2808 57.6661 21.1876 57.6661 21.0939C57.6661 20.8153 57.6871 20.5416 57.7258 20.2739C56.1683 20.6845 54.5374 21.1767 52.8354 21.7561C50.003 7.50586 44.6406 0 39.5 0C34.3592 0 28.9969 7.50586 26.1648 21.7561C12.4855 17.0993 3.34508 18.0197 0.774604 22.5C-0.482688 24.6916 -0.218758 27.8283 1.64604 31.583C2.23958 30.8577 3.01076 30.2859 3.89181 29.9319C2.65478 27.3941 2.38962 25.3102 3.19504 23.9062C5.1636 20.475 13.8134 20.5806 25.6403 24.6475C25.0645 28.1484 24.6349 32.0089 24.3835 36.2171C20.8878 38.5402 17.7804 40.8451 15.0555 43.0972C13.3191 41.5709 11.7529 40.0716 10.3655 38.6195C9.76429 39.3924 8.96726 40.0025 8.04884 40.3747C9.45338 41.8765 11.046 43.4224 12.8294 44.9998C1.98246 54.5933 -1.7957 63.0195 0.774604 67.4998C3.34491 71.9801 12.4853 72.9005 26.1646 68.2437C26.6914 70.8947 27.3056 73.3129 27.99 75.4921C28.7767 74.9572 29.7065 74.62 30.7091 74.5474C30.0404 72.3567 29.4355 69.9161 28.9152 67.255C32.2156 66.0062 35.7529 64.4505 39.5 62.5655C43.2471 64.4505 46.7842 66.0062 50.0846 67.255C47.671 79.5962 43.4369 87.1875 39.5 87.1875C38.0251 87.1875 36.5086 86.1212 35.0614 84.1402C34.4132 84.7904 33.6067 85.2803 32.7058 85.549C34.8502 88.4923 37.1973 90 39.5 90C44.6406 90 50.003 82.4941 52.8352 68.2439C66.5143 72.9005 75.6549 71.9801 78.2252 67.5C80.7957 63.0197 77.0175 54.5934 66.1705 45ZM61.707 45C59.6041 46.7323 57.2923 48.4873 54.783 50.2369C54.841 48.5422 54.8712 46.7968 54.8712 45C54.8712 43.2032 54.841 41.4578 54.783 39.7631C57.2923 41.5127 59.6041 43.2677 61.707 45ZM26.9236 45C26.9236 42.5227 26.9903 40.1219 27.1147 37.804C29.0471 36.5367 31.0799 35.2781 33.2118 34.0393C35.3435 32.8008 37.4431 31.6586 39.5 30.6079C41.5568 31.6586 43.6563 32.8008 45.7882 34.0393C47.9199 35.2779 49.9527 36.5367 51.8851 37.804C52.0095 40.1219 52.0764 42.5227 52.0764 45C52.0764 47.4773 52.0095 49.8781 51.8853 52.196C49.9529 53.4633 47.9201 54.7219 45.7884 55.9607C43.6565 57.1992 41.5569 58.3414 39.5002 59.3921C37.4432 58.3416 35.3437 57.1994 33.212 55.9607C31.0801 54.7221 29.0474 53.4633 27.1149 52.196C26.9903 49.8781 26.9236 47.4771 26.9236 45ZM51.6481 34.299C50.2188 33.4012 48.7318 32.5021 47.1856 31.6037C45.6392 30.7053 44.122 29.8589 42.6348 29.0621C45.395 27.7501 48.0614 26.6126 50.6036 25.6461C51.0429 28.3449 51.3971 31.2372 51.6481 34.299ZM39.5 2.8125C43.4369 2.8125 47.671 10.4038 50.0846 22.7447C46.7842 23.9934 43.2469 25.5491 39.5 27.4342C35.7529 25.5491 32.2158 23.9934 28.9152 22.7447C31.329 10.4038 35.5629 2.8125 39.5 2.8125ZM28.3964 25.6461C30.9384 26.6126 33.6048 27.7501 36.3652 29.0621C34.8778 29.8589 33.3608 30.7053 31.8144 31.6037C30.268 32.5021 28.7812 33.4012 27.3519 34.299C27.6027 31.2372 27.9571 28.3449 28.3964 25.6461ZM24.217 39.7631C24.159 41.4577 24.1288 43.2032 24.1288 45C24.1288 46.7968 24.159 48.5422 24.217 50.2369C21.7079 48.4873 19.3959 46.7323 17.293 45C19.3957 43.2677 21.7077 41.5127 24.217 39.7631ZM3.19504 66.0938C1.22648 62.6625 5.64237 55.1769 15.0556 46.9028C17.7805 49.1549 20.888 51.4598 24.3837 53.7829C24.635 57.9909 25.0647 61.8516 25.6404 65.3525C13.8134 69.4192 5.1636 69.5248 3.19504 66.0938ZM28.3964 64.3539C27.9571 61.6551 27.6027 58.7626 27.3517 55.701C28.7811 56.5988 30.268 57.4979 31.8142 58.3963C33.3606 59.2947 34.8776 60.1411 36.365 60.9379C33.605 62.2499 30.9386 63.3874 28.3964 64.3539ZM42.6348 60.9379C44.1222 60.1411 45.6392 59.2947 47.1856 58.3963C48.732 57.4979 50.2188 56.5988 51.6481 55.701C51.3971 58.7626 51.0427 61.6551 50.6034 64.3539C48.0614 63.3874 45.395 62.2499 42.6348 60.9379ZM75.805 66.0938C73.8364 69.525 65.1866 69.4193 53.3597 65.3525C53.9354 61.8516 54.3651 57.9911 54.6165 53.7829C58.1122 51.4598 61.2196 49.1549 63.9445 46.9028C73.3576 55.1769 77.7735 62.6625 75.805 66.0938Z" fill="url(#paint0_linear)"/>
<path d="M8.38428 16.875C13.0148 16.875 16.7686 13.0974 16.7686 8.4375C16.7686 3.7776 13.0148 0 8.38428 0C3.75377 0 0 3.7776 0 8.4375C0 13.0974 3.75377 16.875 8.38428 16.875Z" transform="translate(31.1152 36.5625)" fill="url(#paint1_linear)"/>
<path d="M0.130652 0.0161737C0.0869844 0.0107245 0.0438428 0.00439453 0 0C0.0436681 0.00439453 0.0869844 0.0107245 0.130652 0.0161737Z" transform="translate(31.6758 74.5596)" fill="#FFEDB9"/>
<path d="M0.10393 0.00773549C0.0691705 0.00527455 0.0347598 0.00175781 0 0C0.0347598 0.00193359 0.0691705 0.00545033 0.10393 0.00773549Z" transform="translate(31.3965 74.5381)" fill="#FFEDB9"/>
<path d="M8.41729 4.25619C8.41729 2.55498 7.66585 1.03148 6.47999 0C6.5448 0.0564258 6.60838 0.114258 6.67056 0.173496C6.44908 0.146601 6.22393 0.131133 5.99528 0.131133C2.90829 0.131133 0.405764 2.64955 0.405764 5.75613C0.405764 7.36436 1.07738 8.81367 2.15249 9.83883C1.37467 9.74444 0.645938 9.48938 0 9.10758C0.829694 9.59836 1.79581 9.88102 2.82777 9.88102C3.38043 9.88102 3.91371 9.7991 4.41781 9.64864C5.31877 9.38004 6.12524 8.88996 6.77345 8.23975C7.78882 7.22162 8.41729 5.81274 8.41729 4.25619Z" transform="translate(28.2891 75.8999)" fill="url(#paint2_linear)"/>
<path d="M0.192314 0.0952721C0.128908 0.062401 0.0649781 0.0304102 0 0C0.0648035 0.0304102 0.128908 0.062401 0.192314 0.0952721Z" transform="translate(33.4766 75.0571)" fill="#FFEDB9"/>
<path d="M0.198252 0.123226C0.131178 0.0834995 0.0653275 0.0423633 0 0C0.0653275 0.0421875 0.131353 0.0834995 0.198252 0.123226Z" transform="translate(28.0879 84.8833)" fill="#FFEDB9"/>
<path d="M0.198601 0.135875C0.133449 0.0891175 0.0672489 0.0437695 0 0C0.0672489 0.0437695 0.133449 0.0891175 0.198601 0.135875Z" transform="translate(34.1523 75.4355)" fill="#FFEDB9"/>
<path d="M0.198252 0.122518C0.133099 0.0803304 0.0670742 0.039375 0 0C0.0668995 0.039375 0.133099 0.0803304 0.198252 0.122518Z" transform="translate(33.9336 75.2998)" fill="#FFEDB9"/>
<path d="M0.14585 0.0253147C0.097291 0.0167014 0.0490829 0.00738281 0 0C0.0489083 0.00738281 0.097291 0.0167014 0.14585 0.0253147Z" transform="translate(31.9512 74.5938)" fill="#FFEDB9"/>
<path d="M0.156682 0.0351584C0.104629 0.0230295 0.0525764 0.0105469 0 0C0.0525764 0.0107227 0.104455 0.0232053 0.156682 0.0351584Z" transform="translate(32.2188 74.6411)" fill="#FFEDB9"/>
<path d="M0.194934 0.161716C0.131179 0.106345 0.0662008 0.0523828 0 0C0.0662008 0.0523828 0.131179 0.106345 0.194934 0.161716Z" transform="translate(34.5703 75.7358)" fill="#FFEDB9"/>
<path d="M0.166637 0.0458765C0.111265 0.0300562 0.0560698 0.0140625 0 0C0.0560698 0.0140625 0.111265 0.0298804 0.166637 0.0458765Z" transform="translate(32.4824 74.7012)" fill="#FFEDB9"/>
<path d="M0.181834 0.069437C0.121747 0.045355 0.06131 0.0217969 0 0C0.06131 0.0217969 0.121747 0.045355 0.181834 0.069437Z" transform="translate(32.9902 74.8569)" fill="#FFEDB9"/>
<path d="M0.174499 0.0573027C0.116683 0.0374394 0.0586899 0.0179297 0 0C0.0586899 0.0179297 0.116683 0.0376152 0.174499 0.0573027Z" transform="translate(32.7383 74.7729)" fill="#FFEDB9"/>
<path d="M0.187599 0.0820863C0.12559 0.0537855 0.0632314 0.0260156 0 0C0.0632314 0.0261914 0.12559 0.0537855 0.187599 0.0820863Z" transform="translate(33.2363 74.9517)" fill="#FFEDB9"/>
<path d="M0.195984 0.108806C0.131355 0.0713651 0.0662008 0.0349805 0 0C0.0662008 0.0349805 0.13153 0.0711893 0.195984 0.108806Z" transform="translate(33.707 75.1733)" fill="#FFEDB9"/>
<path d="M0.043844 0.121461C0.0286475 0.0812072 0.0143231 0.0406055 0 0C0.0141485 0.0406055 0.0286475 0.0812072 0.043844 0.121461Z" transform="translate(25.8418 82.0225)" fill="#FFEDB9"/>
<path d="M0.0375566 0.121112C0.0246308 0.0808586 0.0120524 0.0406055 0 0C0.0120524 0.0406055 0.0246308 0.0810343 0.0375566 0.121112Z" transform="translate(25.7617 81.7705)" fill="#FFEDB9"/>
<path d="M0.0787753 0.135527C0.0515264 0.0908782 0.0260262 0.0453516 0 0C0.0260262 0.0453516 0.0517011 0.0908782 0.0787753 0.135527Z" transform="translate(26.2695 82.958)" fill="#FFEDB9"/>
<path d="M0.0665496 0.127442C0.0434928 0.0854308 0.021834 0.0427148 0 0C0.021834 0.0425391 0.0434928 0.0854308 0.0665496 0.127442Z" transform="translate(26.1504 82.7383)" fill="#FFEDB9"/>
<path d="M0.0314424 0.120415C0.0206127 0.080337 0.00995633 0.0404297 0 0C0.00995633 0.0402539 0.0206127 0.080337 0.0314424 0.120415Z" transform="translate(25.6914 81.5132)" fill="#FFEDB9"/>
<path d="M0.0578155 0.123923C0.0379028 0.0829664 0.0190393 0.0414844 0 0C0.0190393 0.0414844 0.0379028 0.0829664 0.0578155 0.123923Z" transform="translate(26.0371 82.5078)" fill="#FFEDB9"/>
<path d="M0.0504806 0.121992C0.0330133 0.0815625 0.0165939 0.0407812 0 0C0.0165939 0.0407812 0.033188 0.0815625 0.0504806 0.121992Z" transform="translate(25.9355 82.2686)" fill="#FFEDB9"/>
<path d="M0.197381 0.149066C0.132752 0.0979141 0.0668995 0.0483398 0 0C0.0668995 0.0483398 0.132752 0.0979141 0.197381 0.149066Z" transform="translate(34.3652 75.5811)" fill="#FFEDB9"/>
<path d="M0.00646333 0.0922894C0.00454193 0.0615277 0.00157205 0.0309375 0 0C0.00157205 0.0309375 0.00454193 0.0613519 0.00646333 0.0922894Z" transform="translate(25.5332 80.4355)" fill="#FFEDB9"/>
<path d="M0.0127507 0.109338C0.00855861 0.0729508 0.00349345 0.0367383 0 0C0.00349345 0.0367383 0.00838393 0.0729508 0.0127507 0.109338Z" transform="translate(25.5527 80.7109)" fill="#FFEDB9"/>
<path d="M0.180611 0.123923C0.119475 0.0838453 0.0593886 0.0423633 0 0C0.0593886 0.0423633 0.119475 0.0838453 0.180611 0.123923Z" transform="translate(27.8848 84.7456)" fill="#FFEDB9"/>
<path d="M0.0251523 0.11865C0.0165934 0.0792752 0.00786026 0.0397266 0 0C0.00786026 0.0397266 0.0165934 0.0790994 0.0251523 0.11865Z" transform="translate(25.6328 81.2505)" fill="#FFEDB9"/>
<path d="M0.0190382 0.115839C0.0125753 0.0773432 0.00576419 0.0388477 0 0C0.00558952 0.0388477 0.0125753 0.0773432 0.0190382 0.115839Z" transform="translate(25.5879 80.9829)" fill="#FFEDB9"/>
<path d="M0.39808 0.558457C0.254324 0.381094 0.121747 0.194238 0 0C0.121747 0.194238 0.254324 0.381094 0.39808 0.558457Z" transform="translate(26.3848 83.1509)" fill="#FFEDB9"/>
<path d="M0.156333 0.12902C0.103581 0.0870079 0.0513537 0.0439453 0 0C0.0513537 0.0439453 0.103581 0.0870079 0.156333 0.12902Z" transform="translate(27.4941 84.438)" fill="#FFEDB9"/>
<path d="M0.166988 0.12586C0.110569 0.0849029 0.0548471 0.0428906 0 0C0.0548471 0.0428906 0.110569 0.0849029 0.166988 0.12586Z" transform="translate(27.6875 84.5972)" fill="#FFEDB9"/>
<path d="M0.137292 0.161721C0.0906542 0.108635 0.0445415 0.0550195 0 0C0.0445415 0.0550195 0.0906542 0.108635 0.137292 0.161721Z" transform="translate(26.7832 83.7104)" fill="#FFEDB9"/>
<path d="M0.147774 0.133418C0.097818 0.0898247 0.0483843 0.0455273 0 0C0.0485589 0.0455273 0.097818 0.0898247 0.147774 0.133418Z" transform="translate(27.3047 84.2695)" fill="#FFEDB9"/>
<path d="M0.136769 0.147302C0.0904811 0.0989617 0.0445415 0.0500977 0 0C0.0445415 0.0500977 0.0904811 0.0987859 0.136769 0.147302Z" transform="translate(26.9492 83.9053)" fill="#FFEDB9"/>
<path d="M0.140959 0.13904C0.0932736 0.0933372 0.0461135 0.0472852 0 0C0.0461135 0.0472852 0.0932736 0.0933372 0.140959 0.13904Z" transform="translate(27.123 84.0918)" fill="#FFEDB9"/>
<path d="M3.16733 7.12494C3.16733 4.01836 5.66987 1.49994 8.75685 1.49994C8.98567 1.49994 9.21065 1.51541 9.43213 1.5423C9.36995 1.48306 9.30637 1.42523 9.24157 1.36881C9.24069 1.3681 9.23982 1.36722 9.23895 1.36652C9.17519 1.31115 9.11021 1.25719 9.04401 1.20481C9.04157 1.20287 9.03895 1.20094 9.0365 1.19883C8.97187 1.14768 8.90602 1.0981 8.83912 1.04976C8.83458 1.04642 8.83004 1.04326 8.82532 1.03992C8.76017 0.993161 8.69397 0.947813 8.62672 0.904044C8.61973 0.899474 8.61275 0.895076 8.60593 0.890681C8.54078 0.848494 8.47476 0.807714 8.40768 0.768163C8.39773 0.762362 8.38777 0.756562 8.37781 0.750761C8.31318 0.713144 8.24803 0.676935 8.18183 0.641955C8.16856 0.634923 8.15493 0.628066 8.14148 0.62121C8.07807 0.588339 8.01397 0.556348 7.94917 0.525938C7.93205 0.517852 7.91458 0.510293 7.89729 0.502383C7.83528 0.474082 7.77292 0.446307 7.70969 0.420291C7.68855 0.411502 7.66724 0.403595 7.64611 0.394982C7.58602 0.3709 7.52559 0.347342 7.46428 0.325545C7.4386 0.316404 7.41257 0.307968 7.38689 0.299179C7.32908 0.279316 7.27109 0.259806 7.2124 0.241876C7.18235 0.232736 7.15179 0.224648 7.12139 0.215859C7.06602 0.200039 7.01082 0.184045 6.95476 0.169982C6.91947 0.161017 6.88384 0.153455 6.8482 0.145193C6.79615 0.133064 6.7441 0.120587 6.69153 0.11004C6.65083 0.101779 6.6096 0.0952734 6.56873 0.0878906C6.52017 0.0792773 6.47179 0.0699587 6.42288 0.0625759C6.37572 0.0553689 6.32786 0.0502759 6.28017 0.0442994C6.2365 0.0388501 6.19336 0.0325202 6.14952 0.0281256C6.09187 0.0223249 6.03353 0.0188112 5.97519 0.0147682C5.94061 0.0123073 5.9062 0.00879056 5.87126 0.00703275C5.77834 0.00246244 5.68419 0 5.58952 0C5.45257 0 5.31738 0.00667741 5.18305 0.0163454C4.18044 0.088943 3.25065 0.42592 2.46393 0.960998C0.977293 1.97192 0 3.6835 0 5.625C0 5.71869 0.00244424 5.81168 0.00698572 5.90431C0.00855777 5.93525 0.0115277 5.96584 0.013449 5.9966C0.0174665 6.05795 0.0213111 6.11912 0.0272499 6.17977C0.030918 6.21633 0.0358085 6.25272 0.0400007 6.2891C0.0462889 6.34342 0.0525752 6.39773 0.0604354 6.45152C0.066025 6.49037 0.0730134 6.52869 0.0794763 6.56736C0.0880352 6.61799 0.0965927 6.66879 0.106374 6.71906C0.114235 6.75879 0.12297 6.79834 0.131529 6.83771C0.14201 6.88588 0.152839 6.93404 0.164542 6.98168C0.174498 7.02193 0.185152 7.06201 0.195981 7.10209C0.208383 7.14797 0.221134 7.19385 0.234759 7.2392C0.246811 7.27981 0.25939 7.32024 0.272315 7.36031C0.286464 7.40426 0.301136 7.44785 0.316333 7.49127C0.330656 7.53205 0.344977 7.57248 0.360174 7.61274C0.375894 7.65457 0.392315 7.69588 0.408909 7.73719C0.425328 7.77797 0.441922 7.81892 0.459389 7.85918C0.476332 7.89855 0.494148 7.93723 0.511965 7.97607C0.531004 8.01756 0.549868 8.05904 0.56978 8.1C0.587422 8.13586 0.605764 8.17119 0.624104 8.2067C0.645938 8.24942 0.667772 8.29213 0.690654 8.33414C0.707597 8.36508 0.72559 8.39549 0.743232 8.42607C0.769258 8.47143 0.794758 8.51713 0.822007 8.5616C0.83371 8.58094 0.846461 8.59975 0.858514 8.61891C0.98026 8.81315 1.11284 9.00018 1.25659 9.17737C1.25694 9.17789 1.25729 9.17824 1.25764 9.17877C1.30218 9.23379 1.34829 9.28723 1.39493 9.34049C1.40454 9.35156 1.4138 9.36281 1.42358 9.37371C1.46812 9.42381 1.51406 9.47268 1.56035 9.52102C1.57275 9.53402 1.58498 9.54738 1.59755 9.56021C1.64367 9.6075 1.69083 9.65356 1.73851 9.69926C1.75196 9.71209 1.76541 9.72527 1.77886 9.7381C1.82725 9.78345 1.87668 9.82775 1.92664 9.87152C1.94009 9.8833 1.95336 9.89508 1.96699 9.90668C2.01834 9.95063 2.07039 9.99369 2.12332 10.0357C2.1359 10.0457 2.14847 10.0557 2.16122 10.0658C2.21607 10.1087 2.27179 10.1507 2.32821 10.1916C2.33869 10.1992 2.34917 10.2067 2.35982 10.2141C2.41921 10.2565 2.4793 10.298 2.54044 10.338C2.54742 10.3426 2.55441 10.347 2.5614 10.3516C2.62655 10.3939 2.69257 10.4353 2.75965 10.4748C2.76035 10.4753 2.76122 10.4757 2.76192 10.4762C3.40768 10.858 4.13642 11.1131 4.91441 11.2075C3.83912 10.1825 3.16733 8.73316 3.16733 7.12494Z" transform="translate(25.5254 74.5312)" fill="url(#paint3_linear)"/>
<path d="M0 0C0.0648035 0.0304102 0.128912 0.0624023 0.192493 0.0952734C0.128912 0.0624023 0.0649781 0.0304102 0 0Z" transform="translate(65.6152 15.9946)" fill="#708AFF"/>
<path d="M0 0C0.0438428 0.00439453 0.087159 0.0107218 0.130652 0.016171C0.087159 0.0107218 0.0438428 0.00439453 0 0Z" transform="translate(63.8164 15.4971)" fill="#708AFF"/>
<path d="M0 0C0.0632314 0.0261914 0.125589 0.0537896 0.187423 0.0820903C0.125414 0.0537896 0.0632314 0.0261914 0 0Z" transform="translate(65.377 15.8892)" fill="#708AFF"/>
<path d="M0 0C0.0662008 0.0349805 0.131526 0.0713677 0.196155 0.108985C0.131526 0.0713677 0.0662008 0.0349805 0 0Z" transform="translate(65.8477 16.1108)" fill="#708AFF"/>
<path d="M0 0C0.0560698 0.0142383 0.111439 0.0300574 0.16681 0.0460535C0.111439 0.0302332 0.0560698 0.0142383 0 0Z" transform="translate(64.6211 15.6382)" fill="#708AFF"/>
<path d="M0 0C0.0525764 0.0105469 0.104629 0.0230268 0.156682 0.0351557C0.104629 0.0230268 0.0527511 0.0105469 0 0Z" transform="translate(64.3574 15.5786)" fill="#708AFF"/>
<path d="M0 0C0.0611353 0.0219727 0.121573 0.0455281 0.181661 0.0694343C0.121573 0.0455281 0.06131 0.0219727 0 0Z" transform="translate(65.1309 15.7944)" fill="#708AFF"/>
<path d="M0 0C0.0586899 0.0179297 0.116856 0.0376166 0.174672 0.0573041C0.116856 0.0376166 0.0588646 0.0181055 0 0Z" transform="translate(64.8789 15.7104)" fill="#708AFF"/>
<path d="M0 0C0.0490829 0.00738281 0.0972964 0.0166987 0.145855 0.025312C0.0972964 0.0166987 0.0490829 0.00738281 0 0Z" transform="translate(64.0898 15.5312)" fill="#708AFF"/>
<path d="M0.140786 0.138866C0.0931004 0.0933387 0.0461135 0.0472852 0 0C0.0459388 0.0472852 0.0931004 0.0931629 0.140786 0.138866Z" transform="translate(59.2637 25.0298)" fill="#708AFF"/>
<path d="M0 0C0.0592139 0.0423633 0.119298 0.0836736 0.180259 0.123752C0.119298 0.0836736 0.0593886 0.0423633 0 0Z" transform="translate(60.0254 25.6831)" fill="#708AFF"/>
<path d="M0 0C0.0548471 0.0428906 0.110392 0.0849003 0.166986 0.125857C0.110392 0.0849003 0.0548471 0.0428906 0 0Z" transform="translate(59.8281 25.5347)" fill="#708AFF"/>
<path d="M0 0C0.051179 0.0439453 0.103408 0.0868348 0.156159 0.129022C0.103408 0.0868348 0.051179 0.0439453 0 0Z" transform="translate(59.6328 25.3755)" fill="#708AFF"/>
<path d="M0 0C0.0483843 0.0453516 0.0976421 0.0896477 0.147598 0.133241C0.0976421 0.0896477 0.0483843 0.0453516 0 0Z" transform="translate(59.4453 25.207)" fill="#708AFF"/>
<path d="M0 0C0.0443668 0.0499219 0.0899548 0.0984374 0.136068 0.146601C0.0899548 0.0984374 0.0441921 0.0497461 0 0Z" transform="translate(59.0898 24.8428)" fill="#708AFF"/>
<path d="M0 0C0.0663755 0.0525586 0.131356 0.106524 0.195286 0.162071C0.13153 0.106524 0.0663755 0.0525586 0 0Z" transform="translate(66.709 16.6733)" fill="#708AFF"/>
<path d="M5.99493 0.131132C2.90794 0.131132 0.405412 2.64955 0.405412 5.75613C0.405412 7.36436 1.07703 8.81367 2.15214 9.83883C1.37432 9.74443 0.645589 9.48955 0 9.10775C0.829694 9.59854 1.79563 9.88119 2.82759 9.88119C5.79336 9.88119 8.21833 7.55631 8.40436 4.61883C8.41187 4.49877 8.41711 4.37818 8.41711 4.25619C8.41711 3.39029 8.22235 2.57027 7.87493 1.83762C7.53991 1.1308 7.062 0.506426 6.47964 0C6.54445 0.0564258 6.60803 0.114258 6.67039 0.173672C6.44873 0.146601 6.22375 0.131132 5.99493 0.131132Z" transform="translate(60.4277 16.8374)" fill="url(#paint4_linear)"/>
<path d="M0 0C0.0649781 0.0423633 0.130828 0.0834956 0.197727 0.123046C0.130828 0.0834956 0.0649781 0.0423633 0 0Z" transform="translate(60.2285 25.8208)" fill="#708AFF"/>
<path d="M0 0C0.0670742 0.0395508 0.133097 0.0803318 0.19825 0.122519C0.133097 0.0803318 0.0670742 0.039375 0 0Z" transform="translate(66.0742 16.2373)" fill="#708AFF"/>
<path d="M0 0C0.021834 0.0425391 0.0434902 0.0852525 0.0665469 0.127088C0.0434902 0.0852525 0.0220087 0.0425391 0 0Z" transform="translate(58.291 23.6758)" fill="#708AFF"/>
<path d="M0 0C0.0164192 0.0407812 0.0330133 0.0815625 0.0504806 0.121992C0.0330133 0.0815625 0.0164192 0.0407812 0 0Z" transform="translate(58.0762 23.2061)" fill="#708AFF"/>
<path d="M0 0C0.0670742 0.0483398 0.132924 0.0980858 0.197727 0.149238C0.132924 0.0980858 0.0670742 0.0483398 0 0Z" transform="translate(66.5039 16.5186)" fill="#708AFF"/>
<path d="M0 0C0.0188646 0.0413086 0.0377269 0.0824394 0.0576395 0.123221C0.0377269 0.0824394 0.0190393 0.0411328 0 0Z" transform="translate(58.1777 23.4453)" fill="#708AFF"/>
<path d="M0 0C0.0672489 0.0439453 0.133449 0.0892972 0.198601 0.136055C0.133623 0.0892972 0.0674235 0.0439453 0 0Z" transform="translate(66.293 16.3726)" fill="#708AFF"/>
<path d="M0 0C0.0443668 0.054668 0.0903038 0.108106 0.136767 0.161016C0.0903038 0.108106 0.0443668 0.054668 0 0Z" transform="translate(58.9238 24.6479)" fill="#708AFF"/>
<path d="M0 0C0.121747 0.194238 0.254146 0.38092 0.397901 0.558283C0.254146 0.38092 0.121747 0.194238 0 0Z" transform="translate(58.5254 24.0884)" fill="#708AFF"/>
<path d="M0 0C0.0260262 0.0453516 0.0517011 0.091054 0.0787753 0.135527C0.0515264 0.0908782 0.0260262 0.0453516 0 0Z" transform="translate(58.4082 23.8955)" fill="#708AFF"/>
<path d="M0 0C0.0347598 0.00175781 0.0691705 0.00527321 0.10393 0.00773415C0.0691705 0.00527321 0.0347598 0.00175781 0 0Z" transform="translate(63.5371 15.4761)" fill="#708AFF"/>
<path d="M0.00646066 0.0924611C0.00453927 0.0615236 0.00157205 0.0311133 0 0C0.00157205 0.0311133 0.00436459 0.0615236 0.00646066 0.0924611Z" transform="translate(57.6738 21.373)" fill="#708AFF"/>
<path d="M0.0375539 0.121112C0.0246282 0.0808586 0.0120524 0.0406055 0 0C0.0120524 0.0406055 0.0246282 0.0810343 0.0375539 0.121112Z" transform="translate(57.9004 22.708)" fill="#708AFF"/>
<path d="M0.0190408 0.115664C0.0125779 0.0771675 0.00576419 0.0386719 0 0C0.00558952 0.0386719 0.0125779 0.0771675 0.0190408 0.115664Z" transform="translate(57.7266 21.9204)" fill="#708AFF"/>
<path d="M0.0438387 0.121467C0.0286422 0.0812126 0.0141485 0.0406055 0 0C0.0141485 0.0406055 0.0286422 0.0812126 0.0438387 0.121467Z" transform="translate(57.9824 22.96)" fill="#708AFF"/>
<path d="M0.0127507 0.109336C0.00855861 0.0729495 0.00349345 0.0367383 0 0C0.00349345 0.0367383 0.00838393 0.0729495 0.0127507 0.109336Z" transform="translate(57.6934 21.6484)" fill="#708AFF"/>
<path d="M0.0314398 0.12041C0.0206101 0.0803316 0.00995633 0.0404297 0 0C0.00995633 0.0404297 0.0206101 0.0803316 0.0314398 0.12041Z" transform="translate(57.8301 22.4507)" fill="#708AFF"/>
<path d="M0.025155 0.118653C0.0164214 0.0791021 0.00768559 0.0397266 0 0C0.00768559 0.0397266 0.0164214 0.0791021 0.025155 0.118653Z" transform="translate(57.7734 22.188)" fill="#708AFF"/>
<path d="M0.00698839 5.90432C0.00856044 5.93525 0.011353 5.96584 0.013449 5.99678C0.0174665 6.05812 0.0214857 6.1193 0.0272499 6.17994C0.030918 6.2165 0.0358085 6.25271 0.0400007 6.28928C0.0462889 6.34359 0.0525778 6.39791 0.0604381 6.4517C0.0660276 6.49055 0.0730107 6.52887 0.0794736 6.56736C0.0880325 6.61816 0.0965954 6.66879 0.106377 6.71906C0.114063 6.75879 0.122793 6.79834 0.131527 6.83772C0.142007 6.88588 0.152836 6.93404 0.164539 6.98168C0.174495 7.02193 0.185154 7.06201 0.195984 7.10209C0.208386 7.14797 0.221133 7.19385 0.234583 7.2392C0.246635 7.2798 0.259216 7.32023 0.272142 7.36031C0.28629 7.40426 0.30096 7.44785 0.316157 7.49127C0.33048 7.53188 0.344979 7.57248 0.360001 7.61273C0.37345 7.64859 0.387249 7.6841 0.401398 7.71961C0.403843 7.72559 0.406287 7.73139 0.408733 7.73736C0.425152 7.77814 0.441746 7.81893 0.459213 7.85935C0.476157 7.89873 0.494148 7.93775 0.511965 7.97678C0.530829 8.01809 0.549692 8.05939 0.569604 8.1C0.587246 8.13604 0.605764 8.17154 0.624104 8.20723C0.645938 8.24977 0.6676 8.29248 0.690656 8.33432C0.7076 8.36525 0.725589 8.39567 0.743056 8.42625C0.769082 8.4716 0.794582 8.5173 0.821831 8.56178C0.833709 8.58111 0.846288 8.59992 0.85834 8.61908C0.980087 8.81332 1.11249 9.00018 1.25624 9.17736C1.25659 9.17789 1.25712 9.17842 1.25747 9.17895C1.30183 9.23361 1.34777 9.28705 1.39423 9.33996C1.40402 9.35121 1.41362 9.36281 1.42358 9.37406C1.46795 9.42398 1.51353 9.4725 1.55965 9.52066C1.5724 9.53385 1.58463 9.54756 1.59755 9.56057C1.64349 9.60768 1.69065 9.65391 1.73834 9.69943C1.75179 9.71244 1.76524 9.72545 1.77886 9.73828C1.82725 9.78363 1.8765 9.82793 1.92646 9.87152C1.93991 9.8833 1.95336 9.89525 1.96698 9.90685C2.01816 9.9508 2.07039 9.99369 2.12314 10.0359C2.13572 10.0459 2.14847 10.0559 2.16105 10.0658C2.2159 10.1087 2.27144 10.1507 2.32803 10.1916C2.33851 10.1992 2.34917 10.2067 2.35983 10.2143C2.41904 10.2567 2.47912 10.298 2.54008 10.338C2.54725 10.3428 2.55441 10.3472 2.56157 10.3519C2.62655 10.3941 2.6924 10.4354 2.7593 10.475C2.76017 10.4755 2.76122 10.476 2.76209 10.4766C3.40786 10.8582 4.13642 11.1132 4.91423 11.2076C3.83912 10.1825 3.16751 8.73316 3.16751 7.12494C3.16751 4.01836 5.67004 1.49994 8.75703 1.49994C8.98585 1.49994 9.21082 1.51541 9.43231 1.5423C9.37013 1.48289 9.30654 1.42506 9.24157 1.36863C9.24069 1.36793 9.24 1.36723 9.23912 1.36652C9.17537 1.31098 9.11021 1.25701 9.04384 1.20445C9.04157 1.20269 9.03912 1.20076 9.03685 1.19883C8.97205 1.14768 8.90602 1.09793 8.83912 1.04959C8.83476 1.04643 8.83022 1.04326 8.82567 1.03992C8.76052 0.993164 8.69432 0.947812 8.62707 0.903867C8.62009 0.899297 8.61327 0.894903 8.60628 0.890508C8.54113 0.848321 8.4751 0.807364 8.40803 0.767989C8.39825 0.762188 8.38812 0.756563 8.37834 0.750762C8.31371 0.713145 8.24838 0.676758 8.18218 0.641778C8.1689 0.634746 8.15546 0.628066 8.14218 0.62121C8.0786 0.588339 8.01467 0.556347 7.94969 0.525937C7.93257 0.517851 7.9151 0.510293 7.89781 0.502383C7.8358 0.474082 7.77345 0.446308 7.71039 0.420293C7.68925 0.411504 7.66777 0.403418 7.64664 0.394981C7.58655 0.370899 7.52611 0.347519 7.46497 0.325546C7.43947 0.316406 7.41362 0.308145 7.38794 0.299356C7.32995 0.279493 7.27196 0.25998 7.21327 0.242051C7.18323 0.23291 7.15284 0.224825 7.12262 0.216212C7.06725 0.200391 7.01187 0.184395 6.9558 0.170157C6.92052 0.161192 6.88489 0.153633 6.84926 0.145372C6.7972 0.133243 6.74515 0.120762 6.69257 0.110215C6.65187 0.101953 6.61065 0.0954491 6.56978 0.0880663C6.52122 0.079453 6.47301 0.0701371 6.42393 0.0627543C6.37659 0.0555473 6.3289 0.0504489 6.28122 0.0444724C6.23772 0.0390231 6.19441 0.0326959 6.15057 0.0283013C6.09292 0.0225005 6.03458 0.0189842 5.97642 0.0149412C5.94183 0.0124803 5.90724 0.00896491 5.87249 0.0072071C5.77834 0.002461 5.68419 0 5.58952 0C2.77939 0 0.454325 2.08723 0.0597398 4.80498C0.0209625 5.0727 0 5.34639 0 5.625C0 5.71869 0.00244691 5.81168 0.00698839 5.90432Z" transform="translate(57.666 15.4688)" fill="url(#paint5_linear)"/>
<path d="M0.197554 0.122869C0.130829 0.0833185 0.0649781 0.0421875 0 0C0.0651528 0.0423633 0.130829 0.0833185 0.197554 0.122869Z" transform="translate(2.93359 39.8833)" fill="#FF7400"/>
<path d="M0.179912 0.123398C0.119126 0.0834954 0.0592139 0.0421875 0 0C0.0590393 0.0421875 0.118952 0.0834954 0.179912 0.123398Z" transform="translate(2.73438 39.7456)" fill="#FF7400"/>
<path d="M0.025153 0.118653C0.0165941 0.0791021 0.00786026 0.0397266 0 0C0.00786026 0.0397266 0.0165941 0.0791021 0.025153 0.118653Z" transform="translate(0.480469 36.2505)" fill="#FF7400"/>
<path d="M0.00646266 0.0924611C0.00454126 0.0616994 0.00157205 0.0311133 0 0C0.00157205 0.0311133 0.00454126 0.0615236 0.00646266 0.0924611Z" transform="translate(0.380859 35.4355)" fill="#FF7400"/>
<path d="M0.0127507 0.109335C0.00855861 0.0729482 0.00349345 0.0367383 0 0C0.00349345 0.0367383 0.00838393 0.0729482 0.0127507 0.109335Z" transform="translate(0.402344 35.7109)" fill="#FF7400"/>
<path d="M0.0314411 0.12041C0.0206114 0.0803316 0.00995633 0.0404297 0 0C0.00995633 0.0404297 0.0206114 0.0803316 0.0314411 0.12041Z" transform="translate(0.537109 36.5132)" fill="#FF7400"/>
<path d="M0.0190395 0.115839C0.0125766 0.0773432 0.00576419 0.0388477 0 0C0.00576419 0.0388477 0.0125766 0.0773432 0.0190395 0.115839Z" transform="translate(0.433594 35.9829)" fill="#FF7400"/>
<path d="M0.166637 0.125506C0.110218 0.0847247 0.0546725 0.0427148 0 0C0.0548471 0.0428906 0.110218 0.0847247 0.166637 0.125506Z" transform="translate(2.53516 39.5972)" fill="#FF7400"/>
<path d="M0.147598 0.133241C0.0976421 0.0896477 0.0483843 0.0453516 0 0C0.0482096 0.0453516 0.0976421 0.0894719 0.147598 0.133241Z" transform="translate(2.15234 39.2695)" fill="#FF7400"/>
<path d="M0.156157 0.129022C0.103406 0.0868348 0.051179 0.0439453 0 0C0.051179 0.0439453 0.103406 0.0868348 0.156157 0.129022Z" transform="translate(2.33984 39.438)" fill="#FF7400"/>
<path d="M0.0786027 0.135175C0.0515285 0.0907026 0.0258515 0.0451758 0 0C0.0258515 0.0451758 0.0515285 0.0907026 0.0786027 0.135175Z" transform="translate(1.11719 37.958)" fill="#FF7400"/>
<path d="M0.0574676 0.123221C0.037555 0.0826152 0.0188646 0.0413086 0 0C0.0188646 0.0411328 0.037555 0.0824394 0.0574676 0.123221Z" transform="translate(0.886719 37.5078)" fill="#FF7400"/>
<path d="M0.0504806 0.121992C0.0330133 0.0815625 0.0165939 0.0407812 0 0C0.0165939 0.0407812 0.033188 0.0815625 0.0504806 0.121992Z" transform="translate(0.783203 37.2686)" fill="#FF7400"/>
<path d="M0.395983 0.555644C0.252926 0.379159 0.121223 0.193184 0 0C0.121048 0.193359 0.252926 0.379159 0.395983 0.555644Z" transform="translate(1.23242 38.1514)" fill="#FF7400"/>
<path d="M0.0663757 0.127091C0.0434936 0.0850794 0.021834 0.0425391 0 0C0.021834 0.0423633 0.0433189 0.0850794 0.0663757 0.127091Z" transform="translate(0.998047 37.7388)" fill="#FF7400"/>
<path d="M0.0375539 0.121112C0.0246282 0.0808586 0.0120524 0.0406055 0 0C0.0120524 0.0406055 0.0246282 0.0810343 0.0375539 0.121112Z" transform="translate(0.607422 36.7705)" fill="#FF7400"/>
<path d="M0.0438427 0.121641C0.0288208 0.081387 0.0143231 0.0407812 0 0C0.0141485 0.0407812 0.0286462 0.081387 0.0438427 0.121641Z" transform="translate(0.689453 37.0225)" fill="#FF7400"/>
<path d="M0.13607 0.146601C0.0899562 0.0984374 0.0443668 0.0497461 0 0C0.0443668 0.0497461 0.0899562 0.0982617 0.13607 0.146601Z" transform="translate(1.79688 38.9053)" fill="#FF7400"/>
<path d="M0.140786 0.138866C0.0931004 0.0933387 0.0461135 0.0472852 0 0C0.0461135 0.0472852 0.0931004 0.0931629 0.140786 0.138866Z" transform="translate(1.9707 39.0923)" fill="#FF7400"/>
<path d="M0.136419 0.160841C0.0901306 0.107931 0.0441921 0.054668 0 0C0.0443668 0.0548437 0.0901306 0.107931 0.136419 0.160841Z" transform="translate(1.63086 38.7104)" fill="#FF7400"/>
<path d="M0.192139 0.0952747C0.128733 0.0624037 0.0648035 0.0304102 0 0C0.0648035 0.0305859 0.128908 0.0624037 0.192139 0.0952747Z" transform="translate(8.32227 30.0571)" fill="#FF7400"/>
<path d="M0.187424 0.082089C0.125416 0.0537882 0.0630567 0.0260156 0 0C0.0630567 0.0261914 0.125416 0.0537882 0.187424 0.082089Z" transform="translate(8.08398 29.9517)" fill="#FF7400"/>
<path d="M0.195283 0.108458C0.131004 0.0711922 0.0660262 0.0348047 0 0C0.0658515 0.0348047 0.131004 0.0710164 0.195283 0.108458Z" transform="translate(8.55664 30.1733)" fill="#FF7400"/>
<path d="M0.197554 0.122169C0.132576 0.0801575 0.0668995 0.039375 0 0C0.0668995 0.0395508 0.13275 0.0801575 0.197554 0.122169Z" transform="translate(8.78125 30.2998)" fill="#FF7400"/>
<path d="M0.181136 0.0692573C0.121048 0.0453511 0.0609607 0.0217969 0 0C0.0609607 0.0219727 0.121223 0.0453511 0.181136 0.0692573Z" transform="translate(7.83789 29.8569)" fill="#FF7400"/>
<path d="M0.198079 0.135704C0.133101 0.0891217 0.0670742 0.0439453 0 0C0.0670742 0.0439453 0.133101 0.0891217 0.198079 0.135704Z" transform="translate(9.00195 30.4355)" fill="#FF7400"/>
<path d="M0.145851 0.025312C0.0972924 0.0166987 0.0489083 0.00738281 0 0C0.0490829 0.00738281 0.097467 0.0166987 0.145851 0.025312Z" transform="translate(6.79688 29.5938)" fill="#FF7400"/>
<path d="M0.130655 0.016171C0.086987 0.0107218 0.0438428 0.00439453 0 0C0.0438428 0.00439453 0.086987 0.0107218 0.130655 0.016171Z" transform="translate(6.52344 29.5596)" fill="#FF7400"/>
<path d="M0.166113 0.0457048C0.110916 0.0298845 0.0558952 0.0140625 0 0C0.0558952 0.0140625 0.110916 0.0298845 0.166113 0.0457048Z" transform="translate(7.32812 29.7012)" fill="#FF7400"/>
<path d="M0.10393 0.00773549C0.0691705 0.00545033 0.0347598 0.00175781 0 0C0.0347598 0.00193359 0.0691705 0.00545033 0.10393 0.00773549Z" transform="translate(6.24609 29.5381)" fill="#FF7400"/>
<path d="M0.15668 0.0351557C0.104628 0.0230268 0.0525764 0.0105469 0 0C0.0525764 0.0105469 0.104453 0.0230268 0.15668 0.0351557Z" transform="translate(7.06641 29.6411)" fill="#FF7400"/>
<path d="M0.174323 0.0573054C0.116507 0.0376179 0.0586899 0.0179297 0 0C0.0585153 0.0181055 0.116507 0.0376179 0.174323 0.0573054Z" transform="translate(7.58594 29.7729)" fill="#FF7400"/>
<path d="M0.197205 0.148887C0.132576 0.0979102 0.0668995 0.0481641 0 0C0.0668995 0.0483398 0.132751 0.0979102 0.197205 0.148887Z" transform="translate(9.21289 30.5811)" fill="#FF7400"/>
<path d="M0.194759 0.161541C0.131004 0.106346 0.0662008 0.0523828 0 0C0.0662008 0.0525586 0.131179 0.106346 0.194759 0.161541Z" transform="translate(9.41797 30.7358)" fill="#FF7400"/>
<path d="M0.190392 0.173322C0.128384 0.114083 0.0648035 0.05625 0 0C0.0648035 0.05625 0.128209 0.114083 0.190392 0.173322Z" transform="translate(9.61523 30.9004)" fill="#FF7400"/>
<path d="M7.22952 7.5883C7.9724 6.63346 8.41641 5.43182 8.41641 4.12506C8.41641 2.51684 7.7448 1.06752 6.66969 0.0423628C6.44821 0.0154683 6.22305 0 5.99441 0C2.90742 0 0.40489 2.51842 0.40489 5.625C0.40489 7.23305 1.07651 8.68254 2.15161 9.7077C1.37397 9.61348 0.645589 9.35859 0 8.97697C0.829519 9.46758 1.79528 9.75006 2.8269 9.75006C3.56454 9.75006 4.26812 9.60486 4.91284 9.34365C5.83126 8.97135 6.62847 8.36121 7.22952 7.5883Z" transform="translate(3.13672 31.0312)" fill="url(#paint6_linear)"/>
<path d="M3.16733 7.12494C3.16733 4.01836 5.66987 1.49994 8.75685 1.49994C8.98567 1.49994 9.21065 1.51541 9.43213 1.5423C9.37013 1.48307 9.30654 1.42523 9.24174 1.36898C9.24087 1.3681 9.23982 1.36723 9.23877 1.36635C9.17519 1.31115 9.11021 1.25719 9.04401 1.20481C9.04139 1.20287 9.03877 1.20076 9.03633 1.19865C8.9717 1.14768 8.90602 1.09793 8.83912 1.04977C8.8344 1.04643 8.82986 1.04308 8.82515 1.03974C8.76017 0.993163 8.69414 0.947989 8.62707 0.904044C8.61991 0.899298 8.61275 0.894902 8.60558 0.890155C8.54061 0.848144 8.47476 0.807364 8.40803 0.767989C8.3979 0.762012 8.38759 0.756212 8.37729 0.750235C8.31301 0.712794 8.24786 0.676582 8.182 0.641778C8.16856 0.63457 8.15476 0.627716 8.14131 0.620685C8.0779 0.587814 8.01397 0.55582 7.94917 0.52541C7.93205 0.517324 7.91475 0.509942 7.89781 0.502032C7.8358 0.473731 7.77345 0.446134 7.71039 0.419943C7.6889 0.411154 7.66725 0.40289 7.64576 0.394277C7.58585 0.37037 7.52559 0.346992 7.46462 0.325019C7.43912 0.315879 7.4131 0.307442 7.38724 0.298653C7.32943 0.27879 7.27161 0.259278 7.21292 0.241348C7.18253 0.232031 7.15179 0.223945 7.12122 0.215156C7.06602 0.199336 7.011 0.183516 6.95511 0.169454C6.91982 0.160489 6.88401 0.152929 6.84856 0.144668C6.7965 0.132539 6.74445 0.120059 6.69187 0.109512C6.65118 0.10125 6.60995 0.094745 6.56908 0.0873622C6.52052 0.0787489 6.47214 0.069433 6.42323 0.0620502C6.37589 0.0548432 6.32821 0.0497448 6.28052 0.0437683C6.23685 0.0383191 6.19371 0.0319918 6.14987 0.0275972C6.09222 0.0217965 6.03388 0.0182801 5.97572 0.0142372C5.94096 0.0117762 5.90655 0.00826217 5.87179 0.00650436C5.77834 0.00246139 5.68419 0 5.58952 0C4.85746 0 4.15912 0.143087 3.51843 0.400607C2.63738 0.75463 1.8662 1.32644 1.27266 2.05172C0.477554 3.02326 0 4.26797 0 5.625C0 5.71869 0.00244557 5.81168 0.00698706 5.90432C0.00855911 5.93525 0.0115283 5.96584 0.0134497 5.99678C0.0174672 6.05813 0.0213097 6.1193 0.0272486 6.17994C0.030742 6.2165 0.0358079 6.25272 0.04 6.28928C0.0464629 6.3436 0.0525764 6.39791 0.0606113 6.4517C0.0662009 6.49055 0.073188 6.52887 0.0796508 6.56754C0.0882098 6.61816 0.0967686 6.66897 0.10655 6.71924C0.114411 6.75897 0.123144 6.79851 0.131703 6.83789C0.142184 6.88605 0.153013 6.93422 0.164716 6.98185C0.174673 7.02228 0.185328 7.06219 0.196157 7.10227C0.208559 7.14815 0.22131 7.19402 0.234935 7.23938C0.246987 7.27998 0.259563 7.32041 0.272489 7.36049C0.286638 7.40443 0.30131 7.44803 0.316506 7.49144C0.33083 7.53223 0.345327 7.57266 0.360349 7.61309C0.37607 7.65492 0.392489 7.69623 0.409083 7.73754C0.425502 7.77832 0.442096 7.8191 0.459563 7.85953C0.476506 7.89891 0.494497 7.93793 0.512314 7.97695C0.531179 8.01809 0.550044 8.05939 0.569782 8.10017C0.587423 8.13621 0.606113 8.17172 0.624454 8.2074C0.646288 8.24994 0.667948 8.29266 0.69083 8.33449C0.707773 8.36561 0.725939 8.39584 0.743406 8.4266C0.769257 8.47195 0.794934 8.5173 0.822008 8.56178C0.834061 8.58146 0.846986 8.60063 0.859213 8.62014C0.980436 8.8135 1.11214 8.9993 1.2552 9.17578C1.25607 9.17684 1.25694 9.17807 1.25782 9.17912C1.30218 9.23379 1.34795 9.28705 1.39423 9.33996C1.40419 9.35121 1.41362 9.36281 1.42358 9.37406C1.46795 9.42381 1.51354 9.4725 1.55965 9.52066C1.5724 9.53385 1.5848 9.54738 1.59755 9.56057C1.64349 9.60768 1.69065 9.65391 1.73834 9.69943C1.75179 9.71244 1.76524 9.72545 1.77886 9.73828C1.82725 9.78363 1.87651 9.82793 1.92646 9.87152C1.93991 9.8833 1.95336 9.89525 1.96699 9.90685C2.01817 9.9508 2.07039 9.99369 2.12314 10.0359C2.13572 10.0459 2.14847 10.0559 2.16105 10.0659C2.21572 10.1088 2.27127 10.1507 2.32768 10.1914C2.33851 10.1992 2.34917 10.2069 2.36 10.2146C2.41921 10.2568 2.47913 10.2981 2.53991 10.338C2.54707 10.3428 2.55423 10.3474 2.5614 10.3519C2.62637 10.3941 2.69205 10.4353 2.75895 10.4748C2.76017 10.4755 2.7614 10.4762 2.76262 10.4769C3.40821 10.8584 4.13659 11.1132 4.91423 11.2076C3.83912 10.1825 3.16733 8.73316 3.16733 7.12494Z" transform="translate(0.373047 29.5312)" fill="url(#paint7_linear)"/>
<defs>
<linearGradient id="paint0_linear" x2="1" gradientUnits="userSpaceOnUse" gradientTransform="translate(-16.2073 49.7247) scale(79 90) rotate(-49.2576)">
<stop stop-color="#94AAEB"/>
<stop offset="1" stop-color="#B870FF"/>
</linearGradient>
<linearGradient id="paint1_linear" x2="1" gradientUnits="userSpaceOnUse" gradientTransform="translate(-3.44016 9.32337) scale(16.7686 16.875) rotate(-49.2576)">
<stop stop-color="#94AAEB"/>
<stop offset="1" stop-color="#B870FF"/>
</linearGradient>
<linearGradient id="paint2_linear" x2="1" gradientUnits="userSpaceOnUse" gradientTransform="translate(-1.72685 5.45922) scale(8.41729 9.88102) rotate(-49.2576)">
<stop stop-color="#94AAEB"/>
<stop offset="1" stop-color="#B870FF"/>
</linearGradient>
<linearGradient id="paint3_linear" x2="1" gradientUnits="userSpaceOnUse" gradientTransform="translate(-1.93505 6.19208) scale(9.43213 11.2075) rotate(-49.2576)">
<stop stop-color="#94AAEB"/>
<stop offset="1" stop-color="#B870FF"/>
</linearGradient>
<linearGradient id="paint4_linear" x2="1" gradientUnits="userSpaceOnUse" gradientTransform="translate(-1.72682 5.45932) scale(8.41711 9.88119) rotate(-49.2576)">
<stop stop-color="#94AAEB"/>
<stop offset="1" stop-color="#B870FF"/>
</linearGradient>
<linearGradient id="paint5_linear" x2="1" gradientUnits="userSpaceOnUse" gradientTransform="translate(-1.93509 6.19218) scale(9.43231 11.2076) rotate(-49.2576)">
<stop stop-color="#94AAEB"/>
<stop offset="1" stop-color="#B870FF"/>
</linearGradient>
<linearGradient id="paint6_linear" x2="1" gradientUnits="userSpaceOnUse" gradientTransform="translate(-1.72667 5.38687) scale(8.41641 9.75006) rotate(-49.2576)">
<stop stop-color="#94AAEB"/>
<stop offset="1" stop-color="#B870FF"/>
</linearGradient>
<linearGradient id="paint7_linear" x2="1" gradientUnits="userSpaceOnUse" gradientTransform="translate(-1.93505 6.19218) scale(9.43213 11.2076) rotate(-49.2576)">
<stop stop-color="#94AAEB"/>
<stop offset="1" stop-color="#B870FF"/>
</linearGradient>
</defs>
</svg>
