<svg width="723" height="724" viewBox="0 0 723 724" fill="none" xmlns="http://www.w3.org/2000/svg">
<path fill-rule="evenodd" clip-rule="evenodd" d="M294.048 272.935L447.309 0L443.758 313.105L698.364 460.414L402.077 460.509L260.183 699.33L256.545 421.46L0 273.029L294.048 272.935ZM292.053 276.488L20.0695 276.575L256.396 339.987L292.053 276.488ZM259.935 340.936L296.125 276.487L371.496 276.463L347.927 364.546L259.935 340.936ZM351.355 365.466L439.347 389.076L440.186 315.141L374.924 277.382L351.355 365.466ZM375.875 273.83L440.232 311.065L443.522 21.0204L375.875 273.83ZM443.712 317.181L442.886 390.026L679.213 453.437L443.712 317.181ZM438.361 392.489L350.437 368.898L326.868 456.981L400.058 456.957L438.361 392.489ZM404.188 456.956L441.923 393.445L678.295 456.868L404.188 456.956ZM397.946 460.511L325.917 460.534L266.909 681.059L397.946 460.511ZM323.44 456.061L347.009 367.978L259.085 344.386L260.067 419.395L323.44 456.061ZM260.121 423.529L322.489 459.614L263.481 680.139L260.121 423.529ZM256.491 417.326L255.523 343.43L19.1512 280.007L256.491 417.326ZM372.447 272.91L298.12 272.934L440.093 20.1006L372.447 272.91Z" transform="translate(7.75391 12.3351)" fill="url(#paint0_linear)"/>
<path fill-rule="evenodd" clip-rule="evenodd" d="M284.053 223.913L502.635 0L418.28 301.516L626.136 509.794L339.92 433.095L141.135 627.002L209.44 357.658L0 147.794L284.053 223.913ZM281.207 226.829L18.4706 156.421L230.354 278.922L281.207 226.829ZM233.526 280.756L285.141 227.883L357.951 247.394L312.419 326.367L233.526 280.756ZM315.492 328.144L394.384 373.755L414.303 302.558L361.024 249.171L315.492 328.144ZM362.861 245.985L415.402 298.632L493.545 19.3211L362.861 245.985ZM417.181 305.442L397.556 375.589L609.44 498.09L417.181 305.442ZM392.549 376.797L313.718 331.221L268.186 410.194L338.889 429.14L392.549 376.797ZM342.878 430.21L395.742 378.643L607.666 501.166L342.878 430.21ZM335.931 432.026L266.349 413.38L152.354 611.098L335.931 432.026ZM265.112 408.417L310.645 329.444L231.814 283.868L213.376 356.576L265.112 408.417ZM212.359 360.583L263.276 411.603L149.28 609.322L212.359 360.583ZM210.456 353.65L228.621 282.022L16.6967 159.498L210.456 353.65ZM359.788 244.208L287.987 224.967L490.471 17.5443L359.788 244.208Z" transform="translate(39.459 49.6818)" fill="url(#paint1_linear)"/>
<path fill-rule="evenodd" clip-rule="evenodd" d="M254.7 159.632L523.707 0L364.296 269.379L511.238 524.432L254.598 376.166L12.4691 511.945L14.0658 509.09L14.128 508.979L148.061 269.481L0 12.4865L254.7 159.632ZM251.198 161.711L15.6129 25.6086L188.614 198.849L251.198 161.711ZM189.909 200.145L252.961 162.729L320.807 201.925L256.246 266.575L189.909 200.145ZM323.839 334.26L257.501 267.831L322.061 203.182L361.203 271.121L323.839 334.26ZM254.992 270.343L321.288 336.731L256.413 373.112L190.432 334.993L254.992 270.343ZM187.441 202.699L253.737 269.087L189.177 333.737L151.111 267.664L187.441 202.699ZM186.138 201.394L13.104 28.121L150.079 265.873L186.138 201.394ZM149.093 271.272L18.6872 504.462L186.579 336.338L149.093 271.272ZM187.834 337.594L19.9417 505.719L252.81 375.132L187.834 337.594ZM258.201 374.145L322.592 338.037L495.625 511.31L258.201 374.145ZM325.133 335.557L362.22 272.887L498.134 508.797L325.133 335.557ZM363.278 267.614L516.821 8.15245L324.659 200.58L363.278 267.614ZM323.404 199.324L515.566 6.89619L256.464 160.651L323.404 199.324Z" transform="translate(92.957 109.495)" fill="url(#paint2_linear)"/>
<path fill-rule="evenodd" clip-rule="evenodd" d="M193.64 286.612L117.047 0L325.037 208.144L626.136 123.672L402.533 342.556L478.547 627.002L268.973 417.273L0 485.672L193.64 286.612ZM194.707 290.607L15.8785 474.44L213.328 360.285L194.707 290.607ZM216.51 358.446L197.589 287.644L249.859 233.91L295.373 312.851L216.51 358.446ZM215.102 363.362L17.6524 477.517L266.052 414.35L215.102 363.362ZM270.055 413.332L218.284 361.523L297.147 315.928L342.66 394.869L270.055 413.332ZM272.976 416.255L466.856 610.279L344.504 398.066L272.976 416.255ZM347.6 396.329L469.929 608.502L399.62 345.407L347.6 396.329ZM401.48 338.618L608.62 135.85L382.265 266.717L401.48 338.618ZM379.083 268.557L398.568 341.469L345.769 393.153L300.22 314.151L379.083 268.557ZM380.492 263.64L606.846 132.773L327.916 211.026L380.492 263.64ZM323.995 212.126L377.31 265.48L298.446 311.074L252.897 232.072L323.995 212.126ZM321.116 209.244L128.737 16.7232L251.066 228.896L321.116 209.244ZM248.016 230.714L196.521 283.65L125.664 18.5L248.016 230.714Z" transform="translate(49.3789 62.625)" fill="url(#paint3_linear)"/>
<path fill-rule="evenodd" clip-rule="evenodd" d="M238.491 296.697L238.586 0L385.692 254.958L698.364 251.402L425.806 404.875L425.712 699.33L277.486 442.43L0 438.787L238.491 296.697ZM238.49 300.832L18.2392 432.054L238.467 372.963L238.49 300.832ZM242.016 372.011L242.039 298.717L306.416 260.362L329.976 348.409L242.016 372.011ZM239.385 376.394L19.1575 435.486L275.421 438.85L239.385 376.394ZM279.551 438.905L242.934 375.442L330.894 351.841L354.454 439.888L279.551 438.905ZM281.616 442.485L418.742 680.145L355.408 443.453L281.616 442.485ZM358.848 442.579L422.17 679.226L422.257 406.874L358.848 442.579ZM425.808 400.799L678.299 258.625L425.831 326.367L425.808 400.799ZM422.282 327.319L422.258 402.798L357.9 439.037L334.322 350.921L422.282 327.319ZM424.913 322.936L677.381 255.194L387.728 258.488L424.913 322.936ZM383.656 258.534L421.364 323.888L333.404 347.489L309.826 259.374L383.656 258.534ZM381.62 255.004L245.557 19.1847L308.878 255.832L381.62 255.004ZM305.462 256.797L242.041 294.582L242.128 20.1046L305.462 256.797Z" transform="translate(15.5449 22.5035)" fill="url(#paint4_linear)"/>
<path fill-rule="evenodd" clip-rule="evenodd" d="M284.006 303.356L360.986 2.02008L361.002 1.95728L361.502 0L362.002 1.95728L362.018 2.02008L438.998 303.357L721.072 379.141L721.139 379.158L723 379.658L721.139 380.158L721.072 380.176L436.834 456.541L362.021 722.156L362.002 722.225L361.502 724L361.002 722.225L360.982 722.156L286.168 456.541L1.92773 380.176L1.86133 380.158L0 379.658L1.86133 379.158L1.92773 379.141L284.006 303.356ZM283.721 304.468L5.71484 379.158L264.641 379.159L283.721 304.468ZM265.674 379.159L284.83 304.17L361.002 283.706V379.159H265.674ZM362.002 379.159H457.33L438.174 304.171L362.002 283.707V379.159ZM362.002 282.671L437.891 303.06L362.002 5.99744V282.671ZM439.281 304.469L458.361 379.159L717.285 379.158L439.281 304.469ZM264.654 380.159L5.71484 380.158L285.854 455.421L264.654 380.159ZM287.293 456.843L361.002 718.536V476.647L287.293 456.843ZM361.002 475.611L286.977 455.723L265.693 380.159H361.002V475.611ZM362.002 476.645V718.536L435.709 456.843L362.002 476.645ZM436.025 455.723L362.002 475.61V380.159H457.309L436.025 455.723ZM437.15 455.421L458.348 380.159L717.285 380.158L437.15 455.421ZM361.002 282.67L285.115 303.059L361.002 5.99744V282.67Z" fill="url(#paint5_linear)"/>
<ellipse cx="105.805" cy="105.951" rx="105.805" ry="105.951" transform="translate(244.455 272.621)" fill="#21214F"/>
<defs>
<linearGradient id="paint0_linear" x2="1" gradientUnits="userSpaceOnUse" gradientTransform="translate(841.88 316.375) scale(698.364 699.33) rotate(131.14)">
<stop stop-color="#2AA5DA"/>
<stop offset="1" stop-color="#611EA5"/>
<stop offset="1" stop-color="#611EA5"/>
</linearGradient>
<linearGradient id="paint1_linear" x2="1" gradientUnits="userSpaceOnUse" gradientTransform="translate(754.809 283.654) scale(626.136 627.002) rotate(131.14)">
<stop stop-color="#2AA5DA"/>
<stop offset="1" stop-color="#611EA5"/>
<stop offset="1" stop-color="#611EA5"/>
</linearGradient>
<linearGradient id="paint2_linear" x2="1" gradientUnits="userSpaceOnUse" gradientTransform="translate(631.331 237.251) scale(523.707 524.432) rotate(131.14)">
<stop stop-color="#2AA5DA"/>
<stop offset="1" stop-color="#611EA5"/>
<stop offset="1" stop-color="#611EA5"/>
</linearGradient>
<linearGradient id="paint3_linear" x2="1" gradientUnits="userSpaceOnUse" gradientTransform="translate(754.809 283.654) scale(626.136 627.002) rotate(131.14)">
<stop stop-color="#2AA5DA"/>
<stop offset="1" stop-color="#611EA5"/>
<stop offset="1" stop-color="#611EA5"/>
</linearGradient>
<linearGradient id="paint4_linear" x2="1" gradientUnits="userSpaceOnUse" gradientTransform="translate(841.88 316.375) scale(698.364 699.33) rotate(131.14)">
<stop stop-color="#2AA5DA"/>
<stop offset="1" stop-color="#611EA5"/>
<stop offset="1" stop-color="#611EA5"/>
</linearGradient>
<linearGradient id="paint5_linear" x2="1" gradientUnits="userSpaceOnUse" gradientTransform="translate(871.578 327.535) scale(723 724) rotate(131.14)">
<stop stop-color="#2AA5DA"/>
<stop offset="1" stop-color="#611EA5"/>
<stop offset="1" stop-color="#611EA5"/>
</linearGradient>
</defs>
</svg>
