<svg width="403" height="509" viewBox="0 0 403 509" fill="none" xmlns="http://www.w3.org/2000/svg">
<path d="M509 254.5C509 395.056 395.056 509 254.5 509C113.944 509 0 395.056 0 254.5C0 113.944 113.944 0 254.5 0C395.056 0 509 113.944 509 254.5Z" fill="#A76BE3" fill-opacity="0.1"/>
<path opacity="0.2" fill-rule="evenodd" clip-rule="evenodd" d="M254.5 499.661C389.898 499.661 499.661 389.898 499.661 254.5C499.661 119.102 389.898 9.33945 254.5 9.33945C119.102 9.33945 9.33945 119.102 9.33945 254.5C9.33945 389.898 119.102 499.661 254.5 499.661ZM254.5 509C395.056 509 509 395.056 509 254.5C509 113.944 395.056 0 254.5 0C113.944 0 0 113.944 0 254.5C0 395.056 113.944 509 254.5 509Z" fill="white"/>
<g opacity="0.2" transform="translate(96.457 198.531)">
<path d="M48.5943 106.382L49.251 108.927L49.9898 106.382L87.5847 1.6417H98.6662L54.1761 121.157H44.4901L0 1.6417H10.9994L48.5943 106.382Z" fill="white"/>
<path d="M183.952 91.771C183.952 85.1495 181.627 79.9234 176.975 76.0928C172.324 72.2074 163.814 68.541 151.447 65.0934C139.079 61.5911 130.05 57.7878 124.359 53.6836C116.26 47.8829 112.21 40.2764 112.21 30.864C112.21 21.7252 115.959 14.3102 123.456 8.61893C131.008 2.87298 140.639 0 152.35 0C160.285 0 167.371 1.53225 173.61 4.59676C179.903 7.66127 184.773 11.9297 188.221 17.402C191.669 22.8744 193.392 28.976 193.392 35.707H183.214C183.214 27.5532 180.423 21.0138 174.841 16.0887C169.259 11.1088 161.762 8.61893 152.35 8.61893C143.211 8.61893 135.933 10.6711 130.515 14.7753C125.098 18.8248 122.389 24.133 122.389 30.6998C122.389 36.7741 124.824 41.7265 129.694 45.5572C134.565 49.3878 142.363 52.7807 153.089 55.7357C163.814 58.6361 171.941 61.6732 177.468 64.8472C182.995 67.9664 187.154 71.7149 189.945 76.0928C192.736 80.4707 194.131 85.642 194.131 91.6069C194.131 101.019 190.355 108.571 182.803 114.262C175.306 119.954 165.401 122.799 153.089 122.799C144.661 122.799 136.918 121.294 129.858 118.285C122.854 115.275 117.518 111.061 113.852 105.643C110.24 100.226 108.434 94.0147 108.434 87.0101H118.531C118.531 95.4375 121.677 102.086 127.971 106.957C134.264 111.827 142.636 114.262 153.089 114.262C162.392 114.262 169.861 112.21 175.498 108.106C181.134 104.002 183.952 98.5567 183.952 91.771Z" fill="white"/>
</g>
<path d="M92 124H81.5609L10.524 17.8846V124H0V0H10.524L81.6458 106.201V0H92V124Z" transform="translate(311 198)" fill="white" fill-opacity="0.2"/>
</svg>
