<svg width="46" height="46" viewBox="0 0 46 46" fill="none" xmlns="http://www.w3.org/2000/svg">
<g opacity="0.7">
<rect width="46" height="46" fill="white"/>
<path d="M25.8058 22.7563C25.8058 22.7563 25.6627 24.8379 23.7547 24.8379C22.2812 24.8379 21.2749 23.7232 20.3325 22.2757C23.009 19.9586 24.7086 16.4984 24.7086 12.6318C24.7087 5.65549 19.1775 0 12.3544 0C5.53124 0 0 5.65548 0 12.6319C0 19.6083 5.53124 25.2638 12.3544 25.2638C13.5926 25.2638 14.7879 25.0767 15.9158 24.7301C17.3427 26.9784 19.1541 29 21.9898 29C27.7615 29 28 22.7563 28 22.7563H25.8058V22.7563ZM12.3544 23.1821C8.37637 23.1821 5.15159 18.4586 5.15159 12.6319C5.15159 6.80519 8.37637 2.08167 12.3544 2.08167C16.3323 2.08167 19.557 6.80519 19.557 12.6319C19.557 14.9489 19.0467 17.091 18.1823 18.8314C17.2058 17.4486 16.0336 16.2711 14.3577 15.8963C11.3848 15.2314 8.82452 16.5587 8.01361 17.221L8.7768 18.7822C8.7768 18.7822 9.54833 18.3423 11.4614 18.7817C12.6668 19.0586 13.6035 20.7177 14.677 22.6213C13.9483 22.9847 13.1671 23.1821 12.3544 23.1821Z" transform="translate(10 9)" fill="#CF2217"/>
</g>
</svg>
