<svg width="46" height="46" viewBox="0 0 46 46" fill="none" xmlns="http://www.w3.org/2000/svg">
<g opacity="0.7">
<rect width="46" height="46" fill="white"/>
<path d="M11.4176 0C8.83771 0.0560937 6.25772 1.06552 4.39137 2.24323C3.95225 1.79461 3.29351 1.57024 2.63484 1.57024C1.20761 1.57024 0 2.74794 0 4.26209C0 5.21549 0.494024 6.11273 1.26251 6.56141C1.20761 6.78572 1.20761 7.06612 1.20761 7.34653C1.20761 9.25326 2.30547 11.0479 4.28162 12.3938C4.94036 12.8424 5.59904 13.1789 6.36753 13.4593C4.8854 14.1883 3.84244 15.9269 3.84244 17.9458C3.84244 20.2451 5.15986 22.1518 6.91646 22.6566C7.08111 23.1052 7.19092 23.4978 7.35558 23.8904C7.30067 23.8904 7.19092 23.8904 7.13602 23.8904C5.54414 23.8904 4.17181 25.012 4.17181 26.3579C4.17181 26.5822 4.22672 26.9187 4.28162 27.1991C4.44628 27.3673 4.61099 27.4795 4.83055 27.4795H18.1146C18.3342 27.4795 18.4989 27.3673 18.5537 27.143C18.6086 26.9187 18.5537 26.5261 18.5537 26.3579C18.5537 25.012 17.401 23.8904 15.8091 23.8904C15.7542 23.8904 15.6993 23.8904 15.6444 23.8904C15.8091 23.4978 15.9738 23.0491 16.0835 22.6566C17.8401 22.1518 19.1576 20.2451 19.1576 17.9458C19.1576 15.9269 18.1146 14.1884 16.6325 13.4593C17.401 13.1789 18.0597 12.7863 18.7184 12.3938C20.6945 11.0479 21.7924 9.25326 21.7924 7.34653C21.7924 7.06612 21.7924 6.84181 21.7375 6.56141C22.506 6.11279 23 5.21549 23 4.26209C23 2.80397 21.8472 1.57024 20.3652 1.57024C19.7064 1.57024 19.1027 1.85064 18.6086 2.24323C16.9069 1.12162 14.4368 0.112187 11.9666 0H11.4176Z" transform="translate(12 12.5205)" fill="#FF5D00"/>
<path d="M3.29358 1.68242C3.29358 0.729024 2.57999 0 1.64679 0C0.713582 0 0 0.729024 0 1.68242C0 2.63582 0.713582 3.36485 1.64679 3.36485C2.57993 3.36478 3.29358 2.63576 3.29358 1.68242Z" transform="translate(18.4766 17.0073)" fill="white"/>
<path d="M3.29358 1.68242C3.29358 0.729024 2.57999 0 1.64679 0C0.713584 0 0 0.729024 0 1.68242C0 2.63582 0.713584 3.36485 1.64679 3.36485C2.57999 3.36478 3.29358 2.63576 3.29358 1.68242Z" transform="translate(25.0645 17.0068)" fill="white"/>
<path d="M3.84246 2.24318C2.36032 2.24318 0.933158 1.73847 0.164669 0.953351C-0.0548898 0.72904 -0.0548898 0.392543 0.164669 0.168233C0.384228 -0.0560775 0.713598 -0.0560775 0.933157 0.168233C1.37227 0.616853 2.36039 1.12163 3.84246 1.12163C5.32453 1.12163 6.31264 0.616918 6.75176 0.168233C6.97132 -0.0560775 7.30069 -0.0560775 7.52025 0.168233C7.7398 0.392543 7.7398 0.72904 7.52025 0.953351C6.75182 1.73847 5.32459 2.24318 3.84246 2.24318Z" transform="translate(19.5742 22.0542)" fill="white"/>
<path d="M0.559431 6.0813C0.504526 6.0813 0.44962 6.0813 0.394778 6.0813C0.120313 5.96911 -0.0443408 5.68871 0.0105015 5.4083L1.38282 0.69753C1.54748 0.192816 2.04156 -0.0875883 2.53559 0.0245344L6.433 1.14615C6.70746 1.25834 6.87212 1.53874 6.81728 1.81914C6.70747 2.09955 6.433 2.26777 6.15854 2.21174L2.42584 1.09012L1.10842 5.68871C0.998613 5.91308 0.779054 6.0813 0.559431 6.0813Z" transform="translate(22.8574 7)" fill="#FF5D00"/>
<path d="M4.39144 2.24323C4.39144 1.00943 3.40339 0 2.19572 0C0.988048 0 0 1.00943 0 2.24323C0 3.47703 0.988048 4.48646 2.19572 4.48646C3.40339 4.48646 4.39144 3.47703 4.39144 2.24323Z" transform="translate(28.9082 7.47314)" fill="#FF5D00"/>
<path d="M4.22672 9.42154H2.57993C1.0978 8.52424 0 5.7202 0 2.29933C0 1.51421 0.0549054 0.729089 0.164653 0C1.1527 0.280404 2.25056 0.448621 3.40332 0.448621C4.55609 0.448621 5.59904 0.280404 6.64199 0C6.7518 0.729024 6.80665 1.51421 6.80665 2.29933C6.80665 5.72026 5.70879 8.5243 4.22672 9.42154Z" transform="translate(20.125 27.7744)" fill="white"/>
</g>
</svg>
