<svg width="46" height="46" viewBox="0 0 46 46" fill="none" xmlns="http://www.w3.org/2000/svg">
<g opacity="0.7">
<rect width="46" height="46" fill="white"/>
<path d="M6.9526 2.46256C6.34511 0.592514 4.33515 -0.432511 2.46269 0.175004C0.59022 0.782519 -0.432262 2.79257 0.175227 4.66511L9.38756 33.0133C10.02 34.7608 11.9075 35.7434 13.7225 35.2234C15.6124 34.6783 16.7674 32.6708 16.1624 30.8132C16.1399 30.7407 6.9526 2.46256 6.9526 2.46256Z" transform="translate(21.9883 4)" fill="#FFC107"/>
<path d="M6.95332 2.46374C6.34333 0.591194 4.33337 -0.433831 2.4634 0.176184C0.593438 0.786198 -0.434044 2.79375 0.175945 4.66629L9.38828 33.012C10.0208 34.7595 11.9082 35.7421 13.7232 35.222C15.6132 34.677 16.7681 32.6695 16.1632 30.8119C16.1407 30.7419 6.95332 2.46374 6.95332 2.46374Z" transform="translate(7.71289 8.63867)" fill="#4CAF50"/>
<path d="M32.8985 6.9529C34.7709 6.34538 35.7934 4.33534 35.1859 2.46279C34.5784 0.590244 32.5685 -0.432281 30.696 0.175234L2.34902 9.39046C0.601552 10.023 -0.38093 11.9105 0.13906 13.7256C0.684051 15.6156 2.69151 16.7706 4.54898 16.1656C4.62148 16.1406 32.8985 6.9529 32.8985 6.9529Z" transform="translate(7.63867 22.9878)" fill="#EC407A"/>
<path d="M2.20246 8.97772C4.04743 8.3777 6.42488 7.60519 8.97734 6.77516C8.37735 4.93012 7.60486 2.55256 6.77488 0L0 2.20255L2.20246 8.97772Z" transform="translate(13.6934 28.9707)" fill="#472A49"/>
<path d="M2.20246 8.98022C4.76491 8.1477 7.14487 7.37518 8.97733 6.77767C8.37735 4.93262 7.60486 2.55256 6.77488 0L0 2.20256L2.20246 8.98022Z" transform="translate(27.9707 24.3281)" fill="#CC2027"/>
<path d="M32.8971 6.9529C34.7695 6.34538 35.792 4.33534 35.1845 2.46279C34.577 0.590244 32.5671 -0.432281 30.6946 0.175234L2.35013 9.38796C0.600166 10.0205 -0.382316 11.908 0.140174 13.7231C0.685164 15.6131 2.69263 16.7656 4.55009 16.1631C4.62009 16.1406 32.8971 6.9529 32.8971 6.9529Z" transform="translate(3 8.7124)" fill="#2196F3"/>
<path d="M2.19996 8.97772C4.04493 8.3777 6.42488 7.60519 8.97734 6.77516C8.14485 4.2151 7.37237 1.83504 6.77488 0L0 2.20255L2.19996 8.97772Z" transform="translate(9.05469 14.6929)" fill="#1A937D"/>
<path d="M2.20246 8.98022C4.76491 8.1477 7.14487 7.37518 8.97984 6.77767C8.14735 4.2151 7.37236 1.83504 6.77738 0L0 2.20255L2.20246 8.98022Z" transform="translate(23.3281 10.0527)" fill="#65863A"/>
</g>
</svg>
