<svg width="46" height="46" viewBox="0 0 46 46" fill="none" xmlns="http://www.w3.org/2000/svg">
<g opacity="0.7">
<path d="M46 0H0V46H46V0Z" fill="#61A8DE"/>
<path d="M31.4752 0.110614L0.714463 12.0978C-0.281883 12.4861 -0.221523 13.9158 0.804095 14.2186L8.62074 16.5269L11.5379 25.7834C11.8426 26.7502 13.0679 27.0434 13.7772 26.3191L17.8186 22.1926L25.7482 28.0132C26.7186 28.7255 28.1006 28.1963 28.347 27.018L33.5988 1.909C33.856 0.679089 32.646 -0.345621 31.4752 0.110614ZM27.6186 5.68293L13.3304 18.318C13.188 18.444 13.0974 18.6183 13.0762 18.8072L12.5261 23.6974C12.5081 23.8569 12.2849 23.878 12.2373 23.7248L9.974 16.4318C9.87033 16.0979 10.0055 15.7361 10.3025 15.5519L27.1754 5.0872C27.5634 4.84636 27.9607 5.38052 27.6186 5.68293Z" transform="translate(4.74414 10.0435)" fill="white"/>
</g>
</svg>
