<svg width="46" height="46" viewBox="0 0 46 46" fill="none" xmlns="http://www.w3.org/2000/svg">
<g opacity="0.7">
<path d="M46 0H0V46H46V0Z" fill="#50ABF1"/>
<path d="M0.00191751 24.4046C3.06333 26.3462 6.69483 27.4698 10.5877 27.4698C21.5241 27.4698 30.3894 18.6034 30.3894 7.66806C30.3894 7.39503 30.3837 7.12401 30.3732 6.85381C30.7688 6.54252 33.2153 4.58162 33.8149 3.32102C33.8149 3.32102 31.8282 4.14668 29.8837 4.34119C29.8799 4.34119 29.8752 4.3421 29.8713 4.3421C29.8713 4.3421 29.8752 4.34018 29.8818 4.33543C30.061 4.21572 32.5658 2.5106 32.905 0.478945C32.905 0.478945 31.4997 1.22901 29.5322 1.8852C29.2065 1.9934 28.8655 2.09979 28.5139 2.1984C27.2457 0.84484 25.4429 0 23.4419 0C19.6035 0 16.4933 3.10936 16.4933 6.94475C16.4933 7.48597 16.5555 8.01276 16.6733 8.51856C16.137 8.49655 7.96885 8.0386 2.41209 1.30935C2.41209 1.30935 -0.908936 5.84313 4.39115 10.5052C4.39115 10.5052 2.78 10.441 1.39 9.61049C1.39 9.61049 0.879461 15.1031 6.88166 16.5074C6.88166 16.5074 5.7006 16.9547 3.81642 16.6358C3.81642 16.6358 4.8701 21.0738 10.2028 21.4885C10.2028 21.4885 5.98595 25.2979 0 24.4041L0.00191751 24.4046Z" transform="translate(6.0918 9.69434)" fill="white"/>
</g>
</svg>
