<svg width="46" height="45" viewBox="0 0 46 45" fill="none" xmlns="http://www.w3.org/2000/svg">
<g opacity="0.5">
<rect width="45.0483" height="45" fill="white" fill-opacity="0.6"/>
<path d="M45.0483 0H0V45H45.0483V0Z" fill="#A3A3A3"/>
<path d="M30.8241 0.108209L0.699682 11.8348C-0.276051 12.2146 -0.21694 13.6133 0.787459 13.9095L8.44238 16.1676L11.2992 25.2229C11.5976 26.1687 12.7976 26.4555 13.4922 25.747L17.45 21.7102L25.2155 27.4042C26.1658 28.101 27.5193 27.5833 27.7605 26.4307L32.9037 1.8675C33.1556 0.664327 31.9706 -0.338107 30.8241 0.108209ZM27.0472 5.55939L13.0547 17.9198C12.9152 18.043 12.8264 18.2135 12.8057 18.3984L12.2669 23.1822C12.2493 23.3383 12.0308 23.3589 11.9841 23.209L9.76765 16.0746C9.66613 15.7479 9.79849 15.394 10.0894 15.2138L26.6132 4.97661C26.9932 4.74101 27.3822 5.26355 27.0472 5.55939Z" transform="translate(4.64648 9.82526)" fill="white"/>
</g>
</svg>
