<svg width="46" height="45" viewBox="0 0 46 45" fill="none" xmlns="http://www.w3.org/2000/svg">
<g opacity="0.5">
<rect width="45.0483" height="45" fill="white" fill-opacity="0.6"/>
<path d="M45.0483 0H0V45H45.0483V0Z" fill="#A3A3A3"/>
<path d="M0.00187784 23.874C2.99995 25.7735 6.55632 26.8727 10.3686 26.8727C21.0787 26.8727 29.7607 18.199 29.7607 7.50137C29.7607 7.23427 29.7551 6.96914 29.7448 6.70481C30.1322 6.40029 32.5281 4.48202 33.1153 3.24882C33.1153 3.24882 31.1697 4.05654 29.2655 4.24681C29.2617 4.24681 29.2571 4.2477 29.2533 4.2477C29.2533 4.2477 29.2571 4.24583 29.2636 4.24119C29.4391 4.12408 31.8921 2.45602 32.2242 0.468533C32.2242 0.468533 30.848 1.20229 28.9212 1.84421C28.6022 1.95006 28.2683 2.05414 27.924 2.15061C26.682 0.826474 24.9165 0 22.9569 0C19.198 0 16.152 3.04176 16.152 6.79378C16.152 7.32323 16.213 7.83857 16.3284 8.33337C15.8031 8.31184 7.80399 7.86385 2.36218 1.28089C2.36218 1.28089 -0.890131 5.7161 4.3003 10.2768C4.3003 10.2768 2.72248 10.214 1.36124 9.40157C1.36124 9.40157 0.861266 14.7747 6.73929 16.1485C6.73929 16.1485 5.58266 16.5862 3.73746 16.2741C3.73746 16.2741 4.76934 20.6156 9.9917 21.0214C9.9917 21.0214 5.86211 24.7479 0 23.8736L0.00187784 23.874Z" transform="translate(5.96484 9.48334)" fill="white"/>
</g>
</svg>
