<svg width="102" height="102" viewBox="0 0 102 102" fill="none" xmlns="http://www.w3.org/2000/svg">
<path d="M102 51C102 79.1665 79.1665 102 51 102C22.8335 102 0 79.1665 0 51C0 22.8335 22.8335 0 51 0C79.1665 0 102 22.8335 102 51Z" fill="#A76BE3" fill-opacity="0.1"/>
<path fill-rule="evenodd" clip-rule="evenodd" d="M51 100C78.062 100 100 78.062 100 51C100 23.938 78.062 2 51 2C23.938 2 2 23.938 2 51C2 78.062 23.938 100 51 100ZM51 102C79.1665 102 102 79.1665 102 51C102 22.8335 79.1665 0 51 0C22.8335 0 0 22.8335 0 51C0 79.1665 22.8335 102 51 102Z" fill="#342557"/>
<g opacity="0.9" transform="translate(16.9863 37.0547)">
<path d="M10.4062 22.7812L10.5469 23.3262L10.7051 22.7812L18.7559 0.351562H21.1289L11.6016 25.9453H9.52734L0 0.351562H2.35547L10.4062 22.7812Z" fill="#342556"/>
<path d="M39.3926 19.6523C39.3926 18.2344 38.8945 17.1152 37.8984 16.2949C36.9023 15.4629 35.0801 14.6777 32.4316 13.9395C29.7832 13.1895 27.8496 12.375 26.6309 11.4961C24.8965 10.2539 24.0293 8.625 24.0293 6.60938C24.0293 4.65234 24.832 3.06445 26.4375 1.8457C28.0547 0.615234 30.1172 0 32.625 0C34.3242 0 35.8418 0.328125 37.1777 0.984375C38.5254 1.64062 39.5684 2.55469 40.3066 3.72656C41.0449 4.89844 41.4141 6.20508 41.4141 7.64648H39.2344C39.2344 5.90039 38.6367 4.5 37.4414 3.44531C36.2461 2.37891 34.6406 1.8457 32.625 1.8457C30.668 1.8457 29.1094 2.28516 27.9492 3.16406C26.7891 4.03125 26.209 5.16797 26.209 6.57422C26.209 7.875 26.7305 8.93555 27.7734 9.75586C28.8164 10.5762 30.4863 11.3027 32.7832 11.9355C35.0801 12.5566 36.8203 13.207 38.0039 13.8867C39.1875 14.5547 40.0781 15.3574 40.6758 16.2949C41.2734 17.2324 41.5723 18.3398 41.5723 19.6172C41.5723 21.6328 40.7637 23.25 39.1465 24.4688C37.541 25.6875 35.4199 26.2969 32.7832 26.2969C30.9785 26.2969 29.3203 25.9746 27.8086 25.3301C26.3086 24.6855 25.166 23.7832 24.3809 22.623C23.6074 21.4629 23.2207 20.1328 23.2207 18.6328H25.3828C25.3828 20.4375 26.0566 21.8613 27.4043 22.9043C28.752 23.9473 30.5449 24.4688 32.7832 24.4688C34.7754 24.4688 36.375 24.0293 37.582 23.1504C38.7891 22.2715 39.3926 21.1055 39.3926 19.6523Z" fill="#342556"/>
<path d="M65.3027 25.9453H63.1406L48.4277 4.04297V25.9453H46.248V0.351562H48.4277L63.1582 22.2715V0.351562H65.3027V25.9453Z" fill="#342556"/>
</g>
</svg>
