<svg width="84" height="84" viewBox="0 0 84 84" fill="none" xmlns="http://www.w3.org/2000/svg">
<path d="M79.8 0H4.2C1.88147 0.00246094 0.00246094 1.88147 0 4.2V79.8C0.00246094 82.1185 1.88147 83.9975 4.2 84H79.8C82.1185 83.9975 83.9975 82.1185 84 79.8V4.2C83.9975 1.88147 82.1185 0.00246094 79.8 0ZM81.1999 79.8C81.1991 80.5729 80.5729 81.1993 79.8 81.1999H4.2C3.42727 81.199 2.80104 80.5727 2.80005 79.8V13.9999H81.2001V79.8H81.1999ZM81.1999 11.2001H2.80005V4.2C2.80104 3.42727 3.42727 2.80104 4.2 2.80005H79.8C80.5729 2.80087 81.1993 3.4271 81.1999 4.2V11.2001V11.2001Z" fill="url(#paint0_linear)"/>
<path d="M0.406055 0.388705C-0.135352 0.940775 -0.135352 1.82474 0.406055 2.37665C0.958125 2.91806 1.84209 2.91806 2.394 2.37665C2.93541 1.82458 2.93541 0.940775 2.394 0.388705C1.83274 -0.129568 0.967312 -0.129568 0.406055 0.388705Z" transform="translate(5.59961 5.61719)" fill="url(#paint1_linear)"/>
<path d="M2.18416 0.238358C2.10607 0.185202 2.02125 0.14271 1.93184 0.111866C1.85243 0.0715069 1.76745 0.0434524 1.67967 0.0285227C1.40684 -0.0285711 1.12301 0.000467881 0.867563 0.111866C0.698087 0.183069 0.542062 0.282656 0.406055 0.406523C-0.135352 0.958593 -0.135352 1.84256 0.406055 2.39447C0.542227 2.51784 0.698251 2.61726 0.867563 2.68847C1.03606 2.76033 1.21702 2.79839 1.40011 2.80052C1.49379 2.7979 1.5873 2.78855 1.67967 2.77247C1.76745 2.75688 1.85243 2.7285 1.93184 2.6883C2.02109 2.65746 2.10607 2.61497 2.18416 2.56181C2.25389 2.50636 2.32362 2.45041 2.394 2.3943C2.44995 2.32392 2.50605 2.25419 2.56151 2.17003C2.61729 2.09866 2.66011 2.01827 2.688 1.93214C2.7282 1.85257 2.75658 1.76759 2.772 1.67981C2.78808 1.58744 2.79743 1.49393 2.80006 1.40025C2.79464 1.02963 2.64961 0.674765 2.394 0.406194C2.32362 0.350577 2.25389 0.294468 2.18416 0.238358Z" transform="translate(11.1992 5.59937)" fill="url(#paint2_linear)"/>
<path d="M2.68802 0.875647C2.65718 0.786561 2.61452 0.702068 2.56153 0.624139C2.51034 0.550639 2.4544 0.48042 2.39402 0.414139C1.99355 0.0103812 1.38848 -0.111025 0.863157 0.107014C0.337828 0.325053 -0.00325778 0.839389 2.3466e-05 1.40819C0.00232034 1.97421 0.343898 2.48379 0.866601 2.70084C1.38947 2.9179 1.99141 2.80026 2.39402 2.40225C2.45407 2.3358 2.51002 2.26558 2.56153 2.19241C2.61469 2.11432 2.65718 2.0295 2.68802 1.94008C2.72822 1.86051 2.7566 1.77553 2.77202 1.68776C2.7881 1.59539 2.79745 1.50187 2.80008 1.40819C2.7968 1.31419 2.78744 1.22067 2.77202 1.12797C2.7566 1.0402 2.72822 0.955217 2.68802 0.875647Z" transform="translate(16.7988 5.5918)" fill="url(#paint3_linear)"/>
<path d="M20.9998 0H1.39995C0.62672 0 0 0.626719 0 1.39995C0 2.17317 0.62672 2.79989 1.39995 2.79989H21C21.7732 2.79989 22.3999 2.17317 22.3999 1.39995C22.3999 0.626719 21.7731 0 20.9998 0Z" transform="translate(30.8008 5.59985)" fill="url(#paint4_linear)"/>
<path d="M2.79989 0H1.39994C0.626717 0 0 0.626719 0 1.39995C0 2.17317 0.626881 2.79989 1.39994 2.79989H2.79989C3.57312 2.79989 4.19984 2.17317 4.19984 1.39995C4.19984 0.626719 3.57312 0 2.79989 0Z" transform="translate(74.1992 5.59985)" fill="url(#paint5_linear)"/>
<path d="M2.79989 0H1.39994C0.626717 0 0 0.626719 0 1.39995C0 2.17317 0.626717 2.79989 1.39994 2.79989H2.79989C3.57311 2.79989 4.19984 2.17317 4.19984 1.39995C4.19984 0.626719 3.57311 0 2.79989 0Z" transform="translate(67.2012 5.59985)" fill="url(#paint6_linear)"/>
<path d="M7.00029 14.0005C10.325 13.9959 13.1894 11.6572 13.8588 8.40052H19.0205L17.2102 10.2108C16.8532 10.5637 16.7126 11.0808 16.8416 11.5659C16.9705 12.0511 17.3495 12.4301 17.8347 12.559C18.3198 12.688 18.8369 12.5474 19.1898 12.1904L22.9797 8.40052H28V11.2004C28.0014 12.7462 29.2542 13.9988 30.8 14.0005H53.2003C54.7461 13.999 55.9987 12.7462 56.0003 11.2004V8.40036H70.0003V25.2004H43.98L45.7902 23.3901C46.1476 23.0372 46.2885 22.5199 46.1595 22.0346C46.0306 21.5493 45.6514 21.1702 45.1661 21.0412C44.6809 20.9123 44.1636 21.0532 43.8107 21.4105L40.0208 25.2004H36.4003V22.4003C36.3988 20.8545 35.146 19.6019 33.6002 19.6003H11.2003C9.6545 19.6017 8.40188 20.8545 8.40024 22.4003V30.8003C8.40171 32.3461 9.6545 33.5987 11.2003 33.6004H21.0002V38.6207L19.1901 36.8106C18.6425 36.2698 17.761 36.2726 17.2166 36.8168C16.6724 37.361 16.6696 38.2425 17.2104 38.7903L21.0002 42.5802V44.8004H15.4003C14.87 44.8002 14.3851 45.0998 14.148 45.5743L8.54806 56.7744C8.33117 57.2083 8.3543 57.7238 8.60942 58.1366C8.86454 58.5493 9.31521 58.8005 9.80035 58.8005H29.4004C29.9307 58.8007 30.4156 58.5011 30.6527 58.0266L33.0657 53.2004H52.6207L50.8104 55.0107C50.4531 55.3636 50.3121 55.8809 50.4411 56.3662C50.57 56.8515 50.9492 57.2306 51.4345 57.3596C51.9198 57.4885 52.4371 57.3476 52.79 56.9903L56.5798 53.2004H58.9417C59.6604 56.7214 62.9284 59.1262 66.5038 58.7649C70.0792 58.4038 72.8002 55.3939 72.8002 51.8003C72.8002 48.2067 70.079 45.197 66.5038 44.8357C62.9284 44.4746 59.6604 46.8792 58.9417 50.4002H56.58L52.7901 46.6104C52.2425 46.0696 51.361 46.0722 50.8166 46.6166C50.2724 47.1608 50.2696 48.0423 50.8104 48.5901L52.6205 50.4004H34.4657L36.2526 46.8266C36.4697 46.3926 36.4464 45.8772 36.1913 45.4644C35.9362 45.0516 35.4855 44.8004 35.0003 44.8004H23.8003V42.5802L27.5901 38.7903C28.1309 38.2427 28.1283 37.3612 27.5839 36.8168C27.0395 36.2724 26.1582 36.2698 25.6104 36.8106L23.8003 38.6207V33.6004H33.6002C35.146 33.5989 36.3987 32.3461 36.4003 30.8003V28.0004H40.0207L43.8105 31.7903C44.3581 32.331 45.2397 32.3284 45.784 31.784C46.3282 31.2398 46.331 30.3583 45.7902 29.8105L43.98 28.0004H71.4002C71.7715 28.0006 72.1277 27.8531 72.3904 27.5904C72.6529 27.3279 72.8003 26.9717 72.8003 26.6003V7.00042C72.8005 6.62914 72.653 6.27296 72.3904 6.0103C72.1279 5.7478 71.7717 5.6003 71.4002 5.6003H56.0002V2.80041C55.9987 1.25462 54.7459 0.00200015 53.2001 0.000359526H30.8003C29.2546 0.00183609 28.0019 1.25462 28.0003 2.80041V5.60047H22.98L19.1901 1.81063C18.6425 1.26988 17.761 1.2725 17.2166 1.81686C16.6724 2.36105 16.6696 3.24256 17.2104 3.79037L19.0205 5.60063H13.8588C13.122 1.99126 9.71389 -0.429484 6.06333 0.0636879C2.41278 0.556696 -0.23109 3.7948 0.0159878 7.47029C0.263066 11.1458 3.3166 14.0005 7.00029 14.0005ZM65.8003 47.6005C68.1198 47.6005 70.0003 49.4808 70.0003 51.8005C70.0003 54.1201 68.1198 56.0005 65.8003 56.0005C63.4808 56.0005 61.6003 54.1201 61.6003 51.8005C61.6028 49.4819 63.4818 47.6029 65.8003 47.6005ZM32.7348 47.6005L28.5348 56.0005H12.0657L16.2657 47.6005H32.7348ZM11.2003 30.8005V22.4005H33.6002L33.6012 26.5954L33.6002 26.6005L33.6012 26.6056L33.6022 30.8005H11.2003V30.8005ZM30.8003 2.80041H53.2003L53.2013 6.99533L53.2003 7.00042L53.2013 7.0055L53.2023 11.2004H30.8003V2.80041ZM7.00029 2.80041C9.31981 2.80041 11.2003 4.68074 11.2003 7.00042C11.2003 9.31993 9.31981 11.2004 7.00029 11.2004C4.68078 11.2004 2.80029 9.32009 2.80029 7.00042C2.80275 4.68188 4.68176 2.80288 7.00029 2.80041Z" transform="translate(5.59961 18.1997)" fill="url(#paint7_linear)"/>
<defs>
<linearGradient id="paint0_linear" x2="1" gradientUnits="userSpaceOnUse" gradientTransform="matrix(47.6168 -55.1975 54.9674 47.3502 -7.77254 41.183)">
<stop stop-color="#94AAEB"/>
<stop offset="1" stop-color="#B870FF"/>
</linearGradient>
<linearGradient id="paint1_linear" x2="1" gradientUnits="userSpaceOnUse" gradientTransform="matrix(1.58726 -1.82855 1.83228 1.56859 -0.25909 1.36429)">
<stop stop-color="#94AAEB"/>
<stop offset="1" stop-color="#B870FF"/>
</linearGradient>
<linearGradient id="paint2_linear" x2="1" gradientUnits="userSpaceOnUse" gradientTransform="matrix(1.58726 -1.84026 1.83228 1.57864 -0.25909 1.37302)">
<stop stop-color="#94AAEB"/>
<stop offset="1" stop-color="#B870FF"/>
</linearGradient>
<linearGradient id="paint3_linear" x2="1" gradientUnits="userSpaceOnUse" gradientTransform="matrix(1.58727 -1.8454 1.8323 1.58304 -0.259092 1.37686)">
<stop stop-color="#94AAEB"/>
<stop offset="1" stop-color="#B870FF"/>
</linearGradient>
<linearGradient id="paint4_linear" x2="1" gradientUnits="userSpaceOnUse" gradientTransform="matrix(12.6978 -1.83984 14.6579 1.57828 -2.07267 1.37271)">
<stop stop-color="#94AAEB"/>
<stop offset="1" stop-color="#B870FF"/>
</linearGradient>
<linearGradient id="paint5_linear" x2="1" gradientUnits="userSpaceOnUse" gradientTransform="matrix(2.38075 -1.83984 2.74826 1.57828 -0.388612 1.37271)">
<stop stop-color="#94AAEB"/>
<stop offset="1" stop-color="#B870FF"/>
</linearGradient>
<linearGradient id="paint6_linear" x2="1" gradientUnits="userSpaceOnUse" gradientTransform="matrix(2.38075 -1.83984 2.74826 1.57828 -0.388612 1.37271)">
<stop stop-color="#94AAEB"/>
<stop offset="1" stop-color="#B870FF"/>
</linearGradient>
<linearGradient id="paint7_linear" x2="1" gradientUnits="userSpaceOnUse" gradientTransform="matrix(41.2681 -38.6388 47.6386 33.1456 -6.73623 28.8285)">
<stop stop-color="#94AAEB"/>
<stop offset="1" stop-color="#B870FF"/>
</linearGradient>
</defs>
</svg>
