<svg width="84" height="84" viewBox="0 0 84 84" fill="none" xmlns="http://www.w3.org/2000/svg">
<path d="M35.4143 15.0464L32.9665 13.9669C32.8555 13.5559 32.7351 13.1668 32.6008 12.7916L33.961 10.4494C34.2089 10.021 34.2131 9.494 33.972 9.06181C33.3019 7.86552 32.5017 6.74691 31.5859 5.72631C31.2465 5.34391 30.7249 5.1784 30.2271 5.29482L27.652 5.88393C27.352 5.64425 27.0389 5.41316 26.7124 5.19084L26.4631 2.46497C26.4168 1.96685 26.1089 1.53115 25.655 1.32128C24.4275 0.74637 23.1385 0.313477 21.8128 0.0310181C21.3128 -0.0754081 20.7946 0.100099 20.4622 0.488458L18.6651 2.57473H17.5857L15.7882 0.488282C15.4562 0.0995726 14.9377 -0.0761094 14.4377 0.0308427C13.112 0.313477 11.8229 0.74637 10.5954 1.32111C10.141 1.53133 9.83311 1.96773 9.78735 2.4662L9.53803 5.19067C9.21331 5.41264 8.89842 5.64408 8.59843 5.88375L6.02298 5.29482C5.52522 5.17805 5.00343 5.34373 4.66416 5.72631C3.74823 6.74674 2.94802 7.86535 2.27808 9.06181C2.037 9.494 2.04121 10.021 2.28913 10.4494L3.64935 12.7916C3.51504 13.167 3.39459 13.5559 3.28361 13.9669L0.83563 15.0462C0.327519 15.2708 -0.00017505 15.774 2.81152e-07 16.3296V20.1403C-0.000350382 20.6959 0.327344 21.1991 0.83563 21.4237L3.28343 22.5032C3.39442 22.9142 3.51487 23.3033 3.64917 23.6785L2.28895 26.0207C2.04103 26.4491 2.03682 26.9761 2.27791 27.4083C2.94802 28.6046 3.74823 29.7232 4.66399 30.7438C5.00396 31.1253 5.52504 31.2908 6.02281 31.1753L8.5979 30.5862C8.89789 30.8259 9.21103 31.057 9.5375 31.2793L9.78682 34.0052C9.83311 34.5033 10.141 34.939 10.5949 35.1488C11.8224 35.7237 13.1115 36.1566 14.4371 36.4391C14.9372 36.5448 15.4549 36.3695 15.7877 35.9817L17.5849 33.8956H18.6642L20.4613 35.9817C20.7277 36.2915 21.1159 36.4696 21.5244 36.4693C21.621 36.4694 21.7174 36.4593 21.8121 36.4391C23.1378 36.1565 24.4268 35.7236 25.6543 35.1488C26.1088 34.9386 26.4166 34.5022 26.4624 34.0037L26.7117 31.2793C27.0364 31.0573 27.3513 30.8259 27.6513 30.5862L30.2266 31.1751C30.7244 31.2912 31.2458 31.1255 31.5854 30.7436C32.5013 29.7232 33.3016 28.6046 33.9715 27.4081C34.2126 26.9759 34.2084 26.4489 33.9605 26.0206L32.6002 23.6783C32.7345 23.3029 32.855 22.914 32.966 22.5031L35.4138 21.4237C35.9219 21.1991 36.2496 20.6959 36.2494 20.1403V16.3298C36.2501 15.7742 35.9224 15.2708 35.4143 15.0464ZM33.4448 19.2268L31.2053 20.2145C30.8008 20.3937 30.5043 20.7531 30.4053 21.1842C30.248 21.8948 30.0308 22.5909 29.756 23.2649C29.5887 23.6688 29.6191 24.1275 29.8382 24.5059L31.1217 26.718C30.7866 27.2502 30.4202 27.762 30.0244 28.2508L27.6 27.696C27.1592 27.5926 26.6958 27.7101 26.3576 28.0111C25.8205 28.4826 25.2451 28.9083 24.637 29.2837C24.2629 29.5154 24.0193 29.9096 23.9795 30.3479L23.7439 32.9218C23.1841 33.149 22.6114 33.3434 22.029 33.5039L20.3702 31.578C20.1037 31.2686 19.7157 31.0906 19.3071 31.0904H16.9428C16.5344 31.0906 16.1464 31.2686 15.8798 31.578L14.221 33.5039C13.638 33.3434 13.065 33.149 12.5046 32.9218L12.269 30.3453C12.2283 29.9077 11.985 29.5142 11.6115 29.2824C11.0036 28.9081 10.4285 28.4827 9.89237 28.0113C9.55416 27.7104 9.09076 27.5929 8.64997 27.6962L6.22549 28.251C5.82977 27.7621 5.4635 27.2503 5.12827 26.7182L6.41169 24.506C6.63068 24.1277 6.66119 23.669 6.49392 23.2651C6.21918 22.5911 6.00194 21.895 5.84467 21.1844C5.74561 20.7533 5.4493 20.3938 5.04463 20.2146L2.80513 19.227V17.2435L5.04481 16.2558C5.4493 16.0766 5.74578 15.7172 5.84485 15.2861C6.00212 14.5755 6.21935 13.8794 6.4941 13.2054C6.66136 12.8015 6.63103 12.3428 6.41187 11.9644L5.12844 9.75227C5.4635 9.22013 5.82977 8.70834 6.22549 8.21952L8.64997 8.77427C9.09076 8.87684 9.55381 8.75936 9.89237 8.4592C10.4294 7.98773 11.0048 7.56203 11.6129 7.18664C11.9871 6.95485 12.2306 6.56071 12.2704 6.12238L12.506 3.54852C13.0659 3.32129 13.6385 3.12684 14.221 2.96642L15.8798 4.89226C16.1463 5.20171 16.5343 5.37968 16.9428 5.37985H19.307C19.7153 5.37968 20.1033 5.20154 20.37 4.89226L22.0288 2.96642C22.6118 3.12684 23.1848 3.32129 23.7451 3.54852L23.9808 6.12501C24.0214 6.56264 24.2648 6.95608 24.6383 7.18787C25.2461 7.5622 25.8212 7.98756 26.3574 8.45902C26.6958 8.75936 27.159 8.87684 27.5998 8.77409L30.0243 8.21934C30.42 8.70817 30.7864 9.21996 31.1215 9.75209L29.8381 11.9642C29.6191 12.3426 29.5886 12.8013 29.7558 13.2052C30.0306 13.8792 30.2478 14.5753 30.4051 15.2859C30.5041 15.717 30.8005 16.0765 31.2051 16.2557L33.4446 17.2433V19.2268H33.4448Z" transform="translate(0 0.000244141)" fill="url(#paint0_linear)"/>
<path d="M9.81856 0C4.39591 0 0 4.39591 0 9.81856C0.00648726 15.2384 4.39871 19.6306 9.81856 19.6371C15.2412 19.6371 19.6371 15.2412 19.6371 9.81856C19.6371 4.39591 15.2412 0 9.81856 0ZM9.81856 16.8318C5.94531 16.8318 2.8053 13.6918 2.8053 9.81856C2.80986 5.94706 5.94706 2.80986 9.81856 2.8053C13.6918 2.8053 16.8318 5.94531 16.8318 9.81856C16.8318 13.6918 13.6918 16.8318 9.81856 16.8318Z" transform="translate(8.30664 8.41699)" fill="url(#paint1_linear)"/>
<path d="M29.8405 12.5591L27.9036 11.7044C27.8282 11.4332 27.7462 11.173 27.6585 10.9194L28.7379 9.05934C28.9858 8.63048 28.99 8.10309 28.7489 7.67037C28.181 6.65923 27.5041 5.7135 26.7298 4.84999C26.3905 4.46829 25.8698 4.30261 25.3724 4.4185L23.3341 4.88418C23.1341 4.72796 22.9286 4.57647 22.7177 4.42937L22.5204 2.26788C22.4752 1.76924 22.1671 1.33249 21.7123 1.1228C20.6726 0.637128 19.5814 0.270861 18.4591 0.0310072C17.959 -0.0757696 17.4406 0.0997372 17.1085 0.488447L15.6811 2.14585H14.9963L13.5689 0.488447C13.237 0.0993865 12.7184 -0.0762955 12.2183 0.0310072C11.0962 0.270861 10.0048 0.636952 8.96505 1.1228C8.51024 1.33249 8.20218 1.76924 8.15694 2.26788L7.95969 4.42937C7.74877 4.57595 7.54328 4.72761 7.34323 4.88418L5.305 4.4185C4.80759 4.30331 4.28721 4.46882 3.94759 4.84999C3.17315 5.71332 2.49655 6.65976 1.92988 7.67177C1.6888 8.10396 1.69282 8.63101 1.94074 9.05934L3.01886 10.918C2.93119 11.1714 2.84949 11.4335 2.77374 11.7042L0.836859 12.5591C0.328047 12.783 -0.000350382 13.2866 2.80551e-07 13.8426V17.0176C-0.000350382 17.5736 0.328047 18.0772 0.836859 18.3011L2.77374 19.1558C2.84914 19.427 2.93119 19.6872 3.01886 19.9408L1.93952 21.801C1.6916 22.2299 1.68739 22.7573 1.92847 23.19C2.4962 24.2011 3.17333 25.1469 3.94759 26.0104C4.28721 26.3923 4.80864 26.5579 5.30641 26.4419L7.34183 25.9748C7.54188 26.1322 7.74859 26.2844 7.95952 26.431L8.15677 28.5925C8.202 29.0913 8.51024 29.5279 8.96487 29.7376C10.0046 30.2232 11.0958 30.5895 12.2181 30.8294C12.7182 30.9353 13.2361 30.7599 13.5687 30.3719L14.9961 28.7145H15.6809L17.1083 30.3719C17.3746 30.6817 17.7628 30.8599 18.1713 30.8595C18.268 30.8597 18.3644 30.8495 18.4591 30.8294C19.5814 30.5895 20.6726 30.2234 21.7123 29.7376C22.1671 29.5279 22.4752 29.0911 22.5204 28.5925L22.7177 26.431C22.9286 26.2844 23.1341 26.1328 23.3341 25.9762L25.3724 26.4419C25.8698 26.5572 26.3903 26.3917 26.7298 26.0104C27.5039 25.147 28.181 24.2011 28.7489 23.19C28.99 22.7573 28.9858 22.2299 28.7379 21.801L27.6585 19.9409C27.7462 19.6876 27.8284 19.4272 27.9036 19.156L29.8405 18.3012C30.3493 18.0773 30.6777 17.5738 30.6774 17.0178V13.8426C30.6777 13.2866 30.3493 12.783 29.8405 12.5591ZM27.8721 16.1042L26.1447 16.8658C25.7383 17.0445 25.4409 17.4053 25.3434 17.8384C25.2153 18.4163 25.0384 18.982 24.8146 19.53C24.6474 19.9343 24.6777 20.3935 24.8969 20.7724L25.8954 22.4929C25.6694 22.8435 25.4255 23.1851 25.1639 23.5175L23.2845 23.0874C22.8446 22.9845 22.3823 23.102 22.0449 23.4025C21.608 23.7858 21.1399 24.1317 20.6451 24.4366C20.2699 24.6684 20.0253 25.0631 19.9848 25.5023L19.8026 27.5049C19.426 27.6529 19.0478 27.7816 18.6712 27.8885L17.3864 26.3968C17.1199 26.0874 16.7319 25.9094 16.3235 25.9092H14.3539C13.9455 25.9094 13.5575 26.0875 13.291 26.3968L12.0062 27.8885C11.6296 27.7818 11.2514 27.6529 10.8748 27.5049L10.6926 25.5023C10.6521 25.0631 10.4077 24.6684 10.0323 24.4366C9.53768 24.1321 9.06989 23.786 8.63367 23.4025C8.29405 23.1041 7.83223 22.9864 7.39127 23.086L5.5133 23.5161C5.2517 23.186 5.00782 22.8435 4.78181 22.4929L5.78033 20.7724C5.99932 20.3935 6.02982 19.9343 5.86256 19.53C5.63883 18.982 5.46193 18.4161 5.33376 17.8384C5.2361 17.4053 4.93874 17.0445 4.53249 16.8658L2.80513 16.1042V14.7564L4.53249 13.9947C4.93891 13.8161 5.23627 13.4553 5.33376 13.0222C5.4621 12.4436 5.63901 11.8767 5.86256 11.3278C6.02982 10.9238 5.99949 10.4652 5.78033 10.0868L4.78304 8.36626C5.00764 8.017 5.25153 7.67458 5.51312 7.34303L7.3925 7.77311C7.83241 7.87481 8.29423 7.75751 8.63209 7.45804C9.06901 7.07477 9.53715 6.72884 10.0319 6.42394C10.4071 6.19215 10.6517 5.79748 10.6922 5.35827L10.8744 3.35564C11.251 3.20766 11.6292 3.07897 12.0058 2.97202L13.2906 4.46373C13.5571 4.77319 13.9452 4.95116 14.3537 4.95133H16.3234C16.7317 4.95116 17.1199 4.77319 17.3864 4.46373L18.6712 2.97202C19.0478 3.07879 19.426 3.20766 19.8026 3.35564L19.9848 5.35827C20.0253 5.79748 20.2697 6.19215 20.6451 6.42394C21.1399 6.72884 21.608 7.07477 22.0449 7.45804C22.3826 7.75786 22.8448 7.87533 23.2845 7.77311L25.1639 7.34303C25.4255 7.67458 25.6694 8.01595 25.8954 8.36766L24.8969 10.0882C24.6779 10.4671 24.6474 10.9263 24.8146 11.3306C25.0384 11.8785 25.2153 12.4445 25.3434 13.0222C25.4411 13.4553 25.7385 13.8161 26.1447 13.9947L27.8721 14.7564V16.1042V16.1042Z" transform="translate(53.2812)" fill="url(#paint2_linear)"/>
<path d="M7.01325 0C3.14001 0 0 3.14001 0 7.01325C0.00455862 10.8847 3.14176 14.0219 7.01325 14.0265C10.8865 14.0265 14.0265 10.8865 14.0265 7.01325C14.0265 3.14001 10.8865 0 7.01325 0ZM7.01325 11.2212C4.68924 11.2212 2.8053 9.33727 2.8053 7.01325C2.80776 4.69029 4.69029 2.80776 7.01325 2.8053C9.33727 2.8053 11.2212 4.68924 11.2212 7.01325C11.2212 9.33727 9.3371 11.2212 7.01325 11.2212Z" transform="translate(61.6074 8.41699)" fill="url(#paint3_linear)"/>
<path d="M40.6458 17.1158L38.6131 16.6884C38.5294 16.3363 38.4349 15.9843 38.3295 15.635L39.8884 14.2378C40.336 13.8372 40.4788 13.196 40.2431 12.6433C39.5665 11.0731 38.7012 9.59115 37.6666 8.22988C37.3044 7.75123 36.6786 7.55485 36.1077 7.74088L34.1475 8.3847C33.8982 8.1203 33.6394 7.86151 33.375 7.61219L34.0188 5.65338C34.2063 5.08338 34.0103 4.45728 33.5312 4.09592C32.1701 3.05953 30.6877 2.19322 29.1164 1.51662C28.5636 1.28342 27.9238 1.4258 27.5219 1.87131L26.1247 3.43141C25.7755 3.32463 25.4234 3.23013 25.0713 3.1465L24.6439 1.11371C24.5071 0.464804 23.9347 0.000175331 23.2714 0H18.4883C17.8251 0.000175331 17.2526 0.464629 17.1158 1.11371L16.6884 3.1465C16.3363 3.23013 15.9843 3.32463 15.635 3.43001L14.2378 1.87114C13.8361 1.42544 13.1961 1.28308 12.6433 1.51644C11.0731 2.19304 9.59115 3.05831 8.22988 4.09294C7.75 4.45429 7.55345 5.08093 7.74088 5.65181L8.3847 7.61201C8.1203 7.86133 7.86151 8.12012 7.61219 8.38452L5.65338 7.7407C5.08338 7.55608 4.45885 7.75158 4.09592 8.2283C3.05953 9.5894 2.19322 11.0718 1.51662 12.6431C1.28097 13.1958 1.42369 13.837 1.87131 14.2376L3.43141 15.6348C3.32463 15.9841 3.23013 16.3361 3.1465 16.6882L1.11371 17.1157C0.464804 17.2524 0.000175331 17.8249 0 18.4882V23.2714C0.000175331 23.9347 0.464629 24.5071 1.11371 24.6439L3.1465 25.0713C3.23013 25.4234 3.32463 25.7755 3.43001 26.1247L1.87114 27.5219C1.42352 27.9226 1.2808 28.5638 1.51644 29.1164C2.19304 30.6867 3.05831 32.1686 4.09294 33.5298C4.45517 34.0085 5.08093 34.2049 5.65181 34.0188L7.61201 33.375C7.86133 33.6394 8.12012 33.8982 8.38452 34.1475L7.7407 36.1063C7.55328 36.6763 7.7493 37.3024 8.2283 37.6638C9.5894 38.7002 11.0718 39.5665 12.6431 40.2431C13.1956 40.48 13.8377 40.3371 14.2376 39.8884L15.6348 38.3283C15.9841 38.4351 16.3362 38.5296 16.6882 38.6132L17.1157 40.646C17.2524 41.2949 17.8249 41.7595 18.4882 41.7597H23.2714C23.9347 41.7595 24.5071 41.2951 24.6439 40.646L25.0713 38.6132C25.4234 38.5296 25.7755 38.4351 26.1247 38.3297L27.5219 39.8886C27.9219 40.3373 28.5639 40.48 29.1164 40.2433C30.6867 39.5667 32.1686 38.7014 33.5298 37.6668C34.0097 37.3054 34.2063 36.6786 34.0188 36.1079L33.375 34.1477C33.6394 33.8984 33.8982 33.6396 34.1475 33.3752L36.1063 34.019C36.6763 34.205 37.3016 34.0092 37.6638 33.5314C38.7002 32.1703 39.5665 30.6879 40.2431 29.1166C40.4788 28.5639 40.336 27.9227 39.8884 27.5221L38.3283 26.1249C38.4351 25.7756 38.5296 25.4236 38.6132 25.0715L40.646 24.644C41.2949 24.5073 41.7595 23.9348 41.7597 23.2716V18.4883C41.7594 17.8252 41.2949 17.2526 40.6458 17.1158ZM38.9541 22.1333L37.1392 22.5155C36.5806 22.633 36.1489 23.0771 36.0474 23.6387C35.8959 24.4706 35.6755 25.2884 35.3885 26.0839C35.1953 26.6214 35.3477 27.2223 35.7734 27.6029L37.2446 28.9207C36.8787 29.6515 36.4645 30.3572 36.005 31.0329L34.1517 30.4233C33.6087 30.2461 33.0124 30.4144 32.6423 30.8494C32.0949 31.4965 31.4948 32.0972 30.848 32.6451C30.4133 33.0151 30.2455 33.611 30.4233 34.1533L31.033 36.0052C30.3572 36.4651 29.6517 36.8792 28.9207 37.2448L27.6017 35.7736C27.2197 35.3491 26.6192 35.1971 26.0812 35.3887C25.287 35.6762 24.4699 35.8966 23.6389 36.0476C23.0773 36.1491 22.633 36.5808 22.5157 37.1394L22.1335 38.9544H19.6268L19.2445 37.1394C19.1271 36.5808 18.683 36.1491 18.1214 36.0476C17.2894 35.8961 16.4717 35.6757 15.6762 35.3887H15.6764C15.1388 35.1986 14.5395 35.3505 14.1573 35.7736L12.8395 37.2448C12.1087 36.8788 11.403 36.4647 10.7273 36.0052L11.3369 34.1519C11.5151 33.6089 11.3466 33.0121 10.9109 32.6425C10.2637 32.0951 9.66304 31.4949 9.11513 30.8481C8.74466 30.4144 8.1494 30.2468 7.60693 30.4235L5.7549 31.0331C5.29501 30.3574 4.88088 29.6519 4.51531 28.9209L5.98651 27.6019C6.41239 27.2207 6.56458 26.6193 6.37137 26.0814C6.08382 25.2872 5.86343 24.4701 5.71247 23.639C5.61096 23.0775 5.17929 22.6332 4.62069 22.5159L2.80565 22.1337V19.6269L4.62069 19.2447C5.17929 19.1272 5.61096 18.6831 5.71247 18.1215C5.86396 17.2896 6.08435 16.4719 6.37137 15.6764C6.56458 15.1388 6.41222 14.5379 5.98651 14.1573L4.51531 12.8397C4.88123 12.1089 5.29536 11.4032 5.7549 10.7275L7.60816 11.3371C8.15116 11.5144 8.74746 11.346 9.11758 10.911C9.66497 10.2639 10.2651 9.66321 10.9119 9.1153C11.3466 8.74535 11.5144 8.1494 11.3366 7.6071L10.727 5.75525C11.4027 5.29536 12.1082 4.88122 12.8392 4.51566L14.1582 5.98687C14.5399 6.41187 15.1407 6.56388 15.6787 6.37171C16.4729 6.08417 17.29 5.86378 18.121 5.71282C18.6826 5.6113 19.1269 5.17964 19.2442 4.62103L19.6264 2.80601H22.1331L22.5154 4.62103C22.6328 5.17964 23.0769 5.6113 23.6385 5.71282C24.4705 5.86431 25.2882 6.0847 26.0835 6.37171C26.6211 6.56423 27.2216 6.41204 27.6026 5.98687L28.9204 4.51566C29.6512 4.88157 30.3569 5.29571 31.0326 5.75525L30.423 7.6085C30.2448 8.15151 30.4133 8.74834 30.849 9.11793C31.4962 9.66532 32.0969 10.2655 32.6448 10.9123C33.0159 11.3446 33.6105 11.5121 34.153 11.3369L36.0048 10.7273C36.4647 11.403 36.8788 12.1086 37.2444 12.8395L35.7732 14.1585C35.3473 14.5397 35.1951 15.1411 35.3884 15.679C35.6759 16.4733 35.8963 17.2903 36.0473 18.1214C36.1488 18.683 36.5804 19.1272 37.139 19.2445L38.9541 19.6268V22.1333V22.1333Z" transform="translate(42.1289 42.2402)" fill="url(#paint4_linear)"/>
<path d="M12.6239 0C5.65198 0 0 5.65181 0 12.6239C0 19.5957 5.65198 25.2477 12.6239 25.2477C19.5928 25.2402 25.2402 19.5928 25.2477 12.6239C25.2477 5.65181 19.5957 0 12.6239 0ZM12.6239 22.4424C7.20401 22.4359 2.81179 18.0437 2.8053 12.6239C2.8053 7.20121 7.20121 2.8053 12.6239 2.8053C18.0465 2.8053 22.4424 7.20121 22.4424 12.6239C22.4424 18.0465 18.0465 22.4424 12.6239 22.4424Z" transform="translate(50.3867 50.4963)" fill="url(#paint5_linear)"/>
<path d="M11.2212 0H0V2.8053H11.2212V0Z" transform="translate(39.1641 15.4302)" fill="url(#paint6_linear)"/>
<path d="M32.1481 23.294C32.0062 22.9623 31.742 22.698 31.4103 22.5562L21.5917 18.3483C20.8804 18.0428 20.0562 18.3719 19.7507 19.0832C19.6757 19.2582 19.6369 19.4467 19.6371 19.6371V22.4424H2.8053V0H3.30526e-07V23.8451C-0.000525664 24.6193 0.626809 25.2472 1.40107 25.2477C1.4016 25.2477 1.40213 25.2477 1.40265 25.2477H19.6371V28.053C19.6366 28.8271 20.2637 29.4551 21.0378 29.4557C21.0385 29.4557 21.0391 29.4557 21.0398 29.4557C21.2296 29.456 21.4176 29.4174 21.5917 29.3421L31.4103 25.1341C32.1221 24.8299 32.4524 24.0058 32.1481 23.294ZM22.4424 25.9259V21.7646L27.297 23.8452L22.4424 25.9259Z" transform="translate(6.9043 37.8723)" fill="url(#paint7_linear)"/>
<path d="M11.1349 0L5.10512 7.23645L1.98334 4.11485L0 6.0982L4.20795 10.3062C4.4706 10.5697 4.82757 10.7175 5.19962 10.7171C5.22014 10.7171 5.24205 10.7171 5.26257 10.7157C5.65654 10.698 6.02473 10.5157 6.27756 10.2131L13.2908 1.79715L11.1349 0Z" transform="translate(56.4082 58.0137)" fill="url(#paint8_linear)"/>
<defs>
<linearGradient id="paint0_linear" x2="1" gradientUnits="userSpaceOnUse" gradientTransform="matrix(20.5486 -23.9645 23.7207 20.5575 -3.35417 17.88)">
<stop stop-color="#94AAEB"/>
<stop offset="1" stop-color="#B870FF"/>
</linearGradient>
<linearGradient id="paint1_linear" x2="1" gradientUnits="userSpaceOnUse" gradientTransform="matrix(11.1316 -12.9038 12.85 11.0693 -1.81703 9.62757)">
<stop stop-color="#94AAEB"/>
<stop offset="1" stop-color="#B870FF"/>
</linearGradient>
<linearGradient id="paint2_linear" x2="1" gradientUnits="userSpaceOnUse" gradientTransform="matrix(17.39 -20.2783 20.0745 17.3954 -2.83859 15.1297)">
<stop stop-color="#94AAEB"/>
<stop offset="1" stop-color="#B870FF"/>
</linearGradient>
<linearGradient id="paint3_linear" x2="1" gradientUnits="userSpaceOnUse" gradientTransform="matrix(7.95117 -9.217 9.17858 7.90665 -1.29788 6.87684)">
<stop stop-color="#94AAEB"/>
<stop offset="1" stop-color="#B870FF"/>
</linearGradient>
<linearGradient id="paint4_linear" x2="1" gradientUnits="userSpaceOnUse" gradientTransform="matrix(23.6722 -27.4409 27.3265 23.5397 -3.86404 20.4737)">
<stop stop-color="#94AAEB"/>
<stop offset="1" stop-color="#B870FF"/>
</linearGradient>
<linearGradient id="paint5_linear" x2="1" gradientUnits="userSpaceOnUse" gradientTransform="matrix(14.3121 -16.5906 16.5214 14.232 -2.33618 12.3783)">
<stop stop-color="#94AAEB"/>
<stop offset="1" stop-color="#B870FF"/>
</linearGradient>
<linearGradient id="paint6_linear" x2="1" gradientUnits="userSpaceOnUse" gradientTransform="matrix(6.36093 -1.8434 7.34286 1.58133 -1.0383 1.37537)">
<stop stop-color="#94AAEB"/>
<stop offset="1" stop-color="#B870FF"/>
</linearGradient>
<linearGradient id="paint7_linear" x2="1" gradientUnits="userSpaceOnUse" gradientTransform="matrix(18.2879 -19.3557 21.1109 16.604 -2.98515 14.4414)">
<stop stop-color="#94AAEB"/>
<stop offset="1" stop-color="#B870FF"/>
</linearGradient>
<linearGradient id="paint8_linear" x2="1" gradientUnits="userSpaceOnUse" gradientTransform="matrix(7.53413 -7.04237 8.69716 6.04117 -1.2298 5.25433)">
<stop stop-color="#94AAEB"/>
<stop offset="1" stop-color="#B870FF"/>
</linearGradient>
</defs>
</svg>
