<svg width="83" height="84" viewBox="0 0 83 84" fill="none" xmlns="http://www.w3.org/2000/svg">
<path d="M59.2963 0H9.65288C4.32466 0.00689491 0.00689491 4.32466 0 9.65288V59.1818C0.00689491 64.51 4.32466 68.8278 9.65288 68.8347H24.8217V66.0767H9.65288C5.84689 66.0722 2.76245 62.9878 2.75797 59.1818V35.8536H11.6138C12.431 35.7937 13.0452 35.0829 12.9854 34.2655C12.9738 34.1079 12.9373 33.9531 12.8769 33.8071C11.6514 31.0182 12.9187 27.7638 15.7077 26.5382C18.4966 25.3126 21.751 26.5799 22.9766 29.3689C23.598 30.783 23.598 32.393 22.9766 33.8071C22.636 34.5197 22.9377 35.3735 23.6502 35.7141C23.8345 35.8022 24.0357 35.8498 24.2398 35.8537H33.0956V44.1276C32.64 44.0501 32.1787 44.0118 31.7166 44.0132C27.147 44.0116 23.4415 47.7147 23.4398 52.2841C23.4386 55.5763 25.3893 58.5558 28.407 59.8715L29.5102 57.3452C26.7168 56.13 25.4372 52.8804 26.6523 50.0869C27.529 48.0713 29.5187 46.7687 31.7166 46.7711C32.4766 46.771 33.2281 46.9297 33.923 47.2372C34.6209 47.5418 35.4338 47.2229 35.7384 46.525C35.8143 46.3512 35.8534 46.1637 35.8536 45.9741V35.8536H42.8657C42.7873 36.309 42.748 36.7704 42.7485 37.2325C42.7567 41.1616 45.5197 44.5463 49.3676 45.341L49.9192 42.6395C47.3539 42.1088 45.5121 39.8521 45.5064 37.2325C45.5063 36.4725 45.665 35.721 45.9725 35.0262C46.2771 34.3282 45.9582 33.5153 45.2603 33.2107C45.0865 33.1349 44.899 33.0958 44.7094 33.0956H35.8536V26.0835C36.309 26.1619 36.7704 26.2012 37.2325 26.2007C41.8021 26.2007 45.5064 22.4964 45.5064 17.9268C45.5064 13.3572 41.8021 9.65288 37.2325 9.65288C36.7704 9.65236 36.309 9.69167 35.8536 9.77009V2.75797H59.2963C63.1023 2.76245 66.1867 5.84689 66.1912 9.65288V33.0956H57.3354C56.5738 33.0959 55.9567 33.7137 55.9571 34.4753C55.9572 34.6649 55.9964 34.8524 56.0722 35.0262C56.3797 35.721 56.5385 36.4725 56.5383 37.2325H59.2963C59.2968 36.7704 59.2575 36.309 59.1791 35.8536H67.5702C68.3317 35.8536 68.9492 35.2361 68.9492 34.4746V9.65288C68.9423 4.32466 64.6245 0.00689491 59.2963 0ZM37.2325 12.4108C40.2789 12.4108 42.7485 14.8804 42.7485 17.9268C42.7485 20.9731 40.2789 23.4427 37.2325 23.4427C36.4725 23.4429 35.721 23.2841 35.0262 22.9766C34.3282 22.672 33.5153 22.9909 33.2107 23.6889C33.1349 23.8626 33.0958 24.0502 33.0956 24.2398V32.9811H26.0931C26.1622 32.5631 26.1981 32.1403 26.2007 31.7166C26.2007 31.6918 26.2007 31.6697 26.2007 31.6449C26.2007 31.6201 26.2007 31.6159 26.2007 31.6022C26.2007 27.0325 22.4964 23.3283 17.9268 23.3283C13.3572 23.3283 9.65288 27.0325 9.65288 31.6022C9.65288 31.6159 9.65288 31.6311 9.65288 31.6449C9.65288 31.6587 9.65288 31.6918 9.65288 31.7166C9.65547 32.1403 9.69132 32.5631 9.76044 32.9811H2.75797V9.65288C2.76245 5.84689 5.84689 2.76245 9.65288 2.75797H33.0956V11.6138C33.0959 12.3753 33.7137 12.9924 34.4753 12.9921C34.6649 12.9919 34.8524 12.9528 35.0262 12.8769C35.721 12.5694 36.4725 12.4107 37.2325 12.4108Z" fill="url(#paint0_linear)"/>
<path d="M52.9156 20.7778L41.3225 12.7948L36.8697 0.898339C36.6041 0.184543 35.8102 -0.178647 35.0964 0.0869795C35.0708 0.09646 35.0455 0.106803 35.0205 0.117834L26.0571 4.08241C25.3852 4.37906 25.0639 5.15043 25.3263 5.83648C25.4752 6.22259 25.6145 6.51494 25.762 6.81831C25.9096 7.12169 26.0461 7.40576 26.213 7.85393C27.2834 10.7141 25.8422 13.902 22.9875 14.9874C20.1342 16.0546 16.956 14.6068 15.8887 11.7533C15.621 11.0377 15.505 10.2742 15.5479 9.51147C15.5879 8.75096 15.0037 8.10197 14.2432 8.06198C14.0526 8.05199 13.8621 8.08163 13.6835 8.14903L4.10234 11.7578C3.39095 12.0259 3.0307 12.8191 3.29701 13.5312L6.73619 22.7194C6.28027 22.8024 5.83262 22.926 5.39858 23.0889C1.10736 24.688 -1.07488 29.4631 0.524222 33.7543C2.12333 38.0456 6.8984 40.2278 11.1896 38.6287C11.6314 38.4641 12.0584 38.2621 12.4659 38.0247L14.9315 44.6107C15.1987 45.324 15.9933 45.6855 16.7066 45.4183C16.7074 45.4179 16.7081 45.4176 16.709 45.4174L30.372 40.2697C31.2302 42.1144 32.8095 43.5246 34.7392 44.1694L35.6107 41.5494C34.4741 41.1664 33.5295 40.3591 32.9741 39.2961L37.1317 37.731C38.4974 41.5723 42.1355 44.1362 46.2123 44.1308V41.3729C42.4141 41.3496 39.3407 38.2762 39.3174 34.478C39.3174 34.1122 39.1719 33.7616 38.9134 33.503L34.1118 28.7014C33.3999 27.9833 33.3195 26.8529 33.9228 26.0413C34.2741 25.5671 34.8164 25.2717 35.4053 25.2333C35.9949 25.1836 36.5757 25.4008 36.9883 25.8248L46.6164 35.4529L48.5663 33.503L45.7173 30.654C46.4192 28.5551 46.3759 26.2782 45.5946 24.2073L43.0103 17.3055L51.3435 23.0434C52.4481 23.8188 53.1062 25.0835 53.1072 26.433V44.2453H55.8652V26.433C55.8633 24.1795 54.7624 22.0688 52.9156 20.7778ZM43.0117 25.174C43.3927 26.1865 43.5306 27.2741 43.4144 28.3498L38.9382 23.875C37.0905 21.9801 34.0568 21.942 32.1619 23.7895C30.267 25.6371 30.2289 28.6709 32.0764 30.5658C32.1045 30.5946 32.1329 30.6232 32.1619 30.6513L36.5236 35.013L17.0358 42.3533L14.4075 35.3302C14.2439 34.8937 13.8709 34.5697 13.416 34.4683C13.3177 34.4466 13.2174 34.4354 13.1168 34.4352C12.756 34.4349 12.4095 34.576 12.1515 34.8282C9.93716 36.9203 6.44592 36.8212 4.35383 34.6067C2.26174 32.3924 2.36086 28.9012 4.57533 26.8091C5.09624 26.317 5.70782 25.9312 6.37628 25.673C6.81531 25.5103 7.27383 25.4065 7.74009 25.3641C8.02692 25.3289 8.31616 25.3193 8.60472 25.3351C9.36522 25.3749 10.0142 24.7908 10.054 24.0303C10.064 23.8412 10.0349 23.6521 9.96853 23.4749L6.36663 13.8578L12.9333 11.3853C13.7952 15.8729 18.1318 18.812 22.6193 17.9503C23.0778 17.8622 23.5281 17.7355 23.9652 17.5714C28.2413 15.9491 30.4026 11.1766 28.8013 6.89261C28.6744 6.55338 28.56 6.28447 28.4497 6.04453L34.793 3.23554L43.0117 25.174Z" transform="translate(26.873 38.4937)" fill="url(#paint1_linear)"/>
<defs>
<linearGradient id="paint0_linear" x2="1" gradientUnits="userSpaceOnUse" gradientTransform="matrix(39.085 -45.2322 45.1185 38.8016 -6.37988 33.7479)">
<stop stop-color="#94AAEB"/>
<stop offset="1" stop-color="#B870FF"/>
</linearGradient>
<linearGradient id="paint1_linear" x2="1" gradientUnits="userSpaceOnUse" gradientTransform="matrix(31.6682 -29.9028 36.5567 25.6516 -5.16922 22.3106)">
<stop stop-color="#94AAEB"/>
<stop offset="1" stop-color="#B870FF"/>
</linearGradient>
</defs>
</svg>
