<svg width="83" height="84" viewBox="0 0 83 84" fill="none" xmlns="http://www.w3.org/2000/svg">
<path d="M82.1311 5.71406C81.9198 5.46321 81.6174 5.30653 81.2906 5.27864L63.0095 3.71726L62.6781 1.08275C62.5927 0.405005 61.9728 -0.0753699 61.2967 0.00977847L44.338 2.14193C44.2712 2.12454 44.2028 2.11142 44.1316 2.10535L20.8223 0.114286C20.1511 0.0552237 19.5418 0.571364 19.4847 1.24123L19.1372 5.30998L1.08233 7.57994C0.414273 7.66394 -0.0744691 8.29279 0.00936676 8.96135L9.2254 82.2657C9.26724 82.6001 9.19554 82.9213 9.33221 83.2447C9.52383 83.6976 9.97993 84 10.4719 84H71.1601C71.8434 84 72.3969 83.4465 72.3969 82.7631V81.1522L74.7924 81.3568C75.4636 81.415 76.0729 80.9 76.13 80.2299L82.4174 6.61657C82.4454 6.28959 82.3426 5.96508 82.1311 5.71406ZM9.23508 62.5115L2.61829 9.87993L9.23508 9.04814V62.5115V62.5115ZM21.8443 2.68432L32.6691 3.60881L21.6471 4.99465L21.8443 2.68432ZM60.3781 2.61853L61.01 7.64491H20.3962L60.3781 2.61853ZM73.7706 78.7868L72.3969 78.6695V42.5241C72.3969 41.8409 71.8434 41.2872 71.1601 41.2872C70.4768 41.2872 69.9232 41.8407 69.9232 42.5241V81.5261H11.7088V10.1186H69.9234V36.7522C69.9234 37.4355 70.4769 37.9891 71.1602 37.9891C71.8436 37.9891 72.3971 37.4355 72.3971 36.7522V8.88178C72.3971 8.19862 71.8436 7.64491 71.1602 7.64491H63.5033L63.325 6.22692L79.8475 7.63818L73.7706 78.7868Z" fill="url(#paint0_linear)"/>
<path d="M22.3458 0H15.7492C15.3356 0 14.9494 0.206555 14.7202 0.550758L11.9206 4.7501C8.90727 2.59153 5.218 1.31923 1.23687 1.31923C0.553711 1.31923 0 1.87277 0 2.55609V19.7072C0 20.3903 0.553547 20.944 1.23687 20.944H18.3879C19.0713 20.944 19.6248 20.3905 19.6248 19.7072C19.6248 14.4413 17.3991 9.68607 13.84 6.33067L16.4113 2.47373H22.3459C23.0291 2.47373 23.5828 1.92019 23.5828 1.23687C23.5828 0.553547 23.0289 0 22.3458 0ZM17.1035 18.4703H2.47373V3.84053C5.47328 4.07219 8.24052 5.14188 10.5466 6.81121L9.44294 8.46676C9.09824 8.98356 9.1993 9.69937 9.67541 10.0992C10.2329 10.5674 11.0977 10.4439 11.5011 9.83898L12.4456 8.42214C15.0754 11.0343 16.801 14.5558 17.1035 18.4703Z" transform="translate(42.2188 14.2415)" fill="url(#paint1_linear)"/>
<path d="M44.7742 34.302H33.586L31.6146 31.1479C34.8081 27.8388 36.7759 23.3388 36.7759 18.3879C36.7759 17.7046 36.2223 17.1511 35.539 17.1511H19.6248V1.23687C19.6248 0.553711 19.0711 0 18.3879 0C8.24889 0 0 8.24889 0 18.3879C0 28.527 8.24889 36.7759 18.3879 36.7759C22.6737 36.7759 26.6214 35.3019 29.7516 32.8346L31.8516 36.1946C32.0776 36.5562 32.474 36.7759 32.9004 36.7759H44.7742C45.4574 36.7759 46.0111 36.2223 46.0111 35.539C46.0111 34.8557 45.4574 34.302 44.7742 34.302ZM27.353 24.329C26.991 23.7493 26.2277 23.5735 25.6485 23.9355C25.0692 24.2975 24.893 25.0607 25.2551 25.64L28.432 30.723C25.6907 32.9593 22.1934 34.3023 18.3881 34.3023C9.61307 34.3023 2.4739 27.1631 2.4739 18.3881C2.4739 10.0291 8.9519 3.15475 17.1512 2.52147V18.3881C17.1512 19.0713 17.7049 19.625 18.3881 19.625H34.2547C33.9785 23.2017 32.5144 26.4506 30.2579 28.9772L27.353 24.329Z" transform="translate(19.7891 20.8379)" fill="url(#paint2_linear)"/>
<path d="M11.7913 0H1.23687C0.553875 0 0 0.553547 0 1.23687C0 1.92019 0.553711 2.47373 1.23687 2.47373H11.7913C12.4745 2.47373 13.0282 1.92019 13.0282 1.23687C13.0282 0.553547 12.4745 0 11.7913 0Z" transform="translate(15.832 61.7366)" fill="url(#paint3_linear)"/>
<path d="M11.7913 0H1.23687C0.553711 0 0 0.553547 0 1.23687C0 1.92019 0.553711 2.47373 1.23687 2.47373H11.7913C12.4745 2.47373 13.0282 1.92019 13.0282 1.23687C13.0282 0.553547 12.4745 0 11.7913 0Z" transform="translate(31.6641 61.7366)" fill="url(#paint4_linear)"/>
<path d="M18.3879 0H1.23687C0.553875 0 0 0.553547 0 1.23687C0 1.92019 0.553711 2.47373 1.23687 2.47373H18.3879C19.0711 2.47373 19.6248 1.92019 19.6248 1.23687C19.6248 0.553547 19.0709 0 18.3879 0Z" transform="translate(15.832 68.3333)" fill="url(#paint5_linear)"/>
<path d="M5.19487 0H1.23687C0.553875 0 0 0.553547 0 1.23687C0 1.92019 0.553711 2.47373 1.23687 2.47373H5.19487C5.87803 2.47373 6.43174 1.92019 6.43174 1.23687C6.43157 0.553547 5.87803 0 5.19487 0Z" transform="translate(38.2598 68.3333)" fill="url(#paint6_linear)"/>
<path d="M6.51409 0H1.23687C0.553875 0 0 0.553547 0 1.23687C0 1.92019 0.553711 2.47373 1.23687 2.47373H6.51409C7.19725 2.47373 7.75096 1.92019 7.75096 1.23687C7.75096 0.553547 7.19725 0 6.51409 0Z" transform="translate(15.832 74.9297)" fill="url(#paint7_linear)"/>
<path d="M17.0685 0H1.23686C0.553872 0 0 0.553547 0 1.23687C0 1.92019 0.553708 2.47373 1.23686 2.47373H17.0685C17.7517 2.47373 18.3054 1.92019 18.3054 1.23687C18.3054 0.553547 17.7517 0 17.0685 0Z" transform="translate(26.3867 74.9297)" fill="url(#paint8_linear)"/>
<defs>
<linearGradient id="paint0_linear" x2="1" gradientUnits="userSpaceOnUse" gradientTransform="matrix(46.7223 -55.1975 53.9347 47.3502 -7.62652 41.183)">
<stop stop-color="#94AAEB"/>
<stop offset="1" stop-color="#B870FF"/>
</linearGradient>
<linearGradient id="paint1_linear" x2="1" gradientUnits="userSpaceOnUse" gradientTransform="matrix(13.3683 -13.7626 15.432 11.806 -2.18212 10.2683)">
<stop stop-color="#94AAEB"/>
<stop offset="1" stop-color="#B870FF"/>
</linearGradient>
<linearGradient id="paint2_linear" x2="1" gradientUnits="userSpaceOnUse" gradientTransform="matrix(26.0822 -24.1659 30.1085 20.7303 -4.25742 18.0303)">
<stop stop-color="#94AAEB"/>
<stop offset="1" stop-color="#B870FF"/>
</linearGradient>
<linearGradient id="paint3_linear" x2="1" gradientUnits="userSpaceOnUse" gradientTransform="matrix(7.38525 -1.62552 8.5253 1.39443 -1.2055 1.21281)">
<stop stop-color="#94AAEB"/>
<stop offset="1" stop-color="#B870FF"/>
</linearGradient>
<linearGradient id="paint4_linear" x2="1" gradientUnits="userSpaceOnUse" gradientTransform="matrix(7.38525 -1.62552 8.5253 1.39443 -1.2055 1.21281)">
<stop stop-color="#94AAEB"/>
<stop offset="1" stop-color="#B870FF"/>
</linearGradient>
<linearGradient id="paint5_linear" x2="1" gradientUnits="userSpaceOnUse" gradientTransform="matrix(11.1247 -1.62552 12.842 1.39443 -1.81589 1.21281)">
<stop stop-color="#94AAEB"/>
<stop offset="1" stop-color="#B870FF"/>
</linearGradient>
<linearGradient id="paint6_linear" x2="1" gradientUnits="userSpaceOnUse" gradientTransform="matrix(3.64594 -1.62552 4.20876 1.39443 -0.59513 1.21281)">
<stop stop-color="#94AAEB"/>
<stop offset="1" stop-color="#B870FF"/>
</linearGradient>
<linearGradient id="paint7_linear" x2="1" gradientUnits="userSpaceOnUse" gradientTransform="matrix(4.39377 -1.62552 5.07202 1.39443 -0.717198 1.21281)">
<stop stop-color="#94AAEB"/>
<stop offset="1" stop-color="#B870FF"/>
</linearGradient>
<linearGradient id="paint8_linear" x2="1" gradientUnits="userSpaceOnUse" gradientTransform="matrix(10.3767 -1.62552 11.9786 1.39443 -1.6938 1.21281)">
<stop stop-color="#94AAEB"/>
<stop offset="1" stop-color="#B870FF"/>
</linearGradient>
</defs>
</svg>
