<svg width="89" height="84" viewBox="0 0 89 84" fill="none" xmlns="http://www.w3.org/2000/svg">
<path d="M87.9767 31.7438C87.6874 30.859 86.928 30.227 86.0058 30.0825L58.5218 26.1823L46.154 1.35426C45.7381 0.523646 44.8883 0 43.9661 0C43.0439 0 42.1941 0.523646 41.7782 1.37231L29.5732 26.2726L2.08914 30.3534C1.16697 30.4978 0.407547 31.1298 0.118242 32.0146C-0.171064 32.8994 0.0820787 33.8745 0.751098 34.5064L20.6951 53.8091L16.0843 81.147C15.9216 82.0679 16.3013 82.9888 17.0607 83.5305C17.4766 83.8375 17.9829 84 18.4891 84C18.8869 84 19.2666 83.9097 19.6283 83.7111L44.165 70.7283L68.774 83.5666C69.1357 83.7472 69.5154 83.8375 69.8951 83.8375C71.2331 83.8375 72.3361 82.736 72.3361 81.3998C72.3361 81.2012 72.318 81.0206 72.2638 80.8401L67.5083 53.6647L87.3258 34.2537C88.0309 33.6036 88.266 32.6285 87.9767 31.7438ZM63.2049 51.0825C62.6263 51.6423 62.3732 52.4549 62.5178 53.2494L66.6585 76.9579L45.2861 65.8168C44.5809 65.4377 43.731 65.4557 43.0078 65.8168L21.7077 77.0843L25.7037 53.3396C25.8303 52.5451 25.5771 51.7506 24.9985 51.1909L7.71251 34.4342L31.5621 30.8951C32.3577 30.7687 33.0448 30.2812 33.3884 29.5589L43.9842 7.94497L54.7246 29.5047C55.0863 30.227 55.7734 30.7145 56.569 30.8409L80.4367 34.2356L63.2049 51.0825Z" fill="url(#paint0_linear)"/>
<defs>
<linearGradient id="paint0_linear" x2="1" gradientUnits="userSpaceOnUse" gradientTransform="matrix(49.9396 -55.1975 57.6487 47.3502 -8.15169 41.183)">
<stop stop-color="#94AAEB"/>
<stop offset="1" stop-color="#B870FF"/>
</linearGradient>
</defs>
</svg>
